<?xml version="1.0" encoding="utf-8"?>
<!-- Generator: Adobe Illustrator 27.5.0, SVG Export Plug-In . SVG Version: 6.00 Build 0)  -->
<svg version="1.1" xmlns="http://www.w3.org/2000/svg" xmlns:xlink="http://www.w3.org/1999/xlink" x="0px" y="0px"
	 viewBox="0 0 500 500" style="enable-background:new 0 0 500 500;" xml:space="preserve">
<g id="BACKGROUND">
	<rect style="fill:#FFFFFF;" width="500" height="500"/>
</g>
<g id="OBJECTS">
	<g>
		<g>
			<path d="M189.386,342.062c0,0-103.141,8.601-132.314-43.631c-29.172-52.232-7.538-93.673,16.532-112.884
				c24.07-19.212,61.164-11.944,79.234-61.655c18.071-49.711,71.79-75.861,126.125-66.263c54.335,9.598,71.83,42.352,65.502,81.288
				c-6.328,38.936-5.281,56.409,35.627,65.556c40.908,9.147,54.876,96.614-2.87,128.205
				c-57.746,31.591-118.256,20.795-133.454,16.257C228.571,344.398,205.246,341.561,189.386,342.062z"/>
			<path d="M377.156,112.637c-5.73,1.384-18.313-0.868-21.947-13.855c-4.997-17.857,17.242-26.051,28.295-16.506
				C394.557,91.822,391.303,109.22,377.156,112.637z"/>
		</g>
		<g>
			<polygon style="fill:#FFFFFF;" points="121.256,178.449 135.034,187.447 140.772,171.031 140.425,189.132 158.374,187.179 
				142.73,195.003 150.48,211.433 139.238,198.815 132.937,213.836 133.006,198.322 119.67,205.361 130.187,194.445 
				117.949,191.294 130.968,191.165 			"/>
			<polygon style="fill:#FFFFFF;" points="178.013,123.598 188.096,130.183 192.296,118.169 192.042,131.416 205.177,129.987 
				193.729,135.713 199.4,147.737 191.173,138.502 186.562,149.495 186.612,138.141 176.853,143.293 184.549,135.304 
				175.593,132.998 185.121,132.904 			"/>
			<polygon style="fill:#FFFFFF;" points="266.733,231.632 281.706,241.411 287.942,223.57 287.565,243.241 307.071,241.119 
				290.07,249.622 298.492,267.477 286.275,253.764 279.427,270.088 279.503,253.228 265.01,260.878 276.439,249.015 
				263.139,245.591 277.288,245.45 			"/>
			<polygon style="fill:#FFFFFF;" points="233.25,186.535 239.317,190.497 241.844,183.268 241.691,191.238 249.595,190.379 
				242.706,193.824 246.119,201.059 241.169,195.503 238.394,202.117 238.424,195.285 232.552,198.385 237.183,193.578 
				231.794,192.191 237.527,192.134 			"/>
			<polygon style="fill:#FFFFFF;" points="229.923,78.78 241.192,86.139 245.885,72.712 245.601,87.517 260.282,85.92 
				247.487,92.32 253.825,105.758 244.631,95.437 239.477,107.723 239.534,95.034 228.626,100.791 237.228,91.863 227.218,89.285 
				237.866,89.18 			"/>
		</g>
		<g>
			<path style="fill:#FFFFFF;" d="M328.54,220.991c0,1.402-1.137,2.539-2.539,2.539c-1.403,0-2.54-1.137-2.54-2.539
				c0-1.403,1.137-2.54,2.54-2.54C327.404,218.452,328.54,219.589,328.54,220.991z"/>
			<path style="fill:#FFFFFF;" d="M131.945,236.517c0,1.446-1.173,2.619-2.619,2.619c-1.446,0-2.619-1.173-2.619-2.619
				c0-1.446,1.172-2.619,2.619-2.619C130.772,233.898,131.945,235.07,131.945,236.517z"/>
			<circle style="fill:#FFFFFF;" cx="80.641" cy="201.015" r="1.102"/>
			<path style="fill:#FFFFFF;" d="M61.636,249.628c0,0.655-0.531,1.186-1.186,1.186c-0.655,0-1.186-0.531-1.186-1.186
				c0-0.655,0.531-1.186,1.186-1.186C61.105,248.441,61.636,248.972,61.636,249.628z"/>
			<path style="fill:#FFFFFF;" d="M177.053,169.313c0,1.598-1.296,2.894-2.894,2.894s-2.894-1.296-2.894-2.894
				c0-1.598,1.296-2.894,2.894-2.894S177.053,167.714,177.053,169.313z"/>
			<path style="fill:#FFFFFF;" d="M232.683,140.416c0,0.648-0.525,1.174-1.174,1.174s-1.174-0.525-1.174-1.174
				c0-0.648,0.525-1.174,1.174-1.174S232.683,139.768,232.683,140.416z"/>
			<path style="fill:#FFFFFF;" d="M201.768,87.748c0,0.775-0.628,1.403-1.403,1.403c-0.775,0-1.403-0.628-1.403-1.403
				c0-0.775,0.628-1.403,1.403-1.403C201.14,86.344,201.768,86.973,201.768,87.748z"/>
			<path style="fill:#FFFFFF;" d="M293.831,79.81c0,2.41-1.953,4.363-4.363,4.363c-2.41,0-4.363-1.953-4.363-4.363
				s1.953-4.363,4.363-4.363C291.877,75.447,293.831,77.4,293.831,79.81z"/>
			<path style="fill:#FFFFFF;" d="M348.306,260.354c0,2.298-1.863,4.16-4.16,4.16s-4.16-1.863-4.16-4.16s1.863-4.16,4.16-4.16
				S348.306,258.057,348.306,260.354z"/>
		</g>
	</g>
	<g>
		<g>
			
				<polygon style="fill:none;stroke:#000000;stroke-width:0.75;stroke-linecap:round;stroke-linejoin:round;stroke-miterlimit:10;" points="
				209.346,450.253 118.293,448.903 137.953,396.936 223.782,397.171 			"/>
			<g>
				
					<path style="fill:none;stroke:#D4D4D4;stroke-width:0.75;stroke-linecap:round;stroke-linejoin:round;stroke-miterlimit:10;" d="
					M210.764,402.72c-1.615,1.296-3.352,2.798-3.616,4.852c-0.231,1.8,0.751,3.625,0.37,5.399c-0.311,1.451-1.458,2.546-2.459,3.641
					c-2.076,2.272-3.787,5.115-3.77,8.193c0.014,2.585,1.229,5.255,0.301,7.668c-0.951,2.472-3.88,3.816-4.658,6.347
					c-0.572,1.86,0.149,4.021-0.764,5.74"/>
				
					<path style="fill:none;stroke:#D4D4D4;stroke-width:0.75;stroke-linecap:round;stroke-linejoin:round;stroke-miterlimit:10;" d="
					M193.349,408.09c-2.146,1.934-3.216,4.994-2.742,7.844c0.292,1.754,1.125,3.445,0.986,5.217
					c-0.305,3.89-5.062,6.405-5.109,10.306c-0.014,1.156,0.408,2.281,0.418,3.437c0.014,1.587-0.742,3.067-1.478,4.473"/>
				
					<path style="fill:none;stroke:#D4D4D4;stroke-width:0.75;stroke-linecap:round;stroke-linejoin:round;stroke-miterlimit:10;" d="
					M173.348,401.324c0.363,2.176-0.829,4.271-1.894,6.203c-0.807,1.464-1.566,2.955-2.276,4.47
					c-0.404,0.863-0.801,1.779-0.737,2.73c0.06,0.897,0.523,1.713,0.726,2.589c0.534,2.3-0.756,4.589-1.995,6.599
					c-0.932,1.512-1.865,3.025-2.797,4.537c-0.758,1.23-1.527,2.797-0.78,4.034"/>
				
					<path style="fill:none;stroke:#D4D4D4;stroke-width:0.75;stroke-linecap:round;stroke-linejoin:round;stroke-miterlimit:10;" d="
					M181.397,409.526c-0.616,0.92-1.155,1.891-1.61,2.899c-0.382,0.848-0.711,1.777-0.544,2.692
					c0.106,0.581,0.405,1.107,0.602,1.663c0.368,1.039,0.374,2.202,0.016,3.244c-0.517,1.507-1.752,2.735-2.025,4.304"/>
			</g>
		</g>
		<g>
			<path style="stroke:#000000;stroke-width:0.75;stroke-linecap:round;stroke-linejoin:round;stroke-miterlimit:10;" d="
				M100.855,418.04L100.855,418.04c-0.543-4.134,0.214-8.095,1.906-8.318l44.674-5.412c1.693-0.222,3.505,2.949,4.047,7.084l0,0
				c0.543,4.134-0.364,8.299-2.057,8.521l-44.523,5.208C103.21,425.346,101.398,422.174,100.855,418.04z"/>
			
				<rect x="106.387" y="413.641" transform="matrix(0.1301 0.9915 -0.9915 0.1301 512.1303 248.6884)" style="fill:#D4D4D4;stroke:#000000;stroke-width:0.75;stroke-linecap:round;stroke-linejoin:round;stroke-miterlimit:10;" width="15.891" height="5.152"/>
			<g>
				<path style="fill:#FFFFFF;" d="M148.208,404.282l16.504,5.451l-14.615,9.9c-0.389,0.264-0.883-0.521-1.014-1.61l-1.447-12.017
					C147.51,404.961,147.782,404.142,148.208,404.282z"/>
				<polygon points="156.009,407.114 157.036,414.932 164.712,409.733 				"/>
				
					<path style="fill:none;stroke:#000000;stroke-width:0.75;stroke-linecap:round;stroke-linejoin:round;stroke-miterlimit:10;" d="
					M148.208,404.282l16.504,5.451l-14.615,9.9c-0.389,0.264-0.883-0.521-1.014-1.61l-1.447-12.017
					C147.51,404.961,147.782,404.142,148.208,404.282z"/>
			</g>
			
				<path style="fill:#FFFFFF;stroke:#000000;stroke-width:0.75;stroke-linecap:round;stroke-linejoin:round;stroke-miterlimit:10;" d="
				M108.906,408.916l-7.631,1.002c-2.143,0.281-3.418,4.027-2.849,8.366l0,0.001c0.57,4.339,2.768,7.628,4.911,7.347l7.643-0.913
				L108.906,408.916z"/>
			
				<rect x="101.356" y="414.379" transform="matrix(0.1302 0.9915 -0.9915 0.1302 508.407 254.2485)" style="fill:#D4D4D4;stroke:#000000;stroke-width:0.75;stroke-linecap:round;stroke-linejoin:round;stroke-miterlimit:10;" width="15.891" height="4.998"/>
		</g>
		<g>
			
				<polygon style="fill:#FFFFFF;stroke:#000000;stroke-width:0.75;stroke-linecap:round;stroke-linejoin:round;stroke-miterlimit:10;" points="
				333.918,402.494 182.561,402.494 195.919,363.931 346.654,364.344 			"/>
			<g>
				
					<line style="fill:none;stroke:#000000;stroke-width:0.75;stroke-linecap:round;stroke-linejoin:round;stroke-miterlimit:10;" x1="200.025" y1="372.172" x2="317.005" y2="372.172"/>
				
					<line style="fill:none;stroke:#000000;stroke-width:0.75;stroke-linecap:round;stroke-linejoin:round;stroke-miterlimit:10;" x1="200.025" y1="380.642" x2="327.964" y2="380.642"/>
				
					<line style="fill:none;stroke:#000000;stroke-width:0.75;stroke-linecap:round;stroke-linejoin:round;stroke-miterlimit:10;" x1="195.349" y1="391.285" x2="331.85" y2="391.285"/>
				
					<line style="fill:none;stroke:#000000;stroke-width:0.75;stroke-linecap:round;stroke-linejoin:round;stroke-miterlimit:10;" x1="210.764" y1="366.971" x2="203.231" y2="398.887"/>
				
					<line style="fill:none;stroke:#000000;stroke-width:0.75;stroke-linecap:round;stroke-linejoin:round;stroke-miterlimit:10;" x1="226.601" y1="366.348" x2="221.321" y2="398.887"/>
				
					<line style="fill:none;stroke:#000000;stroke-width:0.75;stroke-linecap:round;stroke-linejoin:round;stroke-miterlimit:10;" x1="242.095" y1="366.971" x2="239.325" y2="398.181"/>
				
					<line style="fill:none;stroke:#000000;stroke-width:0.75;stroke-linecap:round;stroke-linejoin:round;stroke-miterlimit:10;" x1="259.412" y1="367.286" x2="258.846" y2="398.181"/>
				
					<line style="fill:none;stroke:#000000;stroke-width:0.75;stroke-linecap:round;stroke-linejoin:round;stroke-miterlimit:10;" x1="277.606" y1="368.574" x2="277.606" y2="398.887"/>
				
					<line style="fill:none;stroke:#000000;stroke-width:0.75;stroke-linecap:round;stroke-linejoin:round;stroke-miterlimit:10;" x1="293.733" y1="368.574" x2="295.036" y2="398.181"/>
				
					<line style="fill:none;stroke:#000000;stroke-width:0.75;stroke-linecap:round;stroke-linejoin:round;stroke-miterlimit:10;" x1="310.837" y1="367.286" x2="311.814" y2="398.181"/>
			</g>
		</g>
		
			<line style="fill:none;stroke:#000000;stroke-width:0.75;stroke-linecap:round;stroke-linejoin:round;stroke-miterlimit:10;" x1="25.019" y1="337.421" x2="474.981" y2="337.421"/>
	</g>
	<g>
		<g>
			<g>
				<path style="fill:#FFFFFF;" d="M307.909,281.072c-24.298-24.642-70.182-41.819-139.575-32.821
					c-69.394,8.998-88.509,38.715-88.509,38.715c-21.396,29.468-23.889,65.382,3.152,77.187c18.973,8.283,96.271-2.402,112.561-1.75
					c16.289,0.651,38.932,8.633,44.959,17.918c6.027,9.285,15.964,9.285,17.267,3.113c0.079-0.376,0.085-0.791,0.03-1.236
					l0.167,0.512c6.257,1.441,9.569-2.602,8.763-6.787c-0.064-0.33-0.215-0.721-0.409-1.143l0.206,0.067
					c2.154,0.097,8.111-0.243,8.511-6.906c0.03-0.5-0.015-1.018-0.124-1.547l0.514,0.175c1.207-0.334,2.246-1.095,3.031-2.416
					c1.659-2.793,1.315-7.153-1.306-12.257c11.718-0.522,22.653-2.582,30.763-7.267
					C324.752,334.899,332.207,305.714,307.909,281.072z"/>
				<g>
					
						<path style="fill:none;stroke:#000000;stroke-width:0.75;stroke-linecap:round;stroke-linejoin:round;stroke-miterlimit:10;" d="
						M114.252,311.578c0,0,52.635-11.337,102.893,2.589c50.258,13.926,66.844,40.659,61.306,49.985
						c-0.785,1.321-1.824,2.082-3.031,2.416"/>
					
						<path style="fill:none;stroke:#000000;stroke-width:0.75;stroke-linecap:round;stroke-linejoin:round;stroke-miterlimit:10;" d="
						M256.46,347.253c0,0,19.059,12.543,18.57,20.688c-0.4,6.663-6.357,7.003-8.511,6.906"/>
					
						<path style="fill:none;stroke:#000000;stroke-width:0.75;stroke-linecap:round;stroke-linejoin:round;stroke-miterlimit:10;" d="
						M248.804,354.583c0,0,16.958,16.358,17.918,21.339c0.807,4.184-2.505,8.228-8.763,6.787"/>
					
						<path style="fill:none;stroke:#000000;stroke-width:0.75;stroke-linecap:round;stroke-linejoin:round;stroke-miterlimit:10;" d="
						M241.148,361.056c0,0,17.918,16.206,16.615,22.378s-11.24,6.172-17.267-3.113c-6.027-9.285-28.67-17.267-44.959-17.918
						c-16.29-0.652-93.588,10.033-112.561,1.75c-27.041-11.805-24.548-47.719-3.152-77.187c0,0,19.116-29.717,88.509-38.715
						c69.394-8.998,115.278,8.179,139.575,32.821c24.298,24.642,16.843,53.827,0,63.556c-8.111,4.685-19.044,6.748-30.763,7.27"/>
				</g>
				<g>
					
						<line style="fill:none;stroke:#ED5D1C;stroke-linecap:round;stroke-linejoin:round;stroke-miterlimit:10;" x1="152.063" y1="356.103" x2="162.844" y2="343.773"/>
					
						<line style="fill:none;stroke:#ED5D1C;stroke-linecap:round;stroke-linejoin:round;stroke-miterlimit:10;" x1="171.266" y1="348.936" x2="177.053" y2="356.103"/>
					
						<line style="fill:none;stroke:#ED5D1C;stroke-linecap:round;stroke-linejoin:round;stroke-miterlimit:10;" x1="170.614" y1="334.002" x2="179.221" y2="324.61"/>
					
						<line style="fill:none;stroke:#ED5D1C;stroke-linecap:round;stroke-linejoin:round;stroke-miterlimit:10;" x1="194.518" y1="323.566" x2="186.252" y2="317.475"/>
					
						<line style="fill:none;stroke:#ED5D1C;stroke-linecap:round;stroke-linejoin:round;stroke-miterlimit:10;" x1="153.673" y1="323.566" x2="162.844" y2="332.9"/>
					
						<line style="fill:none;stroke:#ED5D1C;stroke-linecap:round;stroke-linejoin:round;stroke-miterlimit:10;" x1="123.442" y1="317.475" x2="114.252" y2="331.087"/>
					
						<line style="fill:none;stroke:#ED5D1C;stroke-linecap:round;stroke-linejoin:round;stroke-miterlimit:10;" x1="102.633" y1="295.312" x2="115.664" y2="299.801"/>
					
						<line style="fill:none;stroke:#ED5D1C;stroke-linecap:round;stroke-linejoin:round;stroke-miterlimit:10;" x1="121.746" y1="288.002" x2="126.707" y2="278.423"/>
					
						<line style="fill:none;stroke:#ED5D1C;stroke-linecap:round;stroke-linejoin:round;stroke-miterlimit:10;" x1="109.148" y1="271.398" x2="114.252" y2="279.493"/>
					
						<line style="fill:none;stroke:#ED5D1C;stroke-linecap:round;stroke-linejoin:round;stroke-miterlimit:10;" x1="124.226" y1="268.515" x2="132.781" y2="259.224"/>
					
						<line style="fill:none;stroke:#ED5D1C;stroke-linecap:round;stroke-linejoin:round;stroke-miterlimit:10;" x1="152.063" y1="280.737" x2="139.139" y2="271.398"/>
					
						<line style="fill:none;stroke:#ED5D1C;stroke-linecap:round;stroke-linejoin:round;stroke-miterlimit:10;" x1="152.063" y1="262.058" x2="160.88" y2="256.194"/>
					
						<line style="fill:none;stroke:#ED5D1C;stroke-linecap:round;stroke-linejoin:round;stroke-miterlimit:10;" x1="184.162" y1="274.438" x2="174.16" y2="262.058"/>
					
						<line style="fill:none;stroke:#ED5D1C;stroke-linecap:round;stroke-linejoin:round;stroke-miterlimit:10;" x1="223.827" y1="275.524" x2="230.56" y2="266.406"/>
					
						<line style="fill:none;stroke:#ED5D1C;stroke-linecap:round;stroke-linejoin:round;stroke-miterlimit:10;" x1="235.555" y1="253.659" x2="243.445" y2="260.006"/>
					
						<line style="fill:none;stroke:#ED5D1C;stroke-linecap:round;stroke-linejoin:round;stroke-miterlimit:10;" x1="245.259" y1="271.398" x2="255.32" y2="270.094"/>
					
						<line style="fill:none;stroke:#ED5D1C;stroke-linecap:round;stroke-linejoin:round;stroke-miterlimit:10;" x1="251.723" y1="252.067" x2="255.32" y2="258.149"/>
					
						<line style="fill:none;stroke:#ED5D1C;stroke-linecap:round;stroke-linejoin:round;stroke-miterlimit:10;" x1="266.842" y1="266.406" x2="276.171" y2="262.058"/>
					
						<line style="fill:none;stroke:#ED5D1C;stroke-linecap:round;stroke-linejoin:round;stroke-miterlimit:10;" x1="266.842" y1="277.262" x2="266.842" y2="289.099"/>
					
						<line style="fill:none;stroke:#ED5D1C;stroke-linecap:round;stroke-linejoin:round;stroke-miterlimit:10;" x1="275.04" y1="275.445" x2="288.225" y2="278.423"/>
				</g>
				
					<path style="fill:#FFFFFF;stroke:#000000;stroke-width:0.75;stroke-linecap:round;stroke-linejoin:round;stroke-miterlimit:10;" d="
					M214.505,313.461c-4.825-1.251-9.662-2.276-14.464-3.107c-6.779,7.271-21.881,26.69-18.652,52.63
					c6.242-0.445,11.199-0.7,14.149-0.582c0.05,0.002,0.102,0.006,0.152,0.008C195.655,349.891,197.947,326.011,214.505,313.461z"/>
			</g>
			<g>
				<path style="fill:#FFFFFF;" d="M179.916,268.9c-48.679,3.909-60.787,43.699-49.048,45.719c0.688,0.118,1.324,0.156,1.913,0.121
					l0.062-0.02c-0.252,2.312,0.411,4.306,2.527,5.634c1.041,0.653,2.064,0.978,3.073,1.033l0.138-0.429
					c0.005,0.495,0.054,0.981,0.166,1.453c1.098,4.608,4.676,4.986,8.103,4.1l0.124-0.316c0.671,4.367,5.863,6.052,10.174,4.062
					c5.647-2.606,12.297-9.25,26.73-14.035c14.527-4.816,31.657-4.23,61.381,8.529l42.966-32.566
					C288.225,292.185,228.595,264.99,179.916,268.9z"/>
				<g>
					
						<path style="fill:none;stroke:#000000;stroke-width:0.75;stroke-linecap:round;stroke-linejoin:round;stroke-miterlimit:10;" d="
						M288.225,292.185c0,0-59.63-27.194-108.309-23.285c-48.679,3.909-60.787,43.699-49.048,45.719
						c0.688,0.118,1.324,0.156,1.913,0.121"/>
					
						<path style="fill:none;stroke:#000000;stroke-width:0.75;stroke-linecap:round;stroke-linejoin:round;stroke-miterlimit:10;" d="
						M147.533,293.058c0,0-22.154,21.027-12.163,27.297c1.041,0.653,2.064,0.978,3.073,1.033"/>
					
						<path style="fill:none;stroke:#000000;stroke-width:0.75;stroke-linecap:round;stroke-linejoin:round;stroke-miterlimit:10;" d="
						M158.259,297.44c-5.849,4.272-21.504,16.614-19.512,24.971c1.099,4.608,4.676,4.986,8.103,4.1"/>
					
						<path style="fill:none;stroke:#000000;stroke-width:0.75;stroke-linecap:round;stroke-linejoin:round;stroke-miterlimit:10;" d="
						M166.488,303.864c0,0-15.204,9.757-18.679,17.532c-3.475,7.775,3.692,11.467,9.339,8.861c5.647-2.606,12.297-9.25,26.73-14.035
						c14.527-4.816,31.657-4.23,61.381,8.529"/>
				</g>
				
					<path style="fill:none;stroke:#000000;stroke-width:0.75;stroke-linecap:round;stroke-linejoin:round;stroke-miterlimit:10;" d="
					M185.451,268.593c8.547,4.501,24.489,16.844,19.994,44.991c4.092,0.274,8.517,0.947,13.378,2.089
					c1.181-11.817,0.731-34.057-16.461-46.622C196.687,268.586,191.017,268.407,185.451,268.593z"/>
				<g>
					
						<line style="fill:none;stroke:#ED5D1C;stroke-linecap:round;stroke-linejoin:round;stroke-miterlimit:10;" x1="216.83" y1="275.524" x2="225.357" y2="281.823"/>
					
						<line style="fill:none;stroke:#ED5D1C;stroke-linecap:round;stroke-linejoin:round;stroke-miterlimit:10;" x1="222.913" y1="305.497" x2="229.703" y2="299.801"/>
					
						<line style="fill:none;stroke:#ED5D1C;stroke-linecap:round;stroke-linejoin:round;stroke-miterlimit:10;" x1="238.558" y1="293.195" x2="248.331" y2="297.43"/>
					
						<line style="fill:none;stroke:#ED5D1C;stroke-linecap:round;stroke-linejoin:round;stroke-miterlimit:10;" x1="240.116" y1="310.71" x2="241.832" y2="318.873"/>
					
						<line style="fill:none;stroke:#ED5D1C;stroke-linecap:round;stroke-linejoin:round;stroke-miterlimit:10;" x1="253.339" y1="307.223" x2="263.139" y2="314.792"/>
					
						<line style="fill:none;stroke:#ED5D1C;stroke-linecap:round;stroke-linejoin:round;stroke-miterlimit:10;" x1="265.75" y1="295.312" x2="273.898" y2="291.634"/>
					
						<line style="fill:none;stroke:#ED5D1C;stroke-linecap:round;stroke-linejoin:round;stroke-miterlimit:10;" x1="245.885" y1="287.598" x2="251.723" y2="281.823"/>
					
						<line style="fill:none;stroke:#ED5D1C;stroke-linecap:round;stroke-linejoin:round;stroke-miterlimit:10;" x1="256.46" y1="321.248" x2="260.315" y2="329.823"/>
				</g>
			</g>
		</g>
		<g>
			<path style="fill:#FFFFFF;" d="M188.452,250.855c0,0,2.141,13.699-4.512,14.497c-6.653,0.798-22.886-3.543-20.491-19.069
				c2.395-15.526,36.185-36.976,57.278-28.663c21.093,8.313,23.624,26.694,22.493,38.418c-1.001,10.379-7.123,17.564-22.025,12.241
				C206.294,262.957,188.452,250.855,188.452,250.855z"/>
			
				<ellipse transform="matrix(0.8851 -0.4654 0.4654 0.8851 -91.1098 126.6487)" style="fill:#FFFFFF;stroke:#000000;stroke-width:0.75;stroke-linecap:round;stroke-linejoin:round;stroke-miterlimit:10;" cx="210.957" cy="247.857" rx="29.398" ry="29.398"/>
			<g>
				<path style="fill:#FFFFFF;" d="M186.023,264.515c-11.345-1.171-11.96-14.741-9.8-23.113
					c4.057-15.721,26.173-27.006,41.894-22.95c12.346,3.186,24.312,14.759,22.771,27.208c-4.915-3.01-11.389-8.185-13.893-14.432
					c0,0-12.324,16.435-35.793,10.487l-1.106,5.156c0,0,0.333,9.784-0.834,12.76C187.533,264.038,186.023,264.515,186.023,264.515z"
					/>
			</g>
			<g>
				<path style="fill:#FFFFFF;" d="M184.613,242.492c-1.006,3.898,1.339,7.873,5.237,8.879c3.898,1.006,7.874-1.339,8.879-5.237
					c1.006-3.898-1.339-7.873-5.237-8.879C189.594,236.25,185.619,238.594,184.613,242.492z"/>
				
					<path style="fill:none;stroke:#000000;stroke-width:0.75;stroke-linecap:round;stroke-linejoin:round;stroke-miterlimit:10;" d="
					M196.683,245.607c0.714-2.768-0.951-5.592-3.719-6.306c-2.768-0.714-5.591,0.951-6.306,3.719
					c-0.714,2.769,0.951,5.592,3.719,6.306"/>
				
					<path style="fill:none;stroke:#000000;stroke-width:0.75;stroke-linecap:round;stroke-linejoin:round;stroke-miterlimit:10;" d="
					M198.961,244.231c-0.035-3.214-2.208-6.134-5.469-6.975c-3.898-1.006-7.873,1.339-8.879,5.237
					c-1.006,3.898,1.339,7.873,5.237,8.879"/>
			</g>
			<circle style="fill:#FFFFFF;stroke:#000000;stroke-width:0.75;stroke-miterlimit:10;" cx="199.793" cy="201.983" r="13.3"/>
			<g>
				
					<path style="fill:none;stroke:#000000;stroke-width:0.75;stroke-linecap:round;stroke-linejoin:round;stroke-miterlimit:10;" d="
					M188.452,250.855c0,0,2.141,13.699-4.512,14.497c-6.653,0.798-22.886-3.543-20.491-19.069
					c2.395-15.526,36.185-36.976,57.278-28.663c21.093,8.313,23.624,26.694,22.493,38.418c-0.768,7.967-4.554,14.052-13.013,14.042"
					/>
				<g>
					
						<path style="fill:none;stroke:#000000;stroke-width:0.75;stroke-linecap:round;stroke-linejoin:round;stroke-miterlimit:10;" d="
						M240.889,245.659c-4.915-3.01-11.389-8.185-13.893-14.432c0,0-9.616,12.824-28.035,11.717"/>
				</g>
				
					<path style="fill:none;stroke:#000000;stroke-width:0.75;stroke-linecap:round;stroke-linejoin:round;stroke-miterlimit:10;" d="
					M199.793,237.545c0,0,15.858-1.8,22.534-7.295"/>
				
					<path style="fill:none;stroke:#000000;stroke-width:0.75;stroke-linecap:round;stroke-linejoin:round;stroke-miterlimit:10;" d="
					M203.328,232.429c0,0,9.567-2.708,13.559-4.213"/>
			</g>
		</g>
		<g>
			<path style="fill:none;stroke:#000000;stroke-width:0.75;stroke-linecap:round;stroke-linejoin:round;stroke-miterlimit:10;" d="
				M215.475,246.603c-0.122,1.936,0.964,3.58,2.425,3.672c1.461,0.092,2.744-1.403,2.865-3.339"/>
			<path style="fill:none;stroke:#000000;stroke-width:0.75;stroke-linecap:round;stroke-linejoin:round;stroke-miterlimit:10;" d="
				M232.561,247.61c-0.249,1.57,0.509,2.995,1.693,3.183c1.185,0.188,2.347-0.932,2.596-2.502"/>
			
				<polyline style="fill:none;stroke:#000000;stroke-width:0.75;stroke-linecap:round;stroke-linejoin:round;stroke-miterlimit:10;" points="
				227.574,242.342 230.808,251.317 224.975,251.213 			"/>
			<path style="fill:none;stroke:#000000;stroke-width:0.75;stroke-linecap:round;stroke-linejoin:round;stroke-miterlimit:10;" d="
				M230.336,258.925c0,0-4.956-1.523-8.528-1.778"/>
		</g>
	</g>
	<g>
		<g>
			<g>
				
					<ellipse transform="matrix(0.7071 -0.7071 0.7071 0.7071 -19.3913 257.8511)" style="fill:#D4D4D4;stroke:#000000;stroke-width:0.75;stroke-linecap:round;stroke-linejoin:round;stroke-miterlimit:10;" cx="301.558" cy="152.333" rx="54.203" ry="54.203"/>
				
					<ellipse transform="matrix(0.9499 -0.3125 0.3125 0.9499 -32.5026 101.8744)" style="fill:#FFFFFF;" cx="301.558" cy="152.333" rx="47.567" ry="47.567"/>
			</g>
			<g>
				
					<line style="fill:none;stroke:#000000;stroke-width:0.75;stroke-linecap:round;stroke-linejoin:round;stroke-miterlimit:10;" x1="315.029" y1="113.96" x2="313.238" y2="118.981"/>
				
					<line style="fill:none;stroke:#000000;stroke-width:0.75;stroke-linecap:round;stroke-linejoin:round;stroke-miterlimit:10;" x1="289.491" y1="185.547" x2="287.7" y2="190.568"/>
				
					<line style="fill:none;stroke:#000000;stroke-width:0.75;stroke-linecap:round;stroke-linejoin:round;stroke-miterlimit:10;" x1="262.892" y1="138.917" x2="268.398" y2="140.882"/>
				
					<line style="fill:none;stroke:#000000;stroke-width:0.75;stroke-linecap:round;stroke-linejoin:round;stroke-miterlimit:10;" x1="334.479" y1="164.455" x2="339.986" y2="166.419"/>
				
					<line style="fill:none;stroke:#000000;stroke-width:0.75;stroke-linecap:round;stroke-linejoin:round;stroke-miterlimit:10;" x1="293.672" y1="112.001" x2="294.842" y2="118.443"/>
				
					<line style="fill:none;stroke:#000000;stroke-width:0.75;stroke-linecap:round;stroke-linejoin:round;stroke-miterlimit:10;" x1="275.249" y1="121.678" x2="278.964" y2="126.107"/>
				
					<line style="fill:none;stroke:#000000;stroke-width:0.75;stroke-linecap:round;stroke-linejoin:round;stroke-miterlimit:10;" x1="261.614" y1="159.901" x2="267.408" y2="158.499"/>
				
					<line style="fill:none;stroke:#000000;stroke-width:0.75;stroke-linecap:round;stroke-linejoin:round;stroke-miterlimit:10;" x1="269.926" y1="178.567" x2="274.736" y2="174.806"/>
				
					<line style="fill:none;stroke:#000000;stroke-width:0.75;stroke-linecap:round;stroke-linejoin:round;stroke-miterlimit:10;" x1="308.796" y1="192.434" x2="307.452" y2="186.477"/>
				
					<line style="fill:none;stroke:#000000;stroke-width:0.75;stroke-linecap:round;stroke-linejoin:round;stroke-miterlimit:10;" x1="327.694" y1="183.474" x2="323.771" y2="178.605"/>
				
					<line style="fill:none;stroke:#000000;stroke-width:0.75;stroke-linecap:round;stroke-linejoin:round;stroke-miterlimit:10;" x1="341.329" y1="145.251" x2="334.678" y2="145.982"/>
				
					<line style="fill:none;stroke:#000000;stroke-width:0.75;stroke-linecap:round;stroke-linejoin:round;stroke-miterlimit:10;" x1="332.14" y1="126.996" x2="327.559" y2="130.114"/>
			</g>
			<g>
				<g>
					<path d="M307.632,154.499c-1.197,3.354-4.886,5.104-8.24,3.907c-3.354-1.197-5.103-4.886-3.907-8.24
						c1.197-3.354,4.886-5.104,8.24-3.907C307.079,147.456,308.828,151.145,307.632,154.499z"/>
				</g>
				<polyline style="fill:none;stroke:#000000;stroke-linecap:round;stroke-linejoin:round;stroke-miterlimit:10;" points="
					329.849,138.917 302.003,153.066 302.876,130.114 				"/>
			</g>
		</g>
		<g>
			<g>
				<path style="fill:#ED5D1C;" d="M389.168,168.545c-0.962-3.368,0.255-5.279-4.95-13.108c-5.205-7.828,4.245-11.726,8.716-3.291
					C397.404,160.581,390.537,173.342,389.168,168.545z"/>
				<path style="fill:#ED5D1C;" d="M398.874,141.108c-1.329-2.488-2.824-10.652,2.05-11.093
					C407.433,129.425,402.448,147.797,398.874,141.108z"/>
				<g>
					<path style="fill:#ED5D1C;" d="M394.728,288.878c0,0-40.398-17.741-43.982-48.78c-2.84-24.597,18.257-42.013,27.137-48.182
						c1.202-0.835,2.769,0.348,2.296,1.733c-2.427,7.102-6.655,21.366-4.021,27.951c0,0,0.326-18.247,13.032-31.032
						c9.394-9.453,13.777-21.576,15.301-29.461c0.505-2.611,3.758-3.544,5.583-1.609c9.328,9.892,28.564,34.185,28.174,65.963
						c0,0,3.759-8.049,3.956-16.077c0.058-2.361,2.935-3.493,4.625-1.844c5.867,5.719,14.357,16.299,14.229,29.538
						C460.863,257.276,450.438,286.597,394.728,288.878z"/>
					
						<path style="fill:none;stroke:#FFFFFF;stroke-width:0.75;stroke-linecap:round;stroke-linejoin:round;stroke-miterlimit:10;" d="
						M388.103,280.851c0,0-21.459-21.62-4.105-49.421c0,0-0.891,8.873,6.711,16.6c7.602,7.726,12.815,15.328,12.815,15.979
						c0,0-15.149-21.467-5.647-36.392c8.069-12.675,11.294-18.218,11.294-23.383c0,0,5.701,7.444,4.615,19.649
						s10.771,14.225,16.615,21.991c5.844,7.766,5.6,24.217-0.974,32.47"/>
				</g>
			</g>
			<g>
				
					<polygon style="fill:#D4D4D4;stroke:#000000;stroke-width:0.75;stroke-linecap:round;stroke-linejoin:round;stroke-miterlimit:10;" points="
					330.547,374.638 313.417,414.455 368.558,414.455 372.766,374.638 				"/>
				<g>
					
						<path style="fill:#D4D4D4;stroke:#000000;stroke-width:0.75;stroke-linecap:round;stroke-linejoin:round;stroke-miterlimit:10;" d="
						M426.32,383.207H271.067c-8.793,0-14.011-7.128-11.655-15.921l24.79-92.519c2.356-8.793,11.394-15.921,20.187-15.921h155.253
						c8.793,0,14.011,7.128,11.655,15.921l-24.79,92.519C444.151,376.079,435.113,383.207,426.32,383.207z"/>
				</g>
				
					<path style="fill:none;stroke:#000000;stroke-width:0.75;stroke-linecap:round;stroke-linejoin:round;stroke-miterlimit:10;" d="
					M382.802,295.091c-1.539,5.742-7.486,10.396-13.283,10.396c-5.798,0-9.25-4.654-7.712-10.396
					c1.538-5.742,7.485-10.396,13.283-10.396C380.887,284.695,384.34,289.35,382.802,295.091z"/>
				
					<line style="fill:none;stroke:#000000;stroke-width:0.75;stroke-linecap:round;stroke-linejoin:round;stroke-miterlimit:10;" x1="291.011" y1="279.718" x2="267.8" y2="366.971"/>
			</g>
		</g>
		<g>
			<g>
				<path style="fill:#FFFFFF;stroke:#000000;stroke-linecap:round;stroke-linejoin:round;stroke-miterlimit:10;" d="M40.936,296.53
					c0,10.122,8.206,18.328,18.328,18.328c10.122,0,18.328-8.206,18.328-18.328c0-10.122-8.206-18.328-18.328-18.328
					C49.141,278.202,40.936,286.408,40.936,296.53z M47.682,296.53c0-6.396,5.185-11.582,11.581-11.582
					c6.396,0,11.582,5.185,11.582,11.582c0,6.396-5.185,11.582-11.582,11.582C52.867,308.111,47.682,302.926,47.682,296.53z"/>
				<path style="fill:#FFFFFF;stroke:#000000;stroke-linecap:round;stroke-linejoin:round;stroke-miterlimit:10;" d="
					M68.547,325.944h30.4c5.554,0,10.056-4.502,10.056-10.056v-38.07c0-5.554-4.502-10.056-10.056-10.056h-30.4
					c-5.554,0-10.056,4.502-10.056,10.056v38.07C58.491,321.441,62.993,325.944,68.547,325.944z"/>
			</g>
			<g>
				<g>
					<path style="fill:#D4D4D4;" d="M87.332,285.493c0,0,6.026,9.564,13.516,5.437C106.716,287.697,95.804,278.146,87.332,285.493z"
						/>
					<path style="fill:none;stroke:#000000;stroke-linecap:round;stroke-linejoin:round;stroke-miterlimit:10;" d="M87.332,285.493
						c0,0,6.408,0.163,11.529,2.685"/>
				</g>
				<path style="fill:#ED5D1C;" d="M83.565,315.927c-4.566,0.485-12.296-1.226-15.68-10.704c-4.301-12.046,9.652-24,16.411-13.259
					c0,0,10.116-3.25,12.561,4.087C99.302,303.389,95.801,314.627,83.565,315.927z"/>
				<path style="fill:none;stroke:#000000;stroke-linecap:round;stroke-linejoin:round;stroke-miterlimit:10;" d="M83.565,294.217
					c0,0,2.379-9.099,8.647-14.945"/>
			</g>
			<path style="fill:none;stroke:#D4D4D4;stroke-width:0.75;stroke-linecap:round;stroke-linejoin:round;stroke-miterlimit:10;" d="
				M59.248,218.809c0,0,9.248-14.969-1.689-20.922c-10.938-5.953-28.297-11.52-19.394-31.16s39.047-24.613,53.271-3.271
				c14.224,21.342,2.347,35.922-2.091,45.331c-4.438,9.409-2.474,11.852,3.648,19.021c6.122,7.168,12.507,26.824-3.648,26.86
				c-10.973,0.024-5.43-14.082-16.529-16.887C61.715,234.975,54.02,229.131,59.248,218.809z"/>
		</g>
		<g>
			<g>
				<path style="fill:#D4D4D4;stroke:#000000;stroke-width:0.75;stroke-miterlimit:10;" d="M166.3,378.462H59.275
					c-4.165,0-7.541-3.376-7.541-7.542v-11.253c0-4.165,3.376-7.542,7.541-7.542H166.3c4.165,0,7.542,3.376,7.542,7.542v11.253
					C173.841,375.086,170.465,378.462,166.3,378.462z"/>
				<path style="fill:#FFFFFF;" d="M124.535,371.159h-57.45c-2.438,0-4.415-1.977-4.415-4.415v-2.899
					c0-2.438,1.977-4.415,4.415-4.415h57.45c2.438,0,4.415,1.977,4.415,4.415v2.899C128.95,369.182,126.973,371.159,124.535,371.159
					z"/>
				<path style="fill:#FFFFFF;" d="M165.927,365.294c0,2.766-2.45,5.009-5.472,5.009c-3.022,0-5.472-2.243-5.472-5.009
					c0-2.766,2.45-5.009,5.472-5.009C163.477,360.285,165.927,362.528,165.927,365.294z"/>
			</g>
			<g>
				<path style="fill:#ED5D1C;stroke:#000000;stroke-width:0.75;stroke-miterlimit:10;" d="M150.029,351.711H43.005
					c-4.165,0-7.542-3.376-7.542-7.542v-11.253c0-4.165,3.376-7.542,7.542-7.542h107.025c4.165,0,7.542,3.377,7.542,7.542v11.253
					C157.571,348.334,154.194,351.711,150.029,351.711z"/>
				<path style="fill:#FFFFFF;" d="M108.264,344.407h-57.45c-2.438,0-4.415-1.977-4.415-4.415v-2.899
					c0-2.438,1.977-4.415,4.415-4.415h57.45c2.438,0,4.415,1.977,4.415,4.415v2.899C112.679,342.43,110.702,344.407,108.264,344.407
					z"/>
				<path style="fill:#FFFFFF;" d="M149.656,338.543c0,2.766-2.243,5.009-5.009,5.009c-2.766,0-5.009-2.243-5.009-5.009
					c0-2.766,2.243-5.009,5.009-5.009C147.413,333.534,149.656,335.776,149.656,338.543z"/>
			</g>
		</g>
	</g>
	<g>
		<g>
			
				<polygon style="fill-rule:evenodd;clip-rule:evenodd;fill:#FFFFFF;stroke:#000000;stroke-width:0.75;stroke-linecap:round;stroke-linejoin:round;stroke-miterlimit:10;" points="
				428.156,270.548 422.901,298.431 427.435,300.077 425.922,302.941 454.443,302.941 461.058,270.548 			"/>
			<g>
				
					<line style="fill-rule:evenodd;clip-rule:evenodd;fill:#FAFAFA;stroke:#000000;stroke-width:0.75;stroke-linecap:round;stroke-linejoin:round;stroke-miterlimit:10;" x1="431.209" y1="276.145" x2="455.122" y2="276.145"/>
				
					<line style="fill-rule:evenodd;clip-rule:evenodd;fill:#FAFAFA;stroke:#000000;stroke-width:0.75;stroke-linecap:round;stroke-linejoin:round;stroke-miterlimit:10;" x1="429.428" y1="280.851" x2="453.341" y2="280.851"/>
				
					<line style="fill-rule:evenodd;clip-rule:evenodd;fill:#FAFAFA;stroke:#000000;stroke-width:0.75;stroke-linecap:round;stroke-linejoin:round;stroke-miterlimit:10;" x1="428.41" y1="285.557" x2="452.324" y2="285.557"/>
				
					<line style="fill-rule:evenodd;clip-rule:evenodd;fill:#FAFAFA;stroke:#000000;stroke-width:0.75;stroke-linecap:round;stroke-linejoin:round;stroke-miterlimit:10;" x1="427.435" y1="290.264" x2="451.348" y2="290.264"/>
				
					<line style="fill-rule:evenodd;clip-rule:evenodd;fill:#FAFAFA;stroke:#000000;stroke-width:0.75;stroke-linecap:round;stroke-linejoin:round;stroke-miterlimit:10;" x1="426.291" y1="295.648" x2="450.204" y2="295.648"/>
			</g>
			
				<line style="fill-rule:evenodd;clip-rule:evenodd;fill:#FFFFFF;stroke:#000000;stroke-width:0.75;stroke-linecap:round;stroke-linejoin:round;stroke-miterlimit:10;" x1="422.901" y1="298.431" x2="425.922" y2="302.941"/>
		</g>
		<g>
			
				<polygon style="fill-rule:evenodd;clip-rule:evenodd;fill:#FFFFFF;stroke:#000000;stroke-width:0.75;stroke-linecap:round;stroke-linejoin:round;stroke-miterlimit:10;" points="
				301.206,303.643 295.95,331.526 300.485,333.172 298.972,336.036 327.493,336.036 334.107,303.643 			"/>
			<g>
				
					<line style="fill-rule:evenodd;clip-rule:evenodd;fill:#FAFAFA;stroke:#000000;stroke-width:0.75;stroke-linecap:round;stroke-linejoin:round;stroke-miterlimit:10;" x1="304.258" y1="309.24" x2="328.171" y2="309.24"/>
				
					<line style="fill-rule:evenodd;clip-rule:evenodd;fill:#FAFAFA;stroke:#000000;stroke-width:0.75;stroke-linecap:round;stroke-linejoin:round;stroke-miterlimit:10;" x1="302.478" y1="313.946" x2="326.391" y2="313.946"/>
				
					<line style="fill-rule:evenodd;clip-rule:evenodd;fill:#FAFAFA;stroke:#000000;stroke-width:0.75;stroke-linecap:round;stroke-linejoin:round;stroke-miterlimit:10;" x1="301.46" y1="318.652" x2="325.373" y2="318.652"/>
				
					<line style="fill-rule:evenodd;clip-rule:evenodd;fill:#FAFAFA;stroke:#000000;stroke-width:0.75;stroke-linecap:round;stroke-linejoin:round;stroke-miterlimit:10;" x1="309.613" y1="323.359" x2="324.398" y2="323.359"/>
			</g>
			
				<line style="fill-rule:evenodd;clip-rule:evenodd;fill:#FFFFFF;stroke:#000000;stroke-width:0.75;stroke-linecap:round;stroke-linejoin:round;stroke-miterlimit:10;" x1="295.95" y1="331.526" x2="298.972" y2="336.036"/>
		</g>
		<g>
			
				<polygon style="fill-rule:evenodd;clip-rule:evenodd;fill:#FFFFFF;stroke:#000000;stroke-width:0.75;stroke-linecap:round;stroke-linejoin:round;stroke-miterlimit:10;" points="
				384.206,325.865 378.029,358.258 410.494,358.258 417.108,325.865 			"/>
			<g>
				
					<line style="fill-rule:evenodd;clip-rule:evenodd;fill:#FAFAFA;stroke:#000000;stroke-width:0.75;stroke-linecap:round;stroke-linejoin:round;stroke-miterlimit:10;" x1="387.259" y1="331.462" x2="411.172" y2="331.462"/>
				
					<line style="fill-rule:evenodd;clip-rule:evenodd;fill:#FAFAFA;stroke:#000000;stroke-width:0.75;stroke-linecap:round;stroke-linejoin:round;stroke-miterlimit:10;" x1="385.479" y1="336.168" x2="409.392" y2="336.168"/>
				
					<line style="fill-rule:evenodd;clip-rule:evenodd;fill:#FAFAFA;stroke:#000000;stroke-width:0.75;stroke-linecap:round;stroke-linejoin:round;stroke-miterlimit:10;" x1="384.461" y1="340.875" x2="408.374" y2="340.875"/>
				
					<line style="fill-rule:evenodd;clip-rule:evenodd;fill:#FAFAFA;stroke:#000000;stroke-width:0.75;stroke-linecap:round;stroke-linejoin:round;stroke-miterlimit:10;" x1="392.614" y1="345.581" x2="407.399" y2="345.581"/>
			</g>
		</g>
	</g>
	<g>
		<path style="fill:none;stroke:#D4D4D4;stroke-width:0.75;stroke-linecap:round;stroke-linejoin:round;stroke-miterlimit:10;" d="
			M35.463,79.81c0,0,25.282-8.669,45.178,6.535s12.281,46.728,1.102,39.762c-11.178-6.966,10.793-21.893,24.893-16.71
			c8.813,3.239,15.731,13.269,16.961,20.127"/>
		<path style="fill:none;stroke:#D4D4D4;stroke-width:0.75;stroke-linecap:round;stroke-linejoin:round;stroke-miterlimit:10;" d="
			M413.755,100.896c0,0,8.873-27.733,24.629-26.281c15.312,1.412,6.95,15.529-0.528,9.557c-8.287-6.619-13.292-18.599-1.752-34.425"
			/>
		<path style="fill:none;stroke:#D4D4D4;stroke-width:0.75;stroke-linecap:round;stroke-linejoin:round;stroke-miterlimit:10;" d="
			M444.033,169.844c0,0,30.47,11.976,23.713,18.889c-6.757,6.913-15.167-9.03,0.402-16.323"/>
		
			<line style="fill:none;stroke:#000000;stroke-width:0.75;stroke-linecap:round;stroke-linejoin:round;stroke-miterlimit:10;" x1="413.515" y1="402.494" x2="417.108" y2="426.38"/>
		
			<line style="fill:none;stroke:#000000;stroke-width:0.75;stroke-linecap:round;stroke-linejoin:round;stroke-miterlimit:10;" x1="424.411" y1="394.547" x2="453.341" y2="411.023"/>
		
			<line style="fill:none;stroke:#000000;stroke-width:0.75;stroke-linecap:round;stroke-linejoin:round;stroke-miterlimit:10;" x1="141.277" y1="96.032" x2="135.046" y2="76.657"/>
		
			<line style="fill:none;stroke:#000000;stroke-width:0.75;stroke-linecap:round;stroke-linejoin:round;stroke-miterlimit:10;" x1="434.583" y1="136.288" x2="453.341" y2="127.82"/>
	</g>
</g>
</svg>
