<?xml version="1.0" encoding="utf-8"?>
<!-- Generator: Adobe Illustrator 27.5.0, SVG Export Plug-In . SVG Version: 6.00 Build 0)  -->
<svg version="1.1" xmlns="http://www.w3.org/2000/svg" xmlns:xlink="http://www.w3.org/1999/xlink" x="0px" y="0px"
	 viewBox="0 0 500 500" style="enable-background:new 0 0 500 500;" xml:space="preserve">
<g id="BACKGROUND">
	<rect style="fill:#FFFFFF;" width="500" height="500"/>
</g>
<g id="OBJECTS">
	<g>
		<path style="fill:none;stroke:#D4D4D4;stroke-width:0.75;stroke-linecap:round;stroke-linejoin:round;stroke-miterlimit:10;" d="
			M164.991,349.585c0,0,52.908-20.901,105.617,18.796s117.039-21.167,118.301-64.789c0.652-22.52-23.374-11.73-5.922,2.987
			c25.457,21.466,45.753,15.208,58.417-17.447c12.663-32.655,23.089-32.069,30.473-31.276"/>
		<path style="fill:none;stroke:#D4D4D4;stroke-width:0.75;stroke-linecap:round;stroke-linejoin:round;stroke-miterlimit:10;" d="
			M427.912,367.725c0,0,35.829,24.833,27.12,41.925c-8.71,17.092-22.273-12.832,13.29-13.31"/>
		<path style="fill:none;stroke:#D4D4D4;stroke-width:0.75;stroke-linecap:round;stroke-linejoin:round;stroke-miterlimit:10;" d="
			M240.384,288.047c0,0-10.764-18.627-22.516-13.446c-11.752,5.182,5.667,15.745,3.765-3.436
			c-2.369-23.889-20.143-13.373-20.143-13.373"/>
		
			<line style="fill:none;stroke:#000000;stroke-width:0.75;stroke-linecap:round;stroke-linejoin:round;stroke-miterlimit:10;" x1="329.433" y1="271.767" x2="332.724" y2="250.997"/>
		
			<line style="fill:none;stroke:#000000;stroke-width:0.75;stroke-linecap:round;stroke-linejoin:round;stroke-miterlimit:10;" x1="436.103" y1="336.301" x2="453.479" y2="332.419"/>
		<polygon style="fill:#D4D4D4;" points="188.927,132.363 170.495,126.668 178.936,118.787 		"/>
		
			<line style="fill:none;stroke:#000000;stroke-width:0.75;stroke-linecap:round;stroke-linejoin:round;stroke-miterlimit:10;" x1="276.46" y1="80.986" x2="268.126" y2="54.708"/>
		
			<line style="fill:none;stroke:#000000;stroke-width:0.75;stroke-linecap:round;stroke-linejoin:round;stroke-miterlimit:10;" x1="298.483" y1="78.107" x2="302.983" y2="60.264"/>
		<polygon style="fill:#D4D4D4;" points="53.074,363.636 35.279,356.055 43.859,344.009 		"/>
		<polygon style="fill:#D4D4D4;" points="461.732,303.265 453.479,299.036 457.605,291.628 		"/>
		<polygon style="fill:#D4D4D4;" points="377.621,207.171 383.185,192.206 392.844,203.707 		"/>
		
			<line style="fill:none;stroke:#000000;stroke-width:0.75;stroke-linecap:round;stroke-linejoin:round;stroke-miterlimit:10;" x1="349.639" y1="276.559" x2="358.145" y2="267.989"/>
		
			<line style="fill:none;stroke:#000000;stroke-width:0.75;stroke-linecap:round;stroke-linejoin:round;stroke-miterlimit:10;" x1="44.176" y1="389.509" x2="57.751" y2="380.331"/>
	</g>
	<g>
		<g>
			<g>
				
					<rect x="40.686" y="51.075" transform="matrix(-1.836970e-16 1 -1 -1.836970e-16 163.5224 -1.1886)" style="fill:#FFFFFF;stroke:#D4D4D4;stroke-width:0.75;stroke-linecap:round;stroke-linejoin:round;stroke-miterlimit:10;" width="83.339" height="60.183"/>
				
					<rect x="46.68" y="57.378" transform="matrix(-1.836970e-16 1 -1 -1.836970e-16 163.5224 -1.1886)" style="fill:none;stroke:#D4D4D4;stroke-width:0.75;stroke-linecap:round;stroke-linejoin:round;stroke-miterlimit:10;" width="71.351" height="47.578"/>
				<g>
					
						<line style="fill:none;stroke:#D4D4D4;stroke-width:0.75;stroke-linecap:round;stroke-linejoin:round;stroke-miterlimit:10;" x1="112.447" y1="39.497" x2="106.144" y2="45.492"/>
					
						<line style="fill:none;stroke:#D4D4D4;stroke-width:0.75;stroke-linecap:round;stroke-linejoin:round;stroke-miterlimit:10;" x1="112.447" y1="122.836" x2="106.144" y2="116.842"/>
					
						<line style="fill:none;stroke:#D4D4D4;stroke-width:0.75;stroke-linecap:round;stroke-linejoin:round;stroke-miterlimit:10;" x1="52.264" y1="122.836" x2="58.567" y2="116.842"/>
					
						<line style="fill:none;stroke:#D4D4D4;stroke-width:0.75;stroke-linecap:round;stroke-linejoin:round;stroke-miterlimit:10;" x1="58.567" y1="45.492" x2="52.629" y2="39.839"/>
				</g>
			</g>
			<rect x="66.993" y="52.274" style="fill:#D4D4D4;" width="30.725" height="4.868"/>
			<g>
				<circle style="fill:none;stroke:#D4D4D4;stroke-width:0.75;stroke-miterlimit:10;" cx="96.604" cy="104.96" r="4.161"/>
				<path style="fill:none;stroke:#D4D4D4;stroke-width:0.75;stroke-miterlimit:10;" d="M99.025,104.96
					c0,1.338-1.084,2.422-2.422,2.422s-2.422-1.084-2.422-2.422s1.084-2.422,2.422-2.422S99.025,103.623,99.025,104.96z"/>
			</g>
			<g>
				
					<line style="fill:none;stroke:#D4D4D4;stroke-width:0.75;stroke-linecap:round;stroke-linejoin:round;stroke-miterlimit:10;" x1="63.995" y1="63.633" x2="100.716" y2="63.633"/>
				
					<line style="fill:none;stroke:#D4D4D4;stroke-width:0.75;stroke-linecap:round;stroke-linejoin:round;stroke-miterlimit:10;" x1="63.995" y1="69.417" x2="100.716" y2="69.417"/>
				
					<line style="fill:none;stroke:#D4D4D4;stroke-width:0.75;stroke-linecap:round;stroke-linejoin:round;stroke-miterlimit:10;" x1="63.995" y1="75.201" x2="100.716" y2="75.201"/>
				
					<line style="fill:none;stroke:#D4D4D4;stroke-width:0.75;stroke-linecap:round;stroke-linejoin:round;stroke-miterlimit:10;" x1="63.995" y1="80.986" x2="100.716" y2="80.986"/>
				
					<line style="fill:none;stroke:#D4D4D4;stroke-width:0.75;stroke-linecap:round;stroke-linejoin:round;stroke-miterlimit:10;" x1="63.995" y1="86.77" x2="100.716" y2="86.77"/>
				
					<line style="fill:none;stroke:#D4D4D4;stroke-width:0.75;stroke-linecap:round;stroke-linejoin:round;stroke-miterlimit:10;" x1="63.995" y1="92.554" x2="100.716" y2="92.554"/>
				
					<line style="fill:none;stroke:#D4D4D4;stroke-width:0.75;stroke-linecap:round;stroke-linejoin:round;stroke-miterlimit:10;" x1="63.995" y1="98.338" x2="90.822" y2="98.338"/>
				
					<line style="fill:none;stroke:#D4D4D4;stroke-width:0.75;stroke-linecap:round;stroke-linejoin:round;stroke-miterlimit:10;" x1="63.995" y1="104.123" x2="83.049" y2="104.123"/>
			</g>
		</g>
		<g>
			<g>
				
					<rect x="124.947" y="46.147" transform="matrix(-1 -1.224647e-16 1.224647e-16 -1 318.9997 142.1994)" style="fill:#FFFFFF;stroke:#D4D4D4;stroke-width:0.75;stroke-linecap:round;stroke-linejoin:round;stroke-miterlimit:10;" width="69.105" height="49.904"/>
				
					<rect x="129.917" y="51.374" transform="matrix(-1 -1.224647e-16 1.224647e-16 -1 318.9996 142.1994)" style="fill:none;stroke:#D4D4D4;stroke-width:0.75;stroke-linecap:round;stroke-linejoin:round;stroke-miterlimit:10;" width="59.165" height="39.452"/>
				<g>
					
						<line style="fill:none;stroke:#D4D4D4;stroke-width:0.75;stroke-linecap:round;stroke-linejoin:round;stroke-miterlimit:10;" x1="194.053" y1="96.052" x2="189.082" y2="90.826"/>
					
						<line style="fill:none;stroke:#D4D4D4;stroke-width:0.75;stroke-linecap:round;stroke-linejoin:round;stroke-miterlimit:10;" x1="124.947" y1="96.052" x2="129.917" y2="90.826"/>
					
						<line style="fill:none;stroke:#D4D4D4;stroke-width:0.75;stroke-linecap:round;stroke-linejoin:round;stroke-miterlimit:10;" x1="124.947" y1="46.147" x2="129.917" y2="51.374"/>
					
						<line style="fill:none;stroke:#D4D4D4;stroke-width:0.75;stroke-linecap:round;stroke-linejoin:round;stroke-miterlimit:10;" x1="189.082" y1="51.374" x2="193.77" y2="46.451"/>
				</g>
			</g>
			<rect x="140.53" y="56.227" style="fill:#D4D4D4;" width="39.244" height="4.037"/>
			<g>
				<path style="fill:none;stroke:#D4D4D4;stroke-width:0.75;stroke-miterlimit:10;" d="M182.035,81.558
					c0,1.906-1.545,3.451-3.451,3.451c-1.906,0-3.451-1.545-3.451-3.451s1.545-3.451,3.451-3.451
					C180.49,78.107,182.035,79.652,182.035,81.558z"/>
				<path style="fill:none;stroke:#D4D4D4;stroke-width:0.75;stroke-miterlimit:10;" d="M180.593,81.558
					c0,1.109-0.899,2.008-2.008,2.008c-1.109,0-2.008-0.899-2.008-2.008c0-1.109,0.899-2.008,2.008-2.008
					C179.694,79.55,180.593,80.449,180.593,81.558z"/>
			</g>
			<g>
				
					<line style="fill:none;stroke:#D4D4D4;stroke-width:0.75;stroke-linecap:round;stroke-linejoin:round;stroke-miterlimit:10;" x1="136.701" y1="65.646" x2="183.603" y2="65.646"/>
				
					<line style="fill:none;stroke:#D4D4D4;stroke-width:0.75;stroke-linecap:round;stroke-linejoin:round;stroke-miterlimit:10;" x1="136.701" y1="70.443" x2="183.603" y2="70.443"/>
				
					<line style="fill:none;stroke:#D4D4D4;stroke-width:0.75;stroke-linecap:round;stroke-linejoin:round;stroke-miterlimit:10;" x1="136.701" y1="75.239" x2="183.603" y2="75.239"/>
				
					<line style="fill:none;stroke:#D4D4D4;stroke-width:0.75;stroke-linecap:round;stroke-linejoin:round;stroke-miterlimit:10;" x1="136.701" y1="79.964" x2="170.966" y2="79.964"/>
				
					<line style="fill:none;stroke:#D4D4D4;stroke-width:0.75;stroke-linecap:round;stroke-linejoin:round;stroke-miterlimit:10;" x1="136.701" y1="83.82" x2="152.3" y2="83.82"/>
			</g>
		</g>
	</g>
	<g>
		<g>
			
				<rect x="121.633" y="332.034" style="fill:#D4D4D4;stroke:#000000;stroke-width:0.75;stroke-linecap:round;stroke-linejoin:round;stroke-miterlimit:10;" width="7.819" height="72.326"/>
			<path d="M136.741,338.55h-20.525c-5.938,0-10.751-4.813-10.751-10.751l0,0c0-5.938,4.813-10.751,10.751-10.751h20.525
				c5.938,0,10.751,4.813,10.751,10.751l0,0C147.492,333.736,142.679,338.55,136.741,338.55z"/>
			
				<path style="fill:#FFFFFF;stroke:#000000;stroke-width:0.75;stroke-linecap:round;stroke-linejoin:round;stroke-miterlimit:10;" d="
				M170.901,324.541H82.056c-8.303,0-15.034-6.731-15.034-15.034v-7.295h118.914v7.295
				C185.936,317.81,179.204,324.541,170.901,324.541z"/>
			<g>
				<path d="M135.546,289.138h-18.136c-1.529,0-2.769-1.24-2.769-2.769l0,0c0-1.529,1.24-2.769,2.769-2.769h18.136
					c1.529,0,2.769,1.24,2.769,2.769l0,0C138.316,287.898,137.076,289.138,135.546,289.138z"/>
				<path d="M135.546,282.138h-18.136c-1.529,0-2.769-1.24-2.769-2.769l0,0c0-1.529,1.24-2.769,2.769-2.769h18.136
					c1.529,0,2.769,1.24,2.769,2.769l0,0C138.316,280.898,137.076,282.138,135.546,282.138z"/>
				<rect x="117.411" y="279.369" width="18.136" height="7.489"/>
			</g>
			
				<path style="fill:#D4D4D4;stroke:#000000;stroke-width:0.75;stroke-linecap:round;stroke-linejoin:round;stroke-miterlimit:10;" d="
				M187.402,308.577H65.556c-5.938,0-10.751-4.813-10.751-10.751l0,0c0-5.938,4.813-10.751,10.751-10.751h121.846
				c5.938,0,10.751,4.813,10.751,10.751l0,0C198.153,303.763,193.339,308.577,187.402,308.577z"/>
			
				<path style="fill:#D4D4D4;stroke:#000000;stroke-width:0.75;stroke-linecap:round;stroke-linejoin:round;stroke-miterlimit:10;" d="
				M165.556,166.206c-8.549-6.088-26.21-7.154-39.077-7.024c-12.867-0.13-30.529,0.936-39.077,7.024
				c-14.335,10.208-25.846,59.729-22.588,80.796c3.258,21.068,20.633,31.493,28.452,31.059c6.144-0.341,25.289-1.048,33.213-1.336
				c7.924,0.287,27.069,0.994,33.213,1.336c7.819,0.434,25.195-9.991,28.452-31.059C191.402,225.934,179.89,176.414,165.556,166.206
				z"/>
			<path d="M129.137,410.549h-5.317c-3.07,0-5.559-2.489-5.559-5.559v-25.697c0-3.07,2.489-5.559,5.559-5.559h5.317
				c3.07,0,5.559,2.489,5.559,5.559v25.697C134.696,408.061,132.207,410.549,129.137,410.549z"/>
			<g>
				<path d="M190.008,405.663H62.949c-2.069,0-3.747-1.677-3.747-3.747l0,0c0-2.069,1.677-3.747,3.747-3.747h127.058
					c2.069,0,3.747,1.677,3.747,3.747l0,0C193.755,403.985,192.077,405.663,190.008,405.663z"/>
				<g>
					<rect x="60.169" y="401.102" width="4.724" height="28.995"/>
					<g>
						<circle cx="66.772" cy="430.021" r="7.569"/>
						<circle style="fill:#FFFFFF;" cx="66.772" cy="430.021" r="4.438"/>
					</g>
				</g>
				<g>
					<rect x="93.169" y="401.102" width="4.724" height="28.995"/>
					<g>
						<circle cx="99.772" cy="430.021" r="7.569"/>
						<circle style="fill:#FFFFFF;" cx="99.772" cy="430.021" r="4.438"/>
					</g>
				</g>
				<g>
					
						<rect x="188.065" y="401.102" transform="matrix(-1 -1.224647e-16 1.224647e-16 -1 380.8532 831.1984)" width="4.724" height="28.995"/>
					<g>
						<circle cx="186.186" cy="430.021" r="7.569"/>
						<circle style="fill:#FFFFFF;" cx="186.186" cy="430.021" r="4.438"/>
					</g>
				</g>
				<g>
					
						<rect x="155.065" y="401.102" transform="matrix(-1 -1.224647e-16 1.224647e-16 -1 314.8532 831.1984)" width="4.724" height="28.995"/>
					<g>
						<circle cx="153.186" cy="430.021" r="7.569"/>
						<circle style="fill:#FFFFFF;" cx="153.186" cy="430.021" r="4.438"/>
					</g>
				</g>
			</g>
			<g>
				<line style="fill:none;stroke:#000000;stroke-miterlimit:10;" x1="129.504" y1="335.617" x2="151.658" y2="348.323"/>
				<path d="M151.701,351.38c1.974,1.14,4.121,1.116,4.796-0.053c0.675-1.169-0.378-3.04-2.352-4.179
					c-1.974-1.14-4.121-1.116-4.796,0.053C148.674,348.37,149.728,350.241,151.701,351.38z"/>
			</g>
		</g>
		<g>
			
				<polygon style="fill:#D4D4D4;stroke:#000000;stroke-width:0.75;stroke-linecap:round;stroke-linejoin:round;stroke-miterlimit:10;" points="
				262.548,191.049 257.213,224.246 302.741,224.246 297.406,191.049 			"/>
			<g>
				
					<path style="fill:#D4D4D4;stroke:#000000;stroke-width:0.75;stroke-linecap:round;stroke-linejoin:round;stroke-miterlimit:10;" d="
					M340.868,202.751H219.086c-9.029,0-16.348-7.319-16.348-16.348v-70.987c0-9.029,7.319-16.348,16.348-16.348h121.782
					c9.029,0,16.348,7.319,16.348,16.348v70.987C357.216,195.432,349.897,202.751,340.868,202.751z"/>
			</g>
			
				<circle style="fill:none;stroke:#000000;stroke-width:0.75;stroke-linecap:round;stroke-linejoin:round;stroke-miterlimit:10;" cx="279.977" cy="129.286" r="8.667"/>
		</g>
		<g>
			<g>
				<g>
					
						<path style="fill:#ED5D1C;stroke:#000000;stroke-width:0.75;stroke-linecap:round;stroke-linejoin:round;stroke-miterlimit:10;" d="
						M157.224,195.346L157.224,195.346c-2.987-0.6-5.209-2.077-4.964-3.3l6.454-32.147c0.246-1.223,2.866-1.728,5.853-1.128l0,0
						c2.987,0.6,5.652,2.209,5.407,3.432l-6.898,32.015C162.832,195.441,160.211,195.946,157.224,195.346z"/>
					
						<rect x="153.337" y="183.715" transform="matrix(0.9804 0.1969 -0.1969 0.9804 39.6514 -27.6973)" style="fill:#D4D4D4;stroke:#000000;stroke-width:0.75;stroke-linecap:round;stroke-linejoin:round;stroke-miterlimit:10;" width="11.61" height="3.764"/>
					<g>
						<path style="fill:#FFFFFF;" d="M158.878,159.358l7.661-10.127l3.4,12.44c0.09,0.331-0.569,0.488-1.352,0.322l-8.65-1.833
							C159.183,160.001,158.68,159.619,158.878,159.358z"/>
						<polygon style="fill:#ED5D1C;" points="162.676,154.631 168.324,155.765 166.539,149.231 						"/>
						
							<path style="fill:none;stroke:#000000;stroke-width:0.75;stroke-linecap:round;stroke-linejoin:round;stroke-miterlimit:10;" d="
							M158.878,159.358l7.661-10.127l3.4,12.44c0.09,0.331-0.569,0.488-1.352,0.322l-8.65-1.833
							C159.183,160.001,158.68,159.619,158.878,159.358z"/>
					</g>
					
						<path style="fill:#FFFFFF;stroke:#000000;stroke-width:0.75;stroke-linecap:round;stroke-linejoin:round;stroke-miterlimit:10;" d="
						M152.814,187.627l-1.107,5.513c-0.311,1.548,1.979,3.314,5.113,3.943h0c3.135,0.629,5.927-0.115,6.238-1.664l1.171-5.5
						L152.814,187.627z"/>
					
						<rect x="152.608" y="187.406" transform="matrix(0.9804 0.1969 -0.1969 0.9804 40.3513 -27.4817)" style="fill:#D4D4D4;stroke:#000000;stroke-width:0.75;stroke-linecap:round;stroke-linejoin:round;stroke-miterlimit:10;" width="11.61" height="3.652"/>
				</g>
				<g>
					<path style="stroke:#000000;stroke-width:0.75;stroke-linecap:round;stroke-linejoin:round;stroke-miterlimit:10;" d="
						M147.645,200.181L147.645,200.181c-2.949,0.764-5.593,0.406-5.906-0.801l-8.23-31.739c-0.313-1.207,1.824-2.806,4.773-3.57l0,0
						c2.949-0.765,6.049-0.481,6.363,0.726l7.773,31.814C152.731,197.818,150.594,199.416,147.645,200.181z"/>
					
						<rect x="139.309" y="188.691" transform="matrix(0.968 -0.251 0.251 0.968 -43.1867 42.5224)" style="fill:#D4D4D4;stroke:#000000;stroke-width:0.75;stroke-linecap:round;stroke-linejoin:round;stroke-miterlimit:10;" width="11.61" height="3.764"/>
					<g>
						<path style="fill:#FFFFFF;" d="M133.419,167.083l2.47-12.455l8.49,9.708c0.226,0.258-0.299,0.687-1.076,0.88l-8.583,2.128
							C133.974,167.528,133.356,167.404,133.419,167.083z"/>
						<polygon points="134.772,161.172 140.349,159.726 135.89,154.627 						"/>
						
							<path style="fill:none;stroke:#000000;stroke-width:0.75;stroke-linecap:round;stroke-linejoin:round;stroke-miterlimit:10;" d="
							M133.419,167.083l2.47-12.455l8.49,9.708c0.226,0.258-0.299,0.687-1.076,0.88l-8.583,2.128
							C133.974,167.528,133.356,167.404,133.419,167.083z"/>
					</g>
					
						<path style="fill:#FFFFFF;stroke:#000000;stroke-width:0.75;stroke-linecap:round;stroke-linejoin:round;stroke-miterlimit:10;" d="
						M140.307,195.163l1.411,5.443c0.396,1.529,3.227,2.117,6.321,1.315l0,0c3.095-0.803,5.282-2.692,4.886-4.22l-1.348-5.459
						L140.307,195.163z"/>
					
						<rect x="140.24" y="192.336" transform="matrix(0.968 -0.251 0.251 0.968 -44.058 42.8713)" style="fill:#D4D4D4;stroke:#000000;stroke-width:0.75;stroke-linecap:round;stroke-linejoin:round;stroke-miterlimit:10;" width="11.61" height="3.652"/>
				</g>
				<g>
					
						<path style="fill:#D4D4D4;stroke:#000000;stroke-width:0.75;stroke-linecap:round;stroke-linejoin:round;stroke-miterlimit:10;" d="
						M149.621,200.036L149.621,200.036c-2.072,0-3.753-1.68-3.753-3.752v-55.535c0-2.072,1.68-3.752,3.753-3.752l0,0
						c2.072,0,3.753,1.68,3.753,3.752v55.535C153.373,198.356,151.693,200.036,149.621,200.036z"/>
					
						<line style="fill:none;stroke:#000000;stroke-width:0.75;stroke-linecap:round;stroke-linejoin:round;stroke-miterlimit:10;" x1="145.868" y1="152.498" x2="153.373" y2="152.498"/>
					
						<path style="fill:#D4D4D4;stroke:#000000;stroke-width:0.75;stroke-linecap:round;stroke-linejoin:round;stroke-miterlimit:10;" d="
						M153.851,165.019L153.851,165.019c-1.089,0-1.971-0.883-1.971-1.971v-16.628c0-1.089,0.882-1.971,1.971-1.971l0,0
						c1.089,0,1.971,0.882,1.971,1.971v16.628C155.822,164.136,154.94,165.019,153.851,165.019z"/>
				</g>
			</g>
			<g>
				
					<path style="fill:#FFFFFF;stroke:#000000;stroke-width:0.75;stroke-linecap:round;stroke-linejoin:round;stroke-miterlimit:10;" d="
					M165.605,224.246H139.19c-3.925,0-7.106-3.181-7.106-7.106v-27.165c0-3.925,3.182-7.106,7.106-7.106h26.414
					c3.925,0,7.106,3.182,7.106,7.106v27.165C172.711,221.065,169.529,224.246,165.605,224.246z"/>
			</g>
		</g>
		<g>
			<g>
				
					<rect x="83.943" y="227.858" style="fill:#FFFFFF;stroke:#000000;stroke-width:0.75;stroke-linecap:round;stroke-linejoin:round;stroke-miterlimit:10;" width="13.114" height="231.764"/>
				
					<rect x="402.943" y="227.858" style="fill:#FFFFFF;stroke:#000000;stroke-width:0.75;stroke-linecap:round;stroke-linejoin:round;stroke-miterlimit:10;" width="13.114" height="231.764"/>
			</g>
			
				<rect x="51.883" y="224.246" style="fill:#FFFFFF;stroke:#000000;stroke-width:0.75;stroke-linecap:round;stroke-linejoin:round;stroke-miterlimit:10;" width="396.233" height="15.275"/>
		</g>
		<g>
			<g>
				<g>
					
						<path style="fill:#FFFFFF;stroke:#000000;stroke-width:0.75;stroke-linecap:round;stroke-linejoin:round;stroke-miterlimit:10;" d="
						M431.597,110.321h-42.128c-5.382,0-9.746,4.363-9.746,9.746v17.199v6.015v18.843l9.909-9.098h41.965
						c5.382,0,9.746-4.363,9.746-9.746v-23.214C441.342,114.685,436.979,110.321,431.597,110.321z"/>
				</g>
				<g>
					
						<path style="fill:#FFFFFF;stroke:#000000;stroke-width:0.75;stroke-linecap:round;stroke-linejoin:round;stroke-miterlimit:10;" d="
						M443.736,96.448h-42.128c-5.382,0-9.746,4.363-9.746,9.746v17.199v6.015v18.843l9.909-9.098h41.965
						c5.382,0,9.746-4.363,9.746-9.746v-23.214C453.481,100.812,449.118,96.448,443.736,96.448z"/>
					<g>
						<path d="M413.031,118.575c0,2.34-1.897,4.237-4.237,4.237c-2.34,0-4.237-1.897-4.237-4.237c0-2.34,1.897-4.237,4.237-4.237
							C411.134,114.338,413.031,116.235,413.031,118.575z"/>
						<path d="M427.771,118.575c0,2.34-1.897,4.237-4.237,4.237c-2.34,0-4.237-1.897-4.237-4.237c0-2.34,1.897-4.237,4.237-4.237
							C425.874,114.338,427.771,116.235,427.771,118.575z"/>
						<path d="M442.512,118.575c0,2.34-1.897,4.237-4.237,4.237c-2.34,0-4.237-1.897-4.237-4.237c0-2.34,1.897-4.237,4.237-4.237
							C440.615,114.338,442.512,116.235,442.512,118.575z"/>
					</g>
				</g>
			</g>
			<g>
				
					<path style="fill:#FFFFFF;stroke:#000000;stroke-width:0.75;stroke-linecap:round;stroke-linejoin:round;stroke-miterlimit:10;" d="
					M376.505,42.494h-36.292c-4.637,0-8.396,3.759-8.396,8.396v14.816v5.182v16.233l8.536-7.837h36.151
					c4.637,0,8.396-3.759,8.396-8.396V50.89C384.901,46.253,381.142,42.494,376.505,42.494z"/>
				<g>
					<path d="M350.055,61.556c0,2.016-1.634,3.65-3.65,3.65c-2.016,0-3.65-1.634-3.65-3.65c0-2.016,1.634-3.65,3.65-3.65
						C348.421,57.905,350.055,59.54,350.055,61.556z"/>
					<path d="M362.753,61.556c0,2.016-1.634,3.65-3.65,3.65c-2.016,0-3.65-1.634-3.65-3.65c0-2.016,1.634-3.65,3.65-3.65
						C361.118,57.905,362.753,59.54,362.753,61.556z"/>
					<path d="M375.451,61.556c0,2.016-1.634,3.65-3.65,3.65c-2.016,0-3.65-1.634-3.65-3.65c0-2.016,1.634-3.65,3.65-3.65
						C373.816,57.905,375.451,59.54,375.451,61.556z"/>
				</g>
			</g>
		</g>
	</g>
	<g>
		<g>
			
				<path style="fill:#FFFFFF;stroke:#000000;stroke-width:0.75;stroke-linecap:round;stroke-linejoin:round;stroke-miterlimit:10;" d="
				M249.353,404.674c14.69,22.955,40.746,42.295,69.838,35.609c29.5-6.779,42.218-41.557,39.836-76.619l-0.204-2.597
				c-4.318,4.041-12.083,9.232-23.466,6.158c-17.411-4.703-32.978-27.669-47.559-47.451c-14.581-19.782-40.723-36.581-62.756-11.215
				c-22.033,25.366-34.153,60.839-37.74,77.222c-0.513,2.343-1.183,4.339-1.969,6.068c11.911,2.826,45.855,11.796,62.657,25.744
				c0.512-4.612,1.342-14.287,1.342-14.287l2.088-20.683"/>
			<g>
				<path style="fill:#ED5D1C;" d="M248.665,410.195c-17.318-15.866-48.237-20.674-61.968-22.062
					c-4.095,14.018-14.408,14.117-21.545,18.124c-7.518,4.221-12.297,12.572-8.944,24.777c3.353,12.205,26.29,19.39,53.364,19.491
					c27.074,0.101,34.852-15.958,37.547-27.2C247.681,420.984,248.198,416.236,248.665,410.195z"/>
				<path style="fill:#FFFFFF;" d="M247.685,420.082c-0.104-0.382-0.164-0.589-0.164-0.589s-10.66-6.017-22.479-1.339
					c-11.795,4.669-13.281,22.406-13.287,22.475c-40.971-1.667-56.298-19.987-56.431-20.147c-0.422,3.115-0.193,6.632,0.884,10.552
					c3.353,12.205,26.29,19.39,53.364,19.491c27.074,0.101,34.852-15.958,37.547-27.2
					C247.313,422.518,247.502,421.418,247.685,420.082z"/>
				<g>
					
						<path style="fill:none;stroke:#000000;stroke-width:0.75;stroke-linecap:round;stroke-linejoin:round;stroke-miterlimit:10;" d="
						M155.318,420.475c0,0,21.903,26.496,83.883,18.916"/>
					
						<path style="fill:none;stroke:#000000;stroke-width:0.75;stroke-linecap:round;stroke-linejoin:round;stroke-miterlimit:10;" d="
						M211.754,440.633c0,0,1.469-17.8,13.287-22.478c11.818-4.678,22.479,1.339,22.479,1.339"/>
					
						<path style="fill:none;stroke:#000000;stroke-width:0.75;stroke-linecap:round;stroke-linejoin:round;stroke-miterlimit:10;" d="
						M169.204,404.393c0,0,11.036,2.553,16.033,9.94"/>
					
						<path style="fill:none;stroke:#000000;stroke-width:0.75;stroke-linecap:round;stroke-linejoin:round;stroke-miterlimit:10;" d="
						M179.745,399.141c0,0,9.046,1.728,11.936,7.014"/>
				</g>
				
					<path style="fill:none;stroke:#000000;stroke-width:0.75;stroke-linecap:round;stroke-linejoin:round;stroke-miterlimit:10;" d="
					M248.665,410.195c-17.318-15.866-48.237-20.674-61.968-22.062c-4.095,14.018-14.408,14.117-21.545,18.124
					c-7.518,4.221-12.297,12.572-8.944,24.777c3.353,12.205,26.29,19.39,53.364,19.491c27.074,0.101,34.852-15.958,37.547-27.2
					C247.681,420.984,248.198,416.236,248.665,410.195z"/>
			</g>
		</g>
		<g>
			
				<ellipse transform="matrix(0.692 -0.7219 0.7219 0.692 -111.635 284.7474)" style="fill:#FFFFFF;stroke:#000000;stroke-width:0.75;stroke-linecap:round;stroke-linejoin:round;stroke-miterlimit:10;" cx="277.903" cy="273.209" rx="22.515" ry="22.515"/>
			<path d="M298.687,264.551c-2.817-6.762-8.55-11.422-15.132-13.134c1.092-1.63,2.163-3.679,1.324-4.501
				c-1.487-1.457-4.35,1.999-4.35,1.999s-1.457-4.31-3.808-3.006c-1.43,0.793-0.67,3.109,0.145,4.805
				c-2.551,0.118-5.125,0.673-7.62,1.712c-9.014,3.755-14.295,12.69-13.832,21.913c3.399-2.815,7.305-6.989,8.525-11.997
				c0,0,11.127,11.123,28.274,4.067l6.052,16.405C300.883,277.26,301.233,270.665,298.687,264.551z"/>
			<g>
				<path style="fill:#FFFFFF;" d="M297.294,266.283c1.185,2.846-0.161,6.114-3.007,7.3s-6.114-0.161-7.3-3.007
					c-1.186-2.846,0.161-6.114,3.007-7.3C292.84,262.091,296.108,263.437,297.294,266.283z"/>
				
					<path style="fill:none;stroke:#000000;stroke-width:0.75;stroke-linecap:round;stroke-linejoin:round;stroke-miterlimit:10;" d="
					M288.481,269.954c-0.842-2.021,0.114-4.342,2.135-5.184c2.021-0.842,4.342,0.114,5.184,2.135
					c0.842,2.021-0.114,4.342-2.135,5.184"/>
			</g>
		</g>
		<g>
			<path d="M276.226,272.509c0.5,1.2,0.171,2.479-0.734,2.856c-0.905,0.377-2.045-0.29-2.545-1.49c-0.5-1.2-0.171-2.479,0.734-2.856
				C274.587,270.642,275.726,271.309,276.226,272.509z"/>
			<path d="M263.358,274.996c0.468,1.124,0.16,2.321-0.688,2.674c-0.848,0.353-1.915-0.271-2.383-1.395s-0.16-2.321,0.688-2.674
				C261.823,273.248,262.89,273.872,263.358,274.996z"/>
			
				<polyline style="fill:none;stroke:#000000;stroke-width:0.75;stroke-linecap:round;stroke-linejoin:round;stroke-miterlimit:10;" points="
				266.719,270.574 265.241,277.73 269.652,277.018 			"/>
			<path style="fill:none;stroke:#000000;stroke-width:0.75;stroke-linecap:round;stroke-linejoin:round;stroke-miterlimit:10;" d="
				M266.424,283.446c0,0,3.592-1.693,6.272-2.273"/>
			<path style="fill:#ED5D1C;" d="M284.879,276.731c0,2.253-1.826,4.079-4.079,4.079c-2.253,0-4.079-1.826-4.079-4.079
				c0-2.253,1.826-4.079,4.079-4.079C283.053,272.652,284.879,274.478,284.879,276.731z"/>
			<path style="fill:#ED5D1C;" d="M263.747,281.586c0-1.923-1.559-3.482-3.482-3.482c-1.419,0-2.636,0.852-3.178,2.071
				c0.167,0.496,0.331,0.994,0.534,1.482c0.479,1.151,1.066,2.235,1.717,3.27c0.297,0.082,0.604,0.141,0.927,0.141
				C262.188,285.067,263.747,283.508,263.747,281.586z"/>
		</g>
		<g>
			
				<path style="fill:#FFFFFF;stroke:#000000;stroke-width:0.75;stroke-linecap:round;stroke-linejoin:round;stroke-miterlimit:10;" d="
				M269.156,413.994c14.901,23.284,41.33,42.901,70.839,36.12c29.923-6.876,42.823-42.152,40.407-77.718l-0.207-2.635
				c-4.38,4.099-12.256,9.365-23.802,6.246c-17.66-4.77-33.451-28.065-48.241-48.132s-41.307-37.106-63.656-11.376
				c-22.349,25.73-34.643,61.711-38.281,78.329c-0.52,2.377-1.2,4.401-1.997,6.155c12.082,2.866,46.512,11.965,63.555,26.113
				c0.519-4.678,1.362-14.492,1.362-14.492l2.118-20.98"/>
			<g>
				<path style="fill:#ED5D1C;" d="M268.458,419.593c-17.566-16.094-48.928-20.97-62.857-22.378
					c-4.154,14.22-14.615,14.319-21.854,18.384c-7.625,4.282-12.473,12.752-9.072,25.132c3.401,12.38,26.667,19.668,54.129,19.771
					c27.462,0.103,35.352-16.187,38.086-27.59C267.46,430.537,267.984,425.721,268.458,419.593z"/>
				<path style="fill:#FFFFFF;" d="M267.463,429.623c-0.105-0.387-0.166-0.598-0.166-0.598s-10.813-6.103-22.801-1.358
					c-11.965,4.736-13.472,22.728-13.478,22.797c-41.559-1.691-57.105-20.274-57.24-20.436c-0.428,3.16-0.195,6.727,0.897,10.703
					c3.401,12.38,26.667,19.668,54.129,19.771c27.462,0.103,35.352-16.187,38.086-27.59
					C267.087,432.093,267.278,430.977,267.463,429.623z"/>
				<g>
					
						<path style="fill:none;stroke:#000000;stroke-width:0.75;stroke-linecap:round;stroke-linejoin:round;stroke-miterlimit:10;" d="
						M173.772,430.021c0,0,22.217,26.876,85.086,19.187"/>
					
						<path style="fill:none;stroke:#000000;stroke-width:0.75;stroke-linecap:round;stroke-linejoin:round;stroke-miterlimit:10;" d="
						M231.018,450.467c0,0,1.49-18.055,13.478-22.801c11.988-4.745,22.801,1.358,22.801,1.358"/>
					
						<path style="fill:none;stroke:#000000;stroke-width:0.75;stroke-linecap:round;stroke-linejoin:round;stroke-miterlimit:10;" d="
						M187.857,413.708c0,0,11.194,2.589,16.263,10.082"/>
					
						<path style="fill:none;stroke:#000000;stroke-width:0.75;stroke-linecap:round;stroke-linejoin:round;stroke-miterlimit:10;" d="
						M198.549,408.381c0,0,9.176,1.753,12.107,7.115"/>
				</g>
				
					<path style="fill:none;stroke:#000000;stroke-width:0.75;stroke-linecap:round;stroke-linejoin:round;stroke-miterlimit:10;" d="
					M268.458,419.593c-17.566-16.094-48.928-20.97-62.857-22.378c-4.154,14.22-14.615,14.319-21.854,18.384
					c-7.625,4.282-12.473,12.752-9.072,25.132c3.401,12.38,26.667,19.668,54.129,19.771c27.462,0.103,35.352-16.187,38.086-27.59
					C267.46,430.537,267.984,425.721,268.458,419.593z"/>
			</g>
		</g>
		<g>
			<g>
				<g>
					
						<path style="fill:none;stroke:#000000;stroke-width:0.75;stroke-linecap:round;stroke-linejoin:round;stroke-miterlimit:10;" d="
						M331.777,310.973c0,0,20.711,48.931-11.273,75.988c-31.984,27.056-77.185-9.379-87.35-24.929
						c-10.166-15.551-7.546-23.118-4.935-24.663c4.935-2.919,11.982,10.861,11.982,10.861"/>
					
						<path style="fill:none;stroke:#000000;stroke-width:0.75;stroke-linecap:round;stroke-linejoin:round;stroke-miterlimit:10;" d="
						M335.251,365.249c5.898,6.019,14.175,11.409,20.618,13.15c11.546,3.119,19.87-2.261,24.25-6.36l0.22-0.538
						c-0.698-9.294-2.441-18.592-5.199-27.393c-13.398-42.759-48.285-62.146-62.902-61.295
						c-14.617,0.851-18.182,13.258-16.131,26.122c0,0,6.469,37.934-3.653,39.559s-22.992-12.431-25.761-18.658
						c-2.769-6.227-11.158-17.11-14.701-9.143"/>
				</g>
				
					<path style="fill:none;stroke:#000000;stroke-width:0.75;stroke-linecap:round;stroke-linejoin:round;stroke-miterlimit:10;" d="
					M260.73,330.286c0,0-6.687-9.651-12.743-12.372c-6.055-2.721-8.194-0.051-9.026,3.243"/>
				
					<path style="fill:none;stroke:#000000;stroke-width:0.75;stroke-linecap:round;stroke-linejoin:round;stroke-miterlimit:10;" d="
					M247.191,341.39c0,0-9.07-14.279-14.018-13.442c-4.27,0.722-5.531,5.425-3.403,9.022"/>
				
					<path style="fill:none;stroke:#000000;stroke-width:0.75;stroke-linecap:round;stroke-linejoin:round;stroke-miterlimit:10;" d="
					M251.991,332.741c0,0-5.324-11.043-14.017-11.635c-4.532-0.309-5.432,3.306-5.256,6.838"/>
			</g>
			<path style="fill:#FFFFFF;" d="M375.139,344.108c-13.398-42.759-48.285-62.146-62.902-61.295
				c-14.617,0.851-18.182,13.258-16.131,26.121c0,0,6.469,37.934-3.653,39.559c-10.123,1.625-22.992-12.431-25.761-18.658
				c-2.756-6.198-11.078-17.001-14.649-9.247c-1.33-1.11-2.707-2.069-4.056-2.675c-6.055-2.721-8.194-0.051-9.026,3.243l0.286,0.12
				c-0.417-0.079-0.839-0.141-1.273-0.171c-4.532-0.309-5.432,3.306-5.256,6.838l0.229,0.057c-4.081,0.852-5.265,5.438-3.176,8.969
				c-0.532-0.015-1.053,0.103-1.552,0.398c-2.611,1.544-5.231,9.112,4.935,24.663c10.166,15.551,55.367,51.986,87.35,24.93
				c7.494-6.34,12.095-13.881,14.748-21.711c5.898,6.019,14.175,11.409,20.617,13.149c11.546,3.119,19.87-2.261,24.25-6.36
				l0.22-0.538C379.64,362.206,377.897,352.908,375.139,344.108z M236.862,328.976l0.064,0.016
				c-0.018,0.001-0.036,0.001-0.054,0.001L236.862,328.976z M231.313,337.362l0.836,0.212
				C231.889,337.563,231.612,337.499,231.313,337.362z"/>
			<g>
				
					<path style="fill:#D4D4D4;stroke:#000000;stroke-width:0.75;stroke-linecap:round;stroke-linejoin:round;stroke-miterlimit:10;" d="
					M274.516,340.023c-2.352,20.889-18.402,31.906-27.579,36.553c4.327,3.603,9.341,7.185,14.79,10.308
					c17.905-11.634,23.733-28.298,25.606-38.751C282.858,346.931,278.273,343.654,274.516,340.023z"/>
				
					<line style="fill:none;stroke:#000000;stroke-width:0.75;stroke-linecap:round;stroke-linejoin:round;stroke-miterlimit:10;" x1="254.098" y1="372.32" x2="267.463" y2="382.66"/>
				
					<line style="fill:none;stroke:#000000;stroke-width:0.75;stroke-linecap:round;stroke-linejoin:round;stroke-miterlimit:10;" x1="262.67" y1="365.041" x2="275.247" y2="374.815"/>
				
					<line style="fill:none;stroke:#000000;stroke-width:0.75;stroke-linecap:round;stroke-linejoin:round;stroke-miterlimit:10;" x1="268.958" y1="356.763" x2="280.8" y2="365.041"/>
				
					<line style="fill:none;stroke:#000000;stroke-width:0.75;stroke-linecap:round;stroke-linejoin:round;stroke-miterlimit:10;" x1="272.943" y1="347.687" x2="285.511" y2="355.568"/>
			</g>
			<g>
				<defs>
					<path id="SVGID_1_" d="M375.139,344.108c-13.398-42.759-48.285-62.146-62.902-61.295
						c-14.617,0.851-18.182,13.258-16.131,26.121c0,0,6.469,37.934-3.653,39.559c-3.231,0.519-6.741-0.564-10.114-2.476
						c-3.552,10.344-11.196,27.567-25.152,38.1c18.5,11.961,43.456,19.644,63.318,2.843c7.494-6.34,12.095-13.881,14.748-21.711
						c5.898,6.019,14.175,11.409,20.617,13.149c11.546,3.119,19.87-2.261,24.25-6.36l0.22-0.538
						C379.64,362.206,377.897,352.908,375.139,344.108z"/>
				</defs>
				<clipPath id="SVGID_00000181050730282157690160000012932080134605319313_">
					<use xlink:href="#SVGID_1_"  style="overflow:visible;"/>
				</clipPath>
				<g style="clip-path:url(#SVGID_00000181050730282157690160000012932080134605319313_);">
					
						<circle style="fill:none;stroke:#D4D4D4;stroke-width:0.75;stroke-linecap:round;stroke-linejoin:round;stroke-miterlimit:10;" cx="273.106" cy="392.527" r="5.643"/>
					
						<path style="fill:none;stroke:#D4D4D4;stroke-width:0.75;stroke-linecap:round;stroke-linejoin:round;stroke-miterlimit:10;" d="
						M300.453,367.725c0,3.116-2.526,5.643-5.643,5.643s-5.643-2.526-5.643-5.643s2.526-5.643,5.643-5.643
						S300.453,364.609,300.453,367.725z"/>
					
						<path style="fill:none;stroke:#D4D4D4;stroke-width:0.75;stroke-linecap:round;stroke-linejoin:round;stroke-miterlimit:10;" d="
						M312.945,391.322c0,3.116-2.526,5.642-5.643,5.642c-3.116,0-5.642-2.526-5.642-5.642s2.526-5.643,5.642-5.643
						C310.419,385.679,312.945,388.205,312.945,391.322z"/>
					
						<path style="fill:none;stroke:#D4D4D4;stroke-width:0.75;stroke-linecap:round;stroke-linejoin:round;stroke-miterlimit:10;" d="
						M331.079,364.286c0,3.116-2.526,5.643-5.643,5.643s-5.642-2.526-5.642-5.643s2.526-5.643,5.642-5.643
						S331.079,361.169,331.079,364.286z"/>
					
						<path style="fill:none;stroke:#D4D4D4;stroke-width:0.75;stroke-linecap:round;stroke-linejoin:round;stroke-miterlimit:10;" d="
						M303.096,342.044c0,3.116-2.526,5.643-5.643,5.643s-5.643-2.526-5.643-5.643s2.526-5.643,5.643-5.643
						S303.096,338.928,303.096,342.044z"/>
					
						<path style="fill:none;stroke:#D4D4D4;stroke-width:0.75;stroke-linecap:round;stroke-linejoin:round;stroke-miterlimit:10;" d="
						M327.45,331.825c0,3.116-2.526,5.643-5.642,5.643s-5.643-2.526-5.643-5.643c0-3.116,2.526-5.642,5.643-5.642
						S327.45,328.709,327.45,331.825z"/>
					
						<path style="fill:none;stroke:#D4D4D4;stroke-width:0.75;stroke-linecap:round;stroke-linejoin:round;stroke-miterlimit:10;" d="
						M303.096,308.577c0,3.116-2.526,5.643-5.643,5.643s-5.643-2.526-5.643-5.643s2.526-5.643,5.643-5.643
						S303.096,305.461,303.096,308.577z"/>
					
						<circle style="fill:none;stroke:#D4D4D4;stroke-width:0.75;stroke-linecap:round;stroke-linejoin:round;stroke-miterlimit:10;" cx="312.042" cy="283.446" r="5.643"/>
					
						<path style="fill:none;stroke:#D4D4D4;stroke-width:0.75;stroke-linecap:round;stroke-linejoin:round;stroke-miterlimit:10;" d="
						M327.45,302.211c0,3.116-2.526,5.643-5.642,5.643s-5.643-2.526-5.643-5.643c0-3.116,2.526-5.642,5.643-5.642
						S327.45,299.095,327.45,302.211z"/>
					
						<path style="fill:none;stroke:#D4D4D4;stroke-width:0.75;stroke-linecap:round;stroke-linejoin:round;stroke-miterlimit:10;" d="
						M352.226,303.486c0,3.116-2.526,5.643-5.643,5.643c-3.116,0-5.643-2.526-5.643-5.643s2.526-5.643,5.643-5.643
						C349.7,297.844,352.226,300.37,352.226,303.486z"/>
					
						<path style="fill:none;stroke:#D4D4D4;stroke-width:0.75;stroke-linecap:round;stroke-linejoin:round;stroke-miterlimit:10;" d="
						M372.912,330.286c0,3.116-2.526,5.642-5.642,5.642s-5.643-2.526-5.643-5.642s2.526-5.643,5.643-5.643
						S372.912,327.17,372.912,330.286z"/>
					
						<path style="fill:none;stroke:#D4D4D4;stroke-width:0.75;stroke-linecap:round;stroke-linejoin:round;stroke-miterlimit:10;" d="
						M368.212,356.763c0,3.116-2.526,5.643-5.642,5.643s-5.643-2.526-5.643-5.643s2.526-5.643,5.643-5.643
						S368.212,353.647,368.212,356.763z"/>
					
						<circle style="fill:none;stroke:#D4D4D4;stroke-width:0.75;stroke-linecap:round;stroke-linejoin:round;stroke-miterlimit:10;" cx="345.664" cy="373.368" r="5.643"/>
					
						<path style="fill:none;stroke:#D4D4D4;stroke-width:0.75;stroke-linecap:round;stroke-linejoin:round;stroke-miterlimit:10;" d="
						M385.981,369.928c0,3.116-2.526,5.642-5.643,5.642s-5.643-2.526-5.643-5.642c0-3.116,2.526-5.643,5.643-5.643
						S385.981,366.812,385.981,369.928z"/>
					<path style="fill:#D4D4D4;" d="M340.021,341.015c-0.591,0-1.161,0.089-1.701,0.249c0.017,0.236,0.034,0.5,0.051,0.792
						c0.522-0.174,1.07-0.291,1.65-0.291c2.904,0,5.268,2.363,5.268,5.268s-2.363,5.268-5.268,5.268
						c-0.639,0-1.244-0.132-1.811-0.341c-0.026,0.259-0.054,0.52-0.085,0.78c0.597,0.199,1.233,0.311,1.896,0.311
						c3.318,0,6.018-2.699,6.018-6.018C346.039,343.715,343.339,341.015,340.021,341.015z"/>
					
						<circle style="fill:none;stroke:#D4D4D4;stroke-width:0.75;stroke-linecap:round;stroke-linejoin:round;stroke-miterlimit:10;" cx="344.014" cy="323.351" r="5.643"/>
				</g>
			</g>
			<g>
				
					<path style="fill:none;stroke:#000000;stroke-width:0.75;stroke-linecap:round;stroke-linejoin:round;stroke-miterlimit:10;" d="
					M331.777,310.973c0,0,20.711,48.931-11.273,75.988c-31.984,27.056-77.185-9.379-87.35-24.929
					c-10.166-15.551-7.546-23.118-4.935-24.663c4.935-2.919,11.982,10.861,11.982,10.861"/>
				
					<path style="fill:none;stroke:#000000;stroke-width:0.75;stroke-linecap:round;stroke-linejoin:round;stroke-miterlimit:10;" d="
					M335.251,365.249c5.898,6.019,14.175,11.409,20.618,13.15c11.546,3.119,19.87-2.261,24.25-6.36l0.22-0.538
					c-0.698-9.294-2.441-18.592-5.199-27.393c-13.398-42.759-48.285-62.146-62.902-61.295
					c-14.617,0.851-18.182,13.258-16.131,26.122c0,0,6.469,37.934-3.653,39.559s-22.992-12.431-25.761-18.658
					c-2.769-6.227-11.158-17.11-14.701-9.143"/>
				
					<path style="fill:none;stroke:#000000;stroke-width:0.75;stroke-linecap:round;stroke-linejoin:round;stroke-miterlimit:10;" d="
					M260.73,330.286c0,0-6.687-9.651-12.743-12.372c-6.055-2.721-8.194-0.051-9.026,3.243"/>
				
					<path style="fill:none;stroke:#000000;stroke-width:0.75;stroke-linecap:round;stroke-linejoin:round;stroke-miterlimit:10;" d="
					M247.191,341.39c0,0-9.07-14.279-14.018-13.442c-4.27,0.722-5.531,5.425-3.403,9.022"/>
				
					<path style="fill:none;stroke:#000000;stroke-width:0.75;stroke-linecap:round;stroke-linejoin:round;stroke-miterlimit:10;" d="
					M251.991,332.741c0,0-5.324-11.043-14.017-11.635c-4.532-0.309-5.432,3.306-5.256,6.838"/>
			</g>
		</g>
		<g>
			<path style="fill:#FFFFFF;" d="M223.819,305.13c-1.902,0.651-3.137,3.24-3.767,4.957c-0.478,0.08-0.975,0.218-1.491,0.436
				c-2.3,0.971-3.354,3.263-3.828,4.905c-3.203,0.682-5.748,4.682-5.748,4.682s-0.789,1.982-0.423,3.851
				c-2.167,0.181-4.312,2.052-4.476,5.197c0,0-0.889,4.418,3.246,5.089c3.408,0.552,5.681-4.788,4.927-7.861l0.006,0.001
				c0,0,3.705,1.246,6.343-2.078c0.705-0.888,0.926-2.547,0.7-4.2c2.357-0.034,5.771-2.834,5.851-5.845
				c0.013-0.47-0.056-0.92-0.181-1.345c1.627-0.46,3.577-1.407,3.845-3.336C229.295,306.204,226.726,304.136,223.819,305.13z"/>
			<g>
				
					<path style="fill:none;stroke:#000000;stroke-width:0.75;stroke-linecap:round;stroke-linejoin:round;stroke-miterlimit:10;" d="
					M204.087,329.159c0,0-0.889,4.418,3.246,5.089c4.135,0.671,6.613-7.346,4.018-9.445
					C208.758,322.703,204.326,324.582,204.087,329.159z"/>
				
					<path style="fill:none;stroke:#000000;stroke-width:0.75;stroke-linecap:round;stroke-linejoin:round;stroke-miterlimit:10;" d="
					M212.267,326.388c0,0,3.705,1.246,6.343-2.078c1.716-2.162,0.614-8.903-3.021-8.976c-3.635-0.073-5.601,3.198-6.562,5.027
					c-0.42,0.8-0.824,1.724-0.466,3.585"/>
				
					<path style="fill:none;stroke:#000000;stroke-width:0.75;stroke-linecap:round;stroke-linejoin:round;stroke-miterlimit:10;" d="
					M219.31,320.11c2.356-0.034,5.771-2.834,5.851-5.845c0.08-3.011-2.829-5.335-6.6-3.742c-2.2,0.929-3.262,3.069-3.766,4.69"/>
				
					<path style="fill:none;stroke:#000000;stroke-width:0.75;stroke-linecap:round;stroke-linejoin:round;stroke-miterlimit:10;" d="
					M220.081,310.005c0.639-1.716,1.869-4.236,3.739-4.875c2.907-0.994,5.475,1.074,5.007,4.455
					c-0.265,1.909-2.179,2.858-3.796,3.323"/>
			</g>
		</g>
	</g>
</g>
</svg>
