<?xml version="1.0" encoding="utf-8"?>
<!-- Generator: Adobe Illustrator 27.5.0, SVG Export Plug-In . SVG Version: 6.00 Build 0)  -->
<svg version="1.1" xmlns="http://www.w3.org/2000/svg" xmlns:xlink="http://www.w3.org/1999/xlink" x="0px" y="0px"
	 viewBox="0 0 750 500" style="enable-background:new 0 0 750 500;" xml:space="preserve">
<g id="BACKGROUND">
	<rect style="fill:#FFFFFF;" width="750" height="500"/>
</g>
<g id="OBJECTS">
	<g>
		<path style="fill:none;stroke:#D4D4D4;stroke-width:0.75;stroke-linecap:round;stroke-linejoin:round;stroke-miterlimit:10;" d="
			M50.438,100.012c0,0,106.887-19.234,137.754,59.576c41.384,105.664,180.614,111.213,248.181,80.47
			c67.567-30.743,163.798-62.857,206.896-15.937c30.374,33.068-0.609,46.413-10.804,31.276
			c-10.195-15.137,9.347-74.911,63.041-45.275"/>
		<path style="fill:none;stroke:#D4D4D4;stroke-width:0.75;stroke-linecap:round;stroke-linejoin:round;stroke-miterlimit:10;" d="
			M50.438,293.361c0,0,42.62-10.119,40.407-35.684c-2.213-25.565-28.546,9.582,2.213,25.565"/>
		<path style="fill:none;stroke:#D4D4D4;stroke-width:0.75;stroke-linecap:round;stroke-linejoin:round;stroke-miterlimit:10;" d="
			M451.043,113.178c0,0,30.145-58.691,53.848-49.042c23.703,9.649-23.65,34.558-6.401-21.568"/>
		<polygon style="fill:#D4D4D4;" points="652.816,151.883 664.602,143.831 670.891,159.588 		"/>
		<polygon style="fill:#D4D4D4;" points="689.046,340.108 701.964,345.067 694.21,352.509 		"/>
		<polygon style="fill:#D4D4D4;" points="96.947,162.851 84.744,156.241 95.991,147.27 		"/>
		
			<line style="fill:none;stroke:#000000;stroke-width:0.75;stroke-linecap:round;stroke-linejoin:round;stroke-miterlimit:10;" x1="672.416" y1="276.99" x2="691.346" y2="266.789"/>
		
			<line style="fill:none;stroke:#000000;stroke-width:0.75;stroke-linecap:round;stroke-linejoin:round;stroke-miterlimit:10;" x1="293.7" y1="107.308" x2="267.695" y2="91.33"/>
		
			<line style="fill:none;stroke:#000000;stroke-width:0.75;stroke-linecap:round;stroke-linejoin:round;stroke-miterlimit:10;" x1="316.811" y1="77.872" x2="303.64" y2="47.573"/>
		
			<line style="fill:none;stroke:#000000;stroke-width:0.75;stroke-linecap:round;stroke-linejoin:round;stroke-miterlimit:10;" x1="397.732" y1="102.245" x2="408.913" y2="85.507"/>
		
			<line style="fill:none;stroke:#000000;stroke-width:0.75;stroke-linecap:round;stroke-linejoin:round;stroke-miterlimit:10;" x1="60.23" y1="225.577" x2="48.036" y2="219.339"/>
	</g>
	<g>
		<g>
			<g>
				<g>
					
						<rect x="341.384" y="325.532" transform="matrix(-1 -1.224647e-16 1.224647e-16 -1 692.4393 730.1424)" style="fill:#D4D4D4;stroke:#000000;stroke-width:0.75;stroke-miterlimit:10;" width="9.671" height="79.078"/>
					<path d="M343.06,422.036h6.319c2.369,0,4.29-1.921,4.29-4.29v-51.138c0-2.37-1.921-4.29-4.29-4.29h-6.319
						c-2.369,0-4.29,1.921-4.29,4.29v51.138C338.77,420.115,340.691,422.036,343.06,422.036z"/>
				</g>
				<path d="M382.802,416.683h-72.389h-2.806c-1.549,0-2.806,1.256-2.806,2.806v3.959v17.406c0,1.549,1.256,2.806,2.806,2.806l0,0
					c1.549,0,2.806-1.256,2.806-2.806v-14.601c0-1.549,1.256-2.806,2.806-2.806h66.778c1.549,0,2.806,1.256,2.806,2.806v14.601
					c0,1.549,1.256,2.806,2.806,2.806l0,0c1.549,0,2.806-1.256,2.806-2.806v-21.365c0-1.549-1.256-2.806-2.806-2.806H382.802z"/>
				<g>
					<g>
						<path style="fill:#D4D4D4;stroke:#000000;stroke-width:0.75;stroke-miterlimit:10;" d="M296.934,446.147
							c0,6.004,4.868,10.872,10.872,10.872c6.004,0,10.871-4.867,10.871-10.872s-4.867-10.872-10.871-10.872
							C301.801,435.276,296.934,440.143,296.934,446.147z"/>
						<path d="M303.64,446.147c0,2.301,1.865,4.166,4.166,4.166c2.301,0,4.166-1.865,4.166-4.166c0-2.301-1.865-4.166-4.166-4.166
							C305.505,441.982,303.64,443.847,303.64,446.147z"/>
					</g>
					<g>
						
							<ellipse transform="matrix(0.9877 -0.156 0.156 0.9877 -64.9039 65.533)" style="fill:#D4D4D4;stroke:#000000;stroke-width:0.75;stroke-miterlimit:10;" cx="384.936" cy="446.147" rx="10.872" ry="10.872"/>
						<path d="M380.77,446.147c0,2.301,1.865,4.166,4.166,4.166c2.301,0,4.166-1.865,4.166-4.166c0-2.301-1.865-4.166-4.166-4.166
							C382.635,441.982,380.77,443.847,380.77,446.147z"/>
					</g>
				</g>
			</g>
			
				<path style="fill:#D4D4D4;stroke:#000000;stroke-width:0.75;stroke-linecap:round;stroke-linejoin:round;stroke-miterlimit:10;" d="
				M277.257,327.067c-4.995-10.124-7.147-16.767-8.308-41.585c-1.424-30.441-3.436-73.645,9.957-94.537
				c13.392-20.893,58.437-11.271,62.364,6.146c5.716,25.35,13.393,88.391,41.249,94.82c27.857,6.428,43.627,12.704,42.856,34.285
				C424.383,353.982,293.722,360.442,277.257,327.067z"/>
		</g>
		<g>
			<g>
				<g>
					
						<ellipse transform="matrix(0.0305 -0.9995 0.9995 0.0305 218.9172 509.3203)" style="fill:#FFFFFF;stroke:#000000;stroke-width:0.75;stroke-linecap:round;stroke-linejoin:round;stroke-miterlimit:10;" cx="372.018" cy="141.806" rx="23.295" ry="23.295"/>
				</g>
				<path d="M352.072,153.839c-3.279-5.44-4.335-12.192-2.359-18.752c3.711-12.319,16.706-19.296,29.025-15.585
					c9.674,2.915,16.051,11.555,16.547,21.097c-3.796-2.54-8.256-6.423-10.039-11.45c0,0-10.28,12.621-28.673,7.166L352.072,153.839
					z"/>
				<g>
					<path style="fill:#FFFFFF;" d="M351.33,136.722c-0.92,3.054,0.81,6.277,3.864,7.197c3.054,0.92,6.276-0.81,7.197-3.864
						c0.92-3.054-0.81-6.277-3.864-7.197C355.472,131.937,352.25,133.667,351.33,136.722z"/>
					
						<path style="fill:none;stroke:#000000;stroke-width:0.75;stroke-linecap:round;stroke-linejoin:round;stroke-miterlimit:10;" d="
						M360.933,137.893c-0.191-1.566-1.282-2.949-2.89-3.433c-2.169-0.654-4.457,0.575-5.111,2.744
						c-0.654,2.169,0.575,4.457,2.744,5.111"/>
				</g>
				
					<ellipse transform="matrix(0.087 -0.9962 0.9962 0.087 212.2481 446.2146)" cx="349.573" cy="107.307" rx="15.439" ry="15.439"/>
			</g>
			<g>
				<path d="M373.671,140.909c-0.388,1.288,0.085,2.569,1.057,2.862c0.972,0.293,2.074-0.514,2.462-1.802
					c0.388-1.288-0.085-2.569-1.057-2.862C375.161,138.815,374.059,139.621,373.671,140.909z"/>
				<path d="M387.177,142.113c-0.363,1.206,0.08,2.406,0.99,2.68s1.942-0.481,2.306-1.687c0.363-1.206-0.08-2.406-0.99-2.68
					C388.573,140.152,387.541,140.907,387.177,142.113z"/>
				
					<polyline style="fill:none;stroke:#000000;stroke-width:0.75;stroke-linecap:round;stroke-linejoin:round;stroke-miterlimit:10;" points="
					383.117,138.508 385.528,145.125 380.912,144.857 				"/>
				
					<path style="fill:none;stroke:#000000;stroke-width:0.75;stroke-linecap:round;stroke-linejoin:round;stroke-miterlimit:10;" d="
					M379.157,149.24c0,0,1.833-1.018,3.136,0c1.303,1.018,2.606,0.692,3.543,0"/>
			</g>
			<g>
				<g>
					<g>
						
							<path style="fill:#ED5D1C;stroke:#000000;stroke-width:0.75;stroke-linecap:round;stroke-linejoin:round;stroke-miterlimit:10;" d="
							M441.717,422.077c-0.431-20.644-21.441-25.968-16.696-50.418c-22.793-3.459-50.297-19.562-63.223-27.657
							c-0.905,2.142-2.288,4.285-3.25,6.411c-2.886,6.378-5.961,12.6-8.819,18.145c-10.494,20.358-20.466,41.041-13.602,47.24
							c6.864,6.199,11.523,1.794,16.695-2.513c5.173-4.307,13.084-3.686,18.082,4.169c4.998,7.855,7.941,24.464,27.375,36.029
							C417.715,465.048,442.131,441.888,441.717,422.077z"/>
						<g>
							
								<path style="fill:none;stroke:#000000;stroke-width:0.75;stroke-linecap:round;stroke-linejoin:round;stroke-miterlimit:10;" d="
								M350.452,396.222c0,0,16.477-0.761,25.247,9.824c8.77,10.585,22.89,36.591,47.441,32.938"/>
							
								<path style="fill:none;stroke:#000000;stroke-width:0.75;stroke-linecap:round;stroke-linejoin:round;stroke-miterlimit:10;" d="
								M410.963,393.529c0,0,9.715-1.895,17.056-0.826"/>
							
								<path style="fill:none;stroke:#000000;stroke-width:0.75;stroke-linecap:round;stroke-linejoin:round;stroke-miterlimit:10;" d="
								M416.52,402.758c0,0,10.984-3.827,16.308-2.28"/>
							
								<path style="fill:none;stroke:#000000;stroke-width:0.75;stroke-linecap:round;stroke-linejoin:round;stroke-miterlimit:10;" d="
								M415.954,383.924c0,0,23.673-21.714,46.246-18.34"/>
							
								<path style="fill:none;stroke:#000000;stroke-width:0.75;stroke-linecap:round;stroke-linejoin:round;stroke-miterlimit:10;" d="
								M416.117,384.036c0,0,33.518-12.648,35.592-2.73C454.48,394.556,416.117,384.036,416.117,384.036z"/>
						</g>
					</g>
					<g>
						
							<path style="fill:#FFFFFF;stroke:#000000;stroke-width:0.75;stroke-linecap:round;stroke-linejoin:round;stroke-miterlimit:10;" d="
							M420.454,280.273c0,0,25.716-9.782,31.907,17.215c4.717,20.57-25.353,58.211-27.526,76.781c0,0-31.078,2.721-65.211-25.894
							C359.624,348.375,388.681,290.173,420.454,280.273z"/>
						
							<path style="fill:none;stroke:#000000;stroke-width:0.75;stroke-linecap:round;stroke-linejoin:round;stroke-miterlimit:10;" d="
							M369.02,339.012c0,0,18.964,16.54,54.121,24.041"/>
					</g>
				</g>
				<g>
					<g>
						
							<path style="fill:#FFFFFF;stroke:#000000;stroke-width:0.75;stroke-linecap:round;stroke-linejoin:round;stroke-miterlimit:10;" d="
							M480.361,374.095c-1.809-2.278-3.461-4.996-4.885-8.34c-10.387-24.391-34.394-80.894-52.336-85.482
							c-17.941-4.588-124.645-31.325-124.645-31.325s-7.19,26.296-3.963,49.191c2.903,20.601,15.563,33.332,45.199,33.332
							c31.42,0,38.414-8.871,49.395,0c8.147,6.581,12.867,37.061,16.31,56.816C422.745,388.675,458.161,387.599,480.361,374.095z"/>
						
							<path style="fill:none;stroke:#000000;stroke-width:0.75;stroke-linecap:round;stroke-linejoin:round;stroke-miterlimit:10;" d="
							M404.306,370.412c0,0,38.51,0.414,62.123-11.511"/>
						
							<polyline style="fill:none;stroke:#000000;stroke-width:0.75;stroke-linecap:round;stroke-linejoin:round;stroke-miterlimit:10;" points="
							390.105,316.048 386.656,329.745 398.97,325.987 						"/>
					</g>
					<g>
						
							<path style="fill:#ED5D1C;stroke:#000000;stroke-width:0.75;stroke-linecap:round;stroke-linejoin:round;stroke-miterlimit:10;" d="
							M520.112,399.858c-12.664-17.668-34.077-9.782-44.513-33.836c-21.85,10.566-55.701,13.223-71.743,13.889
							c1.958,9.593,3.432,19.555,4.525,28.243c3.008,23.924,6.664,47.818,16.314,49.114c9.65,1.296,11.072-5.302,12.999-12.121
							c1.927-6.819,9.166-10.99,18.182-7.145c9.016,3.845,21.459,16.513,45.218,14.984
							C524.853,451.458,532.265,416.814,520.112,399.858z"/>
						<g>
							
								<path style="fill:none;stroke:#000000;stroke-width:0.75;stroke-linecap:round;stroke-linejoin:round;stroke-miterlimit:10;" d="
								M425.477,431.744c0,0,13.853-10.47,27.769-6.501c13.917,3.969,41.659,18.143,60.801,0.354"/>
							
								<path style="fill:none;stroke:#000000;stroke-width:0.75;stroke-linecap:round;stroke-linejoin:round;stroke-miterlimit:10;" d="
								M476.412,393.381c0,0,7.307-7.429,14.317-10.871"/>
							
								<path style="fill:none;stroke:#000000;stroke-width:0.75;stroke-linecap:round;stroke-linejoin:round;stroke-miterlimit:10;" d="
								M486.732,398.085c0,0,7.258-9.862,12.802-11.688"/>
							
								<path style="fill:none;stroke:#000000;stroke-width:0.75;stroke-linecap:round;stroke-linejoin:round;stroke-miterlimit:10;" d="
								M475.028,382.07c0,0,7.627-32.947,29.234-43.456"/>
							
								<path style="fill:none;stroke:#000000;stroke-width:0.75;stroke-linecap:round;stroke-linejoin:round;stroke-miterlimit:10;" d="
								M475.236,382.07c0,0,21.572-30.936,29.277-23.56C514.808,368.365,475.236,382.07,475.236,382.07z"/>
						</g>
					</g>
				</g>
				<g>
					<path style="fill:#FFFFFF;" d="M393.813,251.226c5.452,7.602,14.747,17.158,32.978,13.032
						c9.665-2.188,17.938-9.076,20.827-19.747c0,0-44.92-75.254-91.401-78.794C309.736,162.176,393.813,251.226,393.813,251.226z"/>
					<g>
						<defs>
							<path id="SVGID_1_" d="M393.813,251.226c5.452,7.602,14.747,17.158,32.978,13.032c9.665-2.188,17.938-9.076,20.827-19.747
								c0,0-44.92-75.254-91.401-78.794C309.736,162.176,393.813,251.226,393.813,251.226z"/>
						</defs>
						<clipPath id="SVGID_00000116213835791806845810000007762154589573943483_">
							<use xlink:href="#SVGID_1_"  style="overflow:visible;"/>
						</clipPath>
						<g style="clip-path:url(#SVGID_00000116213835791806845810000007762154589573943483_);">
							<path style="fill:none;stroke:#ED5D1C;stroke-width:0.75;stroke-miterlimit:10;" d="M384.371,194.464L384.371,194.464
								c-1.532-0.197-2.614-1.598-2.417-3.129l1.173-9.133c0.197-1.531,1.598-2.613,3.129-2.417l0,0
								c1.532,0.197,2.614,1.598,2.417,3.129l-1.173,9.132C387.304,193.579,385.902,194.661,384.371,194.464z"/>
							<path style="fill:none;stroke:#ED5D1C;stroke-width:0.75;stroke-miterlimit:10;" d="M404.513,200.53L404.513,200.53
								c-0.929,1.233-2.682,1.48-3.915,0.551l-7.354-5.54c-1.233-0.929-1.48-2.682-0.551-3.915l0,0
								c0.929-1.233,2.682-1.48,3.915-0.551l7.354,5.54C405.196,197.544,405.442,199.297,404.513,200.53z"/>
							<path style="fill:none;stroke:#ED5D1C;stroke-width:0.75;stroke-miterlimit:10;" d="M405.035,214.958L405.035,214.958
								c1.053,1.13,0.99,2.899-0.139,3.951l-6.736,6.277c-1.13,1.053-2.899,0.99-3.952-0.139l0,0
								c-1.053-1.13-0.99-2.899,0.139-3.951l6.736-6.277C402.213,213.766,403.983,213.829,405.035,214.958z"/>
							<path style="fill:none;stroke:#ED5D1C;stroke-width:0.75;stroke-miterlimit:10;" d="M408.388,252.367L408.388,252.367
								c1.29,0.849,1.647,2.583,0.798,3.873l-5.064,7.69c-0.849,1.29-2.583,1.647-3.873,0.798l0,0
								c-1.29-0.849-1.647-2.583-0.798-3.873l5.064-7.69C405.365,251.875,407.099,251.518,408.388,252.367z"/>
						</g>
					</g>
					
						<path style="fill:none;stroke:#000000;stroke-width:0.75;stroke-linecap:round;stroke-linejoin:round;stroke-miterlimit:10;" d="
						M393.813,251.226c5.452,7.602,14.747,17.158,32.978,13.032c9.665-2.188,17.938-9.076,20.827-19.747
						c0,0-44.92-75.254-91.401-78.794C309.736,162.176,393.813,251.226,393.813,251.226z"/>
				</g>
				<g>
					<path style="fill:#FFFFFF;" d="M389.332,190.248c-16.077-33.259-53.913-30.61-53.913-30.61h-0.661
						c-10.558,4.35-49.918,27.487-47.461,71.177c2.214,39.366,39.254,43.183,52.928,40.359l7.828-0.329l55.655,1.056
						C403.706,271.901,405.409,223.508,389.332,190.248z"/>
					<g>
						<defs>
							<path id="SVGID_00000164506158224450976810000001500761304563353019_" d="M389.332,190.248
								c-16.077-33.259-53.913-30.61-53.913-30.61h-0.661c-10.558,4.35-49.918,27.487-47.461,71.177
								c2.214,39.366,39.254,43.183,52.928,40.359l7.828-0.329l55.655,1.056C403.706,271.901,405.409,223.508,389.332,190.248z"/>
						</defs>
						<clipPath id="SVGID_00000128483962306223404360000007578806322782715026_">
							<use xlink:href="#SVGID_00000164506158224450976810000001500761304563353019_"  style="overflow:visible;"/>
						</clipPath>
						<g style="clip-path:url(#SVGID_00000128483962306223404360000007578806322782715026_);">
							<path style="fill:none;stroke:#ED5D1C;stroke-width:0.75;stroke-miterlimit:10;" d="M322.655,171.22L322.655,171.22
								c1.517-0.405,3.081,0.475,3.494,1.965l2.458,8.885c0.412,1.49-0.484,3.026-2.001,3.431l0,0
								c-1.517,0.405-3.081-0.475-3.493-1.965l-2.458-8.885C320.242,173.161,321.138,171.625,322.655,171.22z"/>
							<path style="fill:none;stroke:#ED5D1C;stroke-width:0.75;stroke-miterlimit:10;" d="M316.128,191.931L316.128,191.931
								c1.012,1.182,0.856,2.946-0.347,3.939l-7.176,5.926c-1.203,0.994-2.999,0.841-4.011-0.341l0,0
								c-1.012-1.182-0.857-2.945,0.347-3.939l7.176-5.925C313.32,190.597,315.116,190.75,316.128,191.931z"/>
							<path style="fill:none;stroke:#ED5D1C;stroke-width:0.75;stroke-miterlimit:10;" d="M312.245,230.647L312.245,230.647
								c-1.406,0.691-3.116,0.132-3.82-1.249l-4.197-8.234c-0.704-1.381-0.135-3.06,1.271-3.752l0,0
								c1.406-0.691,3.116-0.132,3.82,1.249l4.197,8.233C314.22,228.276,313.651,229.955,312.245,230.647z"/>
							<path style="fill:none;stroke:#ED5D1C;stroke-width:0.75;stroke-miterlimit:10;" d="M291.027,251.561L291.027,251.561
								c-1.498-0.468-2.327-2.04-1.85-3.512l2.841-8.775c0.477-1.471,2.077-2.285,3.576-1.817l0,0
								c1.498,0.468,2.327,2.04,1.85,3.512l-2.841,8.775C294.126,251.216,292.526,252.029,291.027,251.561z"/>
							<path style="fill:none;stroke:#ED5D1C;stroke-width:0.75;stroke-miterlimit:10;" d="M309.763,250.886L309.763,250.886
								c1.143-1.061,2.944-1.011,4.024,0.111l6.441,6.691c1.08,1.122,1.029,2.892-0.113,3.952l0,0
								c-1.142,1.061-2.944,1.011-4.024-0.111l-6.441-6.691C308.57,253.716,308.621,251.947,309.763,250.886z"/>
							<path style="fill:none;stroke:#ED5D1C;stroke-width:0.75;stroke-miterlimit:10;" d="M331.729,265.039L331.729,265.039
								c1.304,0.863,1.648,2.601,0.769,3.881l-5.241,7.635c-0.879,1.28-2.648,1.619-3.952,0.756l0,0
								c-1.304-0.863-1.648-2.601-0.769-3.881l5.241-7.635C328.656,264.514,330.425,264.176,331.729,265.039z"/>
							<path style="fill:none;stroke:#ED5D1C;stroke-width:0.75;stroke-miterlimit:10;" d="M362.29,222.704L362.29,222.704
								c-0.716-1.375-0.162-3.059,1.237-3.763l8.346-4.195c1.4-0.704,3.115-0.159,3.831,1.215l0,0
								c0.716,1.375,0.162,3.059-1.237,3.763l-8.346,4.195C364.722,224.622,363.007,224.078,362.29,222.704z"/>
							<path style="fill:none;stroke:#ED5D1C;stroke-width:0.75;stroke-miterlimit:10;" d="M374.261,191.494L374.261,191.494
								c1.258-0.926,3.042-0.676,3.986,0.56l5.624,7.367c0.943,1.235,0.688,2.988-0.57,3.914l0,0
								c-1.258,0.926-3.042,0.676-3.985-0.56l-5.624-7.367C372.748,194.173,373.003,192.42,374.261,191.494z"/>
							<path style="fill:none;stroke:#ED5D1C;stroke-width:0.75;stroke-miterlimit:10;" d="M371.427,180.109L371.427,180.109
								c-1.034-1.163-0.911-2.93,0.273-3.945l7.064-6.054c1.185-1.015,2.983-0.895,4.017,0.268l0,0
								c1.034,1.163,0.911,2.93-0.273,3.945l-7.064,6.054C374.259,181.393,372.461,181.272,371.427,180.109z"/>
							<path style="fill:none;stroke:#ED5D1C;stroke-width:0.75;stroke-miterlimit:10;" d="M390.77,209.874L390.77,209.874
								c0.97-1.215,2.759-1.428,3.997-0.476l7.379,5.679c1.238,0.952,1.455,2.71,0.485,3.925l0,0
								c-0.97,1.215-2.759,1.428-3.997,0.476l-7.379-5.68C390.017,212.847,389.8,211.09,390.77,209.874z"/>
							<path style="fill:none;stroke:#ED5D1C;stroke-width:0.75;stroke-miterlimit:10;" d="M386.955,226.253L386.955,226.253
								c1.395,0.711,1.939,2.399,1.215,3.77l-4.32,8.172c-0.724,1.37-2.443,1.905-3.838,1.193l0,0
								c-1.395-0.712-1.939-2.399-1.215-3.77l4.32-8.172C383.841,226.076,385.56,225.541,386.955,226.253z"/>
							<path style="fill:none;stroke:#ED5D1C;stroke-width:0.75;stroke-miterlimit:10;" d="M374.021,249.695L374.021,249.695
								c1.395,0.711,1.939,2.399,1.215,3.77l-4.32,8.172c-0.724,1.371-2.443,1.905-3.838,1.193l0,0
								c-1.395-0.711-1.939-2.399-1.215-3.77l4.32-8.172C370.907,249.518,372.625,248.984,374.021,249.695z"/>
							<path style="fill:none;stroke:#ED5D1C;stroke-width:0.75;stroke-miterlimit:10;" d="M386.68,259.47L386.68,259.47
								c1.555-0.227,3.003,0.827,3.235,2.354l1.379,9.107c0.231,1.527-0.842,2.95-2.397,3.177l0,0
								c-1.555,0.227-3.003-0.827-3.235-2.354l-1.379-9.107C384.052,261.12,385.125,259.697,386.68,259.47z"/>
							<path style="fill:none;stroke:#ED5D1C;stroke-width:0.75;stroke-miterlimit:10;" d="M405.838,254.484L405.838,254.484
								c-1.084,1.118-2.886,1.161-4.025,0.096l-6.789-6.35c-1.138-1.065-1.182-2.835-0.098-3.953l0,0
								c1.084-1.118,2.886-1.161,4.025-0.096l6.789,6.35C406.878,251.596,406.922,253.366,405.838,254.484z"/>
							<path style="fill:none;stroke:#ED5D1C;stroke-width:0.75;stroke-miterlimit:10;" d="M296.375,207.083L296.375,207.083
								c0.948,1.232,0.7,2.985-0.555,3.916l-7.479,5.551c-1.254,0.931-3.04,0.687-3.988-0.545l0,0
								c-0.948-1.232-0.7-2.985,0.555-3.916l7.479-5.552C293.642,205.607,295.427,205.851,296.375,207.083z"/>
							<path style="fill:none;stroke:#ED5D1C;stroke-width:0.75;stroke-miterlimit:10;" d="M310.391,182.303L310.391,182.303
								c-1.293,0.878-3.066,0.561-3.961-0.709l-5.334-7.572c-0.894-1.27-0.571-3.012,0.722-3.89l0,0
								c1.293-0.878,3.066-0.561,3.961,0.709l5.333,7.572C312.007,179.683,311.684,181.425,310.391,182.303z"/>
						</g>
					</g>
					
						<path style="fill:none;stroke:#000000;stroke-width:0.75;stroke-linecap:round;stroke-linejoin:round;stroke-miterlimit:10;" d="
						M389.332,190.248c-16.077-33.259-53.913-30.61-53.913-30.61h-0.661c-10.558,4.35-49.918,27.487-47.461,71.177
						c2.214,39.366,39.254,43.183,52.928,40.359l7.828-0.329l55.655,1.056C403.706,271.901,405.409,223.508,389.332,190.248z"/>
				</g>
				<g>
					<path style="fill:#FFFFFF;" d="M375.437,160.662c4.482-6.065,3.585-9.856,0.218-10.525l1.009-0.108
						c1.336-2.156,2.568-8.296-3.693-8.079c-2.665,0.092-5.542,1.907-7.97,3.96l-0.057-0.871c1.079-1.255,2.137-2.431,2.85-3.094
						c4.64-4.315,4.846-10.243-1.764-9.642c-0.615,0.056-1.249,0.206-1.892,0.432v0c0,0-1.625-4.227-8.575-1.564
						c-6.95,2.663-17.622,12.491-20.757,25.034c-3.135,12.543-14.049,47.566-21.053,52.778l25.52,62.193
						c13.429-2.823,22.371-12.781,25.451-26.665c3.08-13.883-2.211-55.619-0.536-65.088
						C365.863,169.952,370.541,167.287,375.437,160.662z"/>
					<g>
						
							<path style="fill:#ED5D1C;stroke:#000000;stroke-width:0.75;stroke-linecap:round;stroke-linejoin:round;stroke-miterlimit:10;" d="
							M328.212,178.242c-0.947,2.817-1.945,5.66-2.971,8.431c19.437-1.048,32.108,5.812,39.061,11.387
							c-0.269-5.084-0.461-9.651-0.445-13.191C351.612,175.79,336.148,176.857,328.212,178.242z"/>
						
							<line style="fill:none;stroke:#000000;stroke-width:0.75;stroke-linecap:round;stroke-linejoin:round;stroke-miterlimit:10;" x1="332.487" y1="178.066" x2="330.846" y2="186.587"/>
						
							<line style="fill:none;stroke:#000000;stroke-width:0.75;stroke-linecap:round;stroke-linejoin:round;stroke-miterlimit:10;" x1="338.947" y1="177.327" x2="337.585" y2="187.092"/>
						
							<line style="fill:none;stroke:#000000;stroke-width:0.75;stroke-linecap:round;stroke-linejoin:round;stroke-miterlimit:10;" x1="346.4" y1="177.889" x2="344.879" y2="188.49"/>
						
							<line style="fill:none;stroke:#000000;stroke-width:0.75;stroke-linecap:round;stroke-linejoin:round;stroke-miterlimit:10;" x1="353.726" y1="179.636" x2="352.35" y2="191.002"/>
						
							<line style="fill:none;stroke:#000000;stroke-width:0.75;stroke-linecap:round;stroke-linejoin:round;stroke-miterlimit:10;" x1="359.915" y1="182.383" x2="358.903" y2="194.312"/>
					</g>
					<g>
						<defs>
							<path id="SVGID_00000022542003056894113100000017555817629761811111_" d="M327.375,180.701
								c-4.368,12.656-9.628,25.31-13.62,28.281l5.321,44.678l20.199,17.515c13.429-2.823,22.371-12.781,25.451-26.665
								c2.424-10.927-0.335-39.096-0.805-55.219C350.807,186.891,335.04,182.778,327.375,180.701z"/>
						</defs>
						<clipPath id="SVGID_00000137832267294460246410000009293121013586582931_">
							<use xlink:href="#SVGID_00000022542003056894113100000017555817629761811111_"  style="overflow:visible;"/>
						</clipPath>
						<g style="clip-path:url(#SVGID_00000137832267294460246410000009293121013586582931_);">
							<path style="fill:none;stroke:#ED5D1C;stroke-width:0.75;stroke-miterlimit:10;" d="M344.696,194.397L344.696,194.397
								c1.157,1.023,1.265,2.79,0.242,3.947l-6.101,6.896c-1.023,1.157-2.79,1.265-3.947,0.242l0,0
								c-1.157-1.023-1.265-2.79-0.242-3.947l6.1-6.896C341.772,193.482,343.539,193.374,344.696,194.397z"/>
							<path style="fill:none;stroke:#ED5D1C;stroke-width:0.75;stroke-miterlimit:10;" d="M325.582,198.719L325.582,198.719
								c-1.425,0.594-3.062-0.081-3.656-1.506l-3.54-8.5c-0.594-1.425,0.081-3.062,1.506-3.656l0,0
								c1.426-0.594,3.062,0.081,3.656,1.506l3.54,8.5C327.682,196.489,327.007,198.126,325.582,198.719z"/>
							<path style="fill:none;stroke:#ED5D1C;stroke-width:0.75;stroke-miterlimit:10;" d="M355.188,213.347L355.188,213.347
								c0.974,1.198,0.792,2.959-0.406,3.933l-7.145,5.808c-1.198,0.974-2.959,0.792-3.933-0.406l0,0
								c-0.974-1.198-0.792-2.959,0.406-3.933l7.145-5.808C352.453,211.967,354.214,212.149,355.188,213.347z"/>
							<path style="fill:none;stroke:#ED5D1C;stroke-width:0.75;stroke-miterlimit:10;" d="M330.127,230.238L330.127,230.238
								c1.255,0.9,1.543,2.647,0.643,3.901l-5.366,7.482c-0.9,1.255-2.647,1.543-3.901,0.643l0,0
								c-1.255-0.9-1.543-2.647-0.643-3.901l5.366-7.483C327.126,229.626,328.872,229.339,330.127,230.238z"/>
							<path style="fill:none;stroke:#ED5D1C;stroke-width:0.75;stroke-miterlimit:10;" d="M348.863,233.497L348.863,233.497
								c1.463-0.495,3.05,0.29,3.544,1.752l2.951,8.722c0.495,1.463-0.29,3.05-1.752,3.544l0,0c-1.463,0.495-3.05-0.29-3.544-1.753
								l-2.951-8.722C346.616,235.579,347.4,233.992,348.863,233.497z"/>
							<path style="fill:none;stroke:#ED5D1C;stroke-width:0.75;stroke-miterlimit:10;" d="M341.398,248.992L341.398,248.992
								c0.702,1.375,0.156,3.059-1.219,3.761l-8.201,4.187c-1.375,0.702-3.059,0.156-3.761-1.219l0,0
								c-0.702-1.375-0.156-3.059,1.219-3.761l8.201-4.187C339.012,247.071,340.696,247.617,341.398,248.992z"/>
							<path style="fill:none;stroke:#ED5D1C;stroke-width:0.75;stroke-miterlimit:10;" d="M359.993,232.263L359.993,232.263
								c-0.944-1.222-0.719-2.978,0.503-3.922l7.286-5.63c1.222-0.944,2.978-0.719,3.922,0.503l0,0
								c0.944,1.222,0.719,2.978-0.503,3.922l-7.286,5.63C362.693,233.71,360.937,233.484,359.993,232.263z"/>
							<path style="fill:none;stroke:#ED5D1C;stroke-width:0.75;stroke-miterlimit:10;" d="M350.93,255.51L350.93,255.51
								c1.544,0,2.796,1.252,2.796,2.796v9.208c0,1.544-1.252,2.796-2.796,2.796l0,0c-1.544,0-2.796-1.252-2.796-2.796v-9.208
								C348.134,256.762,349.386,255.51,350.93,255.51z"/>
							<path style="fill:none;stroke:#ED5D1C;stroke-width:0.75;stroke-miterlimit:10;" d="M364.573,212.812L364.573,212.812
								c-1.426,0.594-3.062-0.081-3.656-1.506l-3.54-8.5c-0.594-1.425,0.081-3.062,1.506-3.656l0,0
								c1.425-0.594,3.062,0.081,3.656,1.506l3.54,8.5C366.673,210.582,365.998,212.219,364.573,212.812z"/>
							<path style="fill:none;stroke:#ED5D1C;stroke-width:0.75;stroke-miterlimit:10;" d="M320.965,208.72L320.965,208.72
								c1.466-0.485,3.048,0.31,3.533,1.776l2.893,8.741c0.485,1.466-0.31,3.048-1.776,3.533l0,0
								c-1.466,0.485-3.048-0.31-3.533-1.776l-2.893-8.741C318.704,210.787,319.499,209.205,320.965,208.72z"/>
						</g>
					</g>
					<g>
						
							<path style="fill:none;stroke:#000000;stroke-width:0.75;stroke-linecap:round;stroke-linejoin:round;stroke-miterlimit:10;" d="
							M365.718,156.857c0,0,4.958-6.977,9.041-6.83c4.082,0.147,5.539,4.059,0.679,10.635c-4.896,6.625-9.574,9.29-11.249,18.76
							c-1.674,9.469,3.616,51.204,0.537,65.088c-3.08,13.883-12.022,23.841-25.451,26.665"/>
						
							<path style="fill:none;stroke:#000000;stroke-width:0.75;stroke-linecap:round;stroke-linejoin:round;stroke-miterlimit:10;" d="
							M359.269,151.883c0,0,7.442-9.716,13.702-9.933c6.261-0.217,5.029,5.923,3.693,8.079"/>
						
							<path style="fill:none;stroke:#000000;stroke-width:0.75;stroke-linecap:round;stroke-linejoin:round;stroke-miterlimit:10;" d="
							M350.715,144.342c0,0,8.706-11.439,15.316-12.04c6.61-0.601,6.404,5.327,1.764,9.642c-2.074,1.929-7.051,8.173-7.051,8.173"/>
						
							<path style="fill:none;stroke:#000000;stroke-width:0.75;stroke-linecap:round;stroke-linejoin:round;stroke-miterlimit:10;" d="
							M364.139,132.734c0,0-1.625-4.227-8.575-1.564c-6.95,2.663-17.622,12.491-20.757,25.034
							c-3.135,12.543-14.049,47.566-21.053,52.778"/>
					</g>
				</g>
				<g>
					<path style="fill:#FFFFFF;" d="M439.835,207.861c-18.461-31.419-16.507-37.758-22.045-54.916
						c-5.538-17.158-16.344-18.407-20.036-18.244s-3.941,2.928-3.941,2.928l0,0.001c-0.865,0.291-1.501,0.811-1.843,1.417
						c-1.44,2.554,1.359,5.192,1.359,5.192l0.078,0.015c-1.208,0.017-2.151,0.645-2.657,1.887c-1.261,3.093,1.344,4.55,4.535,8.921
						c-7.083,16.938-0.501,34.133,2.893,43.8c2.97,8.459,4.153,22.844,5.157,26.308c0,0,1.099,12.154,2.707,22.482
						c1.608,10.328,10.134,17.52,10.134,17.52c3.156,0.228,6.677-0.025,10.616-0.916
						C445.022,260.131,458.297,239.28,439.835,207.861z"/>
					<g>
						<defs>
							<path id="SVGID_00000172413580362981448620000008072726632623526303_" d="M439.835,207.861
								c-3.682-6.267-6.542-11.524-8.822-16.08l-31.408,12.089c1.957,8.245,2.903,18.455,3.728,21.3c0,0,1.099,12.154,2.707,22.482
								c1.608,10.328,10.134,17.52,10.134,17.52c3.156,0.228,6.677-0.025,10.616-0.916
								C445.022,260.131,458.297,239.28,439.835,207.861z"/>
						</defs>
						<clipPath id="SVGID_00000101822096744725522450000003048550109002249891_">
							<use xlink:href="#SVGID_00000172413580362981448620000008072726632623526303_"  style="overflow:visible;"/>
						</clipPath>
						<g style="clip-path:url(#SVGID_00000101822096744725522450000003048550109002249891_);">
							<path style="fill:none;stroke:#ED5D1C;stroke-width:0.75;stroke-miterlimit:10;" d="M415.601,198.166L415.601,198.166
								c0.952-1.215,2.71-1.428,3.925-0.476l7.247,5.68c1.215,0.952,1.428,2.71,0.476,3.925l0,0
								c-0.952,1.215-2.71,1.428-3.925,0.476l-7.247-5.68C414.861,201.139,414.648,199.382,415.601,198.166z"/>
							<path style="fill:none;stroke:#ED5D1C;stroke-width:0.75;stroke-miterlimit:10;" d="M416.324,210.881L416.324,210.881
								c1.479,0.445,2.316,2.005,1.871,3.484l-2.656,8.816c-0.445,1.478-2.005,2.316-3.483,1.87l0,0
								c-1.479-0.445-2.316-2.005-1.871-3.484l2.656-8.816C413.286,211.273,414.846,210.436,416.324,210.881z"/>
							<path style="fill:none;stroke:#ED5D1C;stroke-width:0.75;stroke-miterlimit:10;" d="M417.878,241.563L417.878,241.563
								c-0.952,1.216-2.709,1.43-3.925,0.479l-7.251-5.674c-1.216-0.952-1.431-2.709-0.479-3.925l0,0
								c0.952-1.216,2.709-1.43,3.925-0.479l7.251,5.674C418.615,238.59,418.829,240.347,417.878,241.563z"/>
							<path style="fill:none;stroke:#ED5D1C;stroke-width:0.75;stroke-miterlimit:10;" d="M429.353,268.179L429.353,268.179
								c-1.28,0.863-3.018,0.525-3.881-0.756l-5.146-7.635c-0.863-1.28-0.525-3.018,0.756-3.881l0,0
								c1.28-0.863,3.018-0.525,3.881,0.756l5.146,7.635C430.972,265.578,430.633,267.316,429.353,268.179z"/>
							<path style="fill:none;stroke:#ED5D1C;stroke-width:0.75;stroke-miterlimit:10;" d="M435.146,233.714L435.146,233.714
								c1.368,0.715,1.898,2.404,1.183,3.773l-4.264,8.16c-0.715,1.368-2.404,1.898-3.773,1.183l0,0
								c-1.368-0.715-1.898-2.404-1.183-3.773l4.264-8.16C432.089,233.529,433.778,232.999,435.146,233.714z"/>
							<path style="fill:none;stroke:#ED5D1C;stroke-width:0.75;stroke-miterlimit:10;" d="M443.437,206.686L443.437,206.686
								c1.368,0.715,1.898,2.404,1.183,3.773l-4.264,8.16c-0.715,1.368-2.404,1.898-3.773,1.183l0,0
								c-1.368-0.715-1.898-2.404-1.183-3.773l4.264-8.161C440.38,206.501,442.069,205.971,443.437,206.686z"/>
							<path style="fill:none;stroke:#ED5D1C;stroke-width:0.75;stroke-miterlimit:10;" d="M454.377,251.822L454.377,251.822
								c-1.157,1.022-2.924,0.912-3.946-0.245l-6.095-6.902c-1.022-1.157-0.912-2.924,0.245-3.946l0,0
								c1.157-1.022,2.924-0.912,3.946,0.245l6.095,6.902C455.644,249.033,455.535,250.8,454.377,251.822z"/>
							<path style="fill:none;stroke:#ED5D1C;stroke-width:0.75;stroke-miterlimit:10;" d="M408.388,252.367L408.388,252.367
								c1.29,0.849,1.647,2.583,0.798,3.873l-5.064,7.69c-0.849,1.29-2.583,1.647-3.873,0.798l0,0
								c-1.29-0.849-1.647-2.583-0.798-3.873l5.064-7.69C405.365,251.875,407.099,251.518,408.388,252.367z"/>
						</g>
					</g>
					<g>
						
							<path style="fill:#ED5D1C;stroke:#000000;stroke-width:0.75;stroke-linecap:round;stroke-linejoin:round;stroke-miterlimit:10;" d="
							M429.279,188.218c-15.23,1.841-26.757,7.524-31.303,10.074c0.067,0.191,0.136,0.385,0.201,0.57
							c1.134,3.23,2.007,7.325,2.709,11.345c13.186-9.437,26.546-11.575,33.487-11.994
							C432.358,194.497,430.68,191.192,429.279,188.218z"/>
						
							<line style="fill:none;stroke:#000000;stroke-width:0.75;stroke-linecap:round;stroke-linejoin:round;stroke-miterlimit:10;" x1="402.271" y1="196.078" x2="406.366" y2="206.688"/>
						
							<line style="fill:none;stroke:#000000;stroke-width:0.75;stroke-linecap:round;stroke-linejoin:round;stroke-miterlimit:10;" x1="408.913" y1="193.254" x2="413.206" y2="203.279"/>
						
							<line style="fill:none;stroke:#000000;stroke-width:0.75;stroke-linecap:round;stroke-linejoin:round;stroke-miterlimit:10;" x1="416.175" y1="190.861" x2="420.454" y2="200.586"/>
						
							<line style="fill:none;stroke:#000000;stroke-width:0.75;stroke-linecap:round;stroke-linejoin:round;stroke-miterlimit:10;" x1="423.233" y1="189.174" x2="427.202" y2="199.089"/>
					</g>
					<g>
						
							<path style="fill:none;stroke:#000000;stroke-width:0.75;stroke-linecap:round;stroke-linejoin:round;stroke-miterlimit:10;" d="
							M398.61,171.95c0,0,2.661-6.831-1.311-13.787c-3.972-6.956-8.07-8.292-6.549-12.021c1.52-3.73,6.93-2.054,11.881,5.742"/>
						
							<path style="fill:none;stroke:#000000;stroke-width:0.75;stroke-linecap:round;stroke-linejoin:round;stroke-miterlimit:10;" d="
							M393.329,144.24c0,0-2.799-2.638-1.359-5.192c1.44-2.554,8.038-3.622,15.368,7.866"/>
						
							<path style="fill:none;stroke:#000000;stroke-width:0.75;stroke-linecap:round;stroke-linejoin:round;stroke-miterlimit:10;" d="
							M393.813,137.629c0,0,0.249-2.765,3.941-2.928s14.498,1.086,20.036,18.244c5.538,17.158,3.584,23.498,22.045,54.916
							c18.461,31.419,5.186,52.269-13.045,56.396c-3.939,0.892-7.46,1.144-10.616,0.916"/>
						
							<path style="fill:none;stroke:#000000;stroke-width:0.75;stroke-linecap:round;stroke-linejoin:round;stroke-miterlimit:10;" d="
							M403.334,225.171c-1.005-3.464-2.188-17.849-5.157-26.308c-3.394-9.668-9.977-26.863-2.892-43.802"/>
					</g>
				</g>
			</g>
		</g>
	</g>
	<g>
		<g>
			<path style="fill:#ED5D1C;stroke:#000000;stroke-width:0.75;stroke-miterlimit:10;" d="M235.783,237.835h-83.588
				c-3.713,0-6.723-3.01-6.723-6.723v-12.89c0-3.713,3.01-6.723,6.723-6.723h83.588c3.713,0,6.723,3.01,6.723,6.723v12.89
				C242.505,234.825,239.495,237.835,235.783,237.835z"/>
			<path style="fill:#FFFFFF;" d="M202.896,230.531h-44.798c-2.174,0-3.936-1.762-3.936-3.936v-3.857
				c0-2.174,1.762-3.936,3.936-3.936h44.798c2.174,0,3.936,1.762,3.936,3.936v3.857C206.832,228.769,205.07,230.531,202.896,230.531
				z"/>
			<path style="fill:#FFFFFF;" d="M236.216,224.667c0,2.767-2.243,5.009-5.009,5.009c-2.766,0-5.009-2.243-5.009-5.009
				c0-2.766,2.243-5.009,5.009-5.009C233.973,219.658,236.216,221.9,236.216,224.667z"/>
		</g>
		<g>
			<path style="stroke:#000000;stroke-width:0.75;stroke-miterlimit:10;" d="M222.853,211.083h-83.588
				c-3.713,0-6.723-3.01-6.723-6.723v-12.89c0-3.713,3.01-6.723,6.723-6.723h83.588c3.713,0,6.723,3.01,6.723,6.723v12.89
				C229.576,208.073,226.566,211.083,222.853,211.083z"/>
			<path style="fill:#FFFFFF;" d="M189.967,203.779h-44.798c-2.173,0-3.936-1.762-3.936-3.936v-3.857
				c0-2.174,1.762-3.936,3.936-3.936h44.798c2.174,0,3.936,1.762,3.936,3.936v3.857C193.902,202.017,192.14,203.779,189.967,203.779
				z"/>
			<path style="fill:#FFFFFF;" d="M223.286,197.915c0,2.766-2.243,5.009-5.009,5.009c-2.766,0-5.009-2.243-5.009-5.009
				c0-2.766,2.243-5.009,5.009-5.009C221.044,192.906,223.286,195.149,223.286,197.915z"/>
		</g>
		<g>
			<path style="fill:#ED5D1C;stroke:#000000;stroke-width:0.75;stroke-miterlimit:10;" d="M664.168,376.401H580.58
				c-3.713,0-6.723-3.01-6.723-6.723v-12.89c0-3.713,3.01-6.723,6.723-6.723h83.588c3.713,0,6.723,3.01,6.723,6.723v12.89
				C670.891,373.391,667.881,376.401,664.168,376.401z"/>
			<path style="fill:#FFFFFF;" d="M631.282,369.097h-44.798c-2.174,0-3.936-1.762-3.936-3.936v-3.857
				c0-2.174,1.762-3.936,3.936-3.936h44.798c2.174,0,3.936,1.762,3.936,3.936v3.857
				C635.218,367.335,633.456,369.097,631.282,369.097z"/>
			<path style="fill:#FFFFFF;" d="M664.602,363.233c0,2.766-2.243,5.009-5.009,5.009c-2.766,0-5.009-2.243-5.009-5.009
				c0-2.766,2.243-5.009,5.009-5.009C662.359,358.224,664.602,360.466,664.602,363.233z"/>
		</g>
		<g>
			<path style="stroke:#000000;stroke-width:0.75;stroke-miterlimit:10;" d="M664.168,349.649H580.58
				c-3.713,0-6.723-3.01-6.723-6.723v-12.89c0-3.713,3.01-6.723,6.723-6.723h83.588c3.713,0,6.723,3.01,6.723,6.723v12.89
				C670.891,346.639,667.881,349.649,664.168,349.649z"/>
			<path style="fill:#FFFFFF;" d="M631.282,342.345h-44.798c-2.174,0-3.936-1.762-3.936-3.936v-3.857
				c0-2.174,1.762-3.936,3.936-3.936h44.798c2.174,0,3.936,1.762,3.936,3.936v3.857
				C635.218,340.583,633.456,342.345,631.282,342.345z"/>
			<path style="fill:#FFFFFF;" d="M664.602,336.481c0,2.766-2.243,5.009-5.009,5.009c-2.766,0-5.009-2.243-5.009-5.009
				c0-2.766,2.243-5.009,5.009-5.009C662.359,331.472,664.602,333.715,664.602,336.481z"/>
		</g>
		<g>
			<path style="fill:#D4D4D4;stroke:#000000;stroke-width:0.75;stroke-miterlimit:10;" d="M671.553,322.897H594.58
				c-3.713,0-6.723-3.01-6.723-6.723V305.08c0-3.713,3.01-6.723,6.723-6.723h76.973c3.713,0,6.723,3.01,6.723,6.723v11.095
				C678.276,319.887,675.266,322.897,671.553,322.897z"/>
			<path style="fill:#FFFFFF;" d="M641.099,316.091h-41.208c-2.174,0-3.936-1.762-3.936-3.936v-3.058
				c0-2.174,1.762-3.936,3.936-3.936h41.208c2.174,0,3.936,1.762,3.936,3.936v3.058
				C645.035,314.329,643.273,316.091,641.099,316.091z"/>
			<path style="fill:#FFFFFF;" d="M672.416,310.627c0,2.578-2.09,4.668-4.667,4.668c-2.578,0-4.668-2.09-4.668-4.668
				c0-2.578,2.09-4.668,4.668-4.668C670.326,305.96,672.416,308.049,672.416,310.627z"/>
		</g>
		<g>
			<path style="fill:#D4D4D4;stroke:#000000;stroke-width:0.75;stroke-miterlimit:10;" d="M141.904,364.447H64.931
				c-3.713,0-6.723-3.01-6.723-6.723v-11.095c0-3.713,3.01-6.723,6.723-6.723h76.973c3.713,0,6.723,3.01,6.723,6.723v11.095
				C148.626,361.437,145.617,364.447,141.904,364.447z"/>
			<path style="fill:#FFFFFF;" d="M111.449,357.641H70.242c-2.174,0-3.936-1.762-3.936-3.936v-3.058
				c0-2.173,1.762-3.936,3.936-3.936h41.208c2.174,0,3.936,1.762,3.936,3.936v3.058
				C115.385,355.879,113.623,357.641,111.449,357.641z"/>
			<path style="fill:#FFFFFF;" d="M142.766,352.177c0,2.578-2.09,4.668-4.668,4.668s-4.667-2.09-4.667-4.668s2.09-4.668,4.667-4.668
				S142.766,349.599,142.766,352.177z"/>
		</g>
		<g>
			<path style="fill:#FFFFFF;stroke:#000000;stroke-width:0.75;stroke-miterlimit:10;" d="M150.002,339.906H73.029
				c-3.713,0-6.723-3.01-6.723-6.723v-11.095c0-3.713,3.01-6.723,6.723-6.723h76.973c3.713,0,6.723,3.01,6.723,6.723v11.095
				C156.725,336.897,153.715,339.906,150.002,339.906z"/>
			
				<path style="fill:#FFFFFF;stroke:#000000;stroke-width:0.75;stroke-linecap:round;stroke-linejoin:round;stroke-miterlimit:10;" d="
				M119.547,333.101H78.34c-2.174,0-3.936-1.762-3.936-3.936v-3.058c0-2.174,1.762-3.936,3.936-3.936h41.208
				c2.174,0,3.936,1.762,3.936,3.936v3.058C123.483,331.339,121.721,333.101,119.547,333.101z"/>
			
				<circle style="fill:#FFFFFF;stroke:#000000;stroke-width:0.75;stroke-linecap:round;stroke-linejoin:round;stroke-miterlimit:10;" cx="146.196" cy="327.636" r="4.668"/>
		</g>
		<g>
			
				<rect x="61.577" y="371.157" style="fill:#FFFFFF;stroke:#000000;stroke-width:0.75;stroke-linecap:round;stroke-linejoin:round;stroke-miterlimit:10;" width="111.794" height="85.066"/>
			
				<path style="fill:#FFFFFF;stroke:#000000;stroke-width:0.75;stroke-linecap:round;stroke-linejoin:round;stroke-miterlimit:10;" d="
				M130.26,398.045h-25.573c-1.929,0-3.493-1.564-3.493-3.493v-5.503c0-1.929,1.564-3.493,3.493-3.493h25.573
				c1.929,0,3.493,1.564,3.493,3.493v5.503C133.753,396.481,132.189,398.045,130.26,398.045z"/>
			<g>
				
					<line style="fill:none;stroke:#000000;stroke-width:0.75;stroke-linecap:round;stroke-linejoin:round;stroke-miterlimit:10;" x1="90.42" y1="410.586" x2="144.527" y2="410.586"/>
				
					<line style="fill:none;stroke:#000000;stroke-width:0.75;stroke-linecap:round;stroke-linejoin:round;stroke-miterlimit:10;" x1="90.42" y1="418.631" x2="144.527" y2="418.631"/>
				
					<line style="fill:none;stroke:#000000;stroke-width:0.75;stroke-linecap:round;stroke-linejoin:round;stroke-miterlimit:10;" x1="90.42" y1="426.676" x2="144.527" y2="426.676"/>
			</g>
			
				<rect x="55.609" y="364.307" style="fill:#FFFFFF;stroke:#000000;stroke-width:0.75;stroke-linecap:round;stroke-linejoin:round;stroke-miterlimit:10;" width="123.729" height="13.7"/>
		</g>
		<g>
			<polygon style="fill:#FFFFFF;" points="266.507,390.797 256.24,390.797 133.574,390.797 127.844,390.292 128.291,414.221 
				141.901,414.221 141.543,438.857 137.156,438.857 137.693,456.223 265.731,456.223 265.82,438.857 260.717,438.857 
				259.642,414.221 265.194,414.221 			"/>
			<g>
				<polygon style="fill:#D4D4D4;" points="218.455,401.701 265.743,404.426 265.954,400.663 				"/>
				<polygon style="fill:#D4D4D4;" points="259.926,420.716 259.75,416.683 182.581,418.664 				"/>
				<polygon style="fill:#D4D4D4;" points="141.543,438.857 137.156,438.857 137.277,442.797 234.99,438.857 				"/>
			</g>
			<g>
				<polygon style="fill:#ED5D1C;" points="149.514,402.544 145.32,410.239 151.688,408.718 153.863,411.433 158.678,402.544 				
					"/>
				<polygon style="fill:#ED5D1C;" points="239.474,424.722 242.205,434.347 243.872,429.534 249.085,434.347 248.433,424.722 				
					"/>
			</g>
			<g>
				
					<path style="fill:none;stroke:#000000;stroke-width:0.75;stroke-linecap:round;stroke-linejoin:round;stroke-miterlimit:10;" d="
					M131.873,395.817c1.611,0,124.041,0,124.041,0"/>
				
					<path style="fill:none;stroke:#000000;stroke-width:0.75;stroke-linecap:round;stroke-linejoin:round;stroke-miterlimit:10;" d="
					M137.156,402.544c0.876,0,67.467,0,67.467,0"/>
				
					<line style="fill:none;stroke:#000000;stroke-width:0.75;stroke-linecap:round;stroke-linejoin:round;stroke-miterlimit:10;" x1="128.389" y1="414.221" x2="264.862" y2="414.221"/>
				
					<line style="fill:none;stroke:#000000;stroke-width:0.75;stroke-linecap:round;stroke-linejoin:round;stroke-miterlimit:10;" x1="142.707" y1="424.722" x2="258.389" y2="424.722"/>
				
					<line style="fill:none;stroke:#000000;stroke-width:0.75;stroke-linecap:round;stroke-linejoin:round;stroke-miterlimit:10;" x1="150.228" y1="432.395" x2="226.156" y2="432.395"/>
				
					<line style="fill:none;stroke:#000000;stroke-width:0.75;stroke-linecap:round;stroke-linejoin:round;stroke-miterlimit:10;" x1="137.156" y1="438.857" x2="265.194" y2="438.857"/>
				
					<line style="fill:none;stroke:#000000;stroke-width:0.75;stroke-linecap:round;stroke-linejoin:round;stroke-miterlimit:10;" x1="171.717" y1="449.357" x2="265.194" y2="449.357"/>
			</g>
			
				<polygon style="fill:none;stroke:#000000;stroke-width:0.75;stroke-linecap:round;stroke-linejoin:round;stroke-miterlimit:10;" points="
				259.642,414.221 265.194,414.221 266.496,390.999 127.857,390.999 128.291,414.221 141.901,414.221 141.543,438.857 
				137.156,438.857 137.693,456.223 265.731,456.223 265.82,438.857 260.717,438.857 			"/>
		</g>
		<g>
			
				<rect x="141.441" y="316.588" style="fill:#D4D4D4;stroke:#000000;stroke-width:0.75;stroke-linecap:round;stroke-linejoin:round;stroke-miterlimit:10;" width="111.794" height="74.411"/>
			
				<path style="fill:#FFFFFF;stroke:#000000;stroke-width:0.75;stroke-linecap:round;stroke-linejoin:round;stroke-miterlimit:10;" d="
				M210.125,340.108h-25.573c-1.929,0-3.493-1.564-3.493-3.493v-3.939c0-1.929,1.564-3.493,3.493-3.493h25.573
				c1.929,0,3.493,1.564,3.493,3.493v3.939C213.618,338.544,212.054,340.108,210.125,340.108z"/>
			<g>
				
					<line style="fill:none;stroke:#000000;stroke-width:0.75;stroke-linecap:round;stroke-linejoin:round;stroke-miterlimit:10;" x1="170.285" y1="351.078" x2="224.391" y2="351.078"/>
				
					<line style="fill:none;stroke:#000000;stroke-width:0.75;stroke-linecap:round;stroke-linejoin:round;stroke-miterlimit:10;" x1="170.285" y1="358.116" x2="224.391" y2="358.116"/>
				
					<line style="fill:none;stroke:#000000;stroke-width:0.75;stroke-linecap:round;stroke-linejoin:round;stroke-miterlimit:10;" x1="170.285" y1="365.153" x2="224.391" y2="365.153"/>
			</g>
			
				<rect x="135.474" y="310.595" style="fill:#D4D4D4;stroke:#000000;stroke-width:0.75;stroke-linecap:round;stroke-linejoin:round;stroke-miterlimit:10;" width="123.729" height="11.984"/>
		</g>
		<g>
			
				<rect x="569.866" y="381.811" style="fill:#D4D4D4;stroke:#000000;stroke-width:0.75;stroke-linecap:round;stroke-linejoin:round;stroke-miterlimit:10;" width="111.794" height="74.411"/>
			
				<path style="fill:#FFFFFF;stroke:#000000;stroke-width:0.75;stroke-linecap:round;stroke-linejoin:round;stroke-miterlimit:10;" d="
				M638.549,405.331h-25.573c-1.929,0-3.493-1.564-3.493-3.493V397.9c0-1.929,1.564-3.493,3.493-3.493h25.573
				c1.929,0,3.493,1.564,3.493,3.493v3.939C642.042,403.768,640.478,405.331,638.549,405.331z"/>
			<g>
				
					<line style="fill:none;stroke:#000000;stroke-width:0.75;stroke-linecap:round;stroke-linejoin:round;stroke-miterlimit:10;" x1="598.709" y1="416.302" x2="652.816" y2="416.302"/>
				
					<line style="fill:none;stroke:#000000;stroke-width:0.75;stroke-linecap:round;stroke-linejoin:round;stroke-miterlimit:10;" x1="598.709" y1="423.34" x2="652.816" y2="423.34"/>
				
					<line style="fill:none;stroke:#000000;stroke-width:0.75;stroke-linecap:round;stroke-linejoin:round;stroke-miterlimit:10;" x1="598.709" y1="430.377" x2="652.816" y2="430.377"/>
			</g>
			
				<rect x="563.898" y="375.819" style="fill:#D4D4D4;stroke:#000000;stroke-width:0.75;stroke-linecap:round;stroke-linejoin:round;stroke-miterlimit:10;" width="123.729" height="11.984"/>
		</g>
		<g>
			
				<rect x="150.495" y="243.565" style="fill:#D4D4D4;stroke:#000000;stroke-width:0.75;stroke-linecap:round;stroke-linejoin:round;stroke-miterlimit:10;" width="100.433" height="66.85"/>
			
				<path style="fill:#FFFFFF;stroke:#000000;stroke-width:0.75;stroke-linecap:round;stroke-linejoin:round;stroke-miterlimit:10;" d="
				M211.843,264.695h-22.265c-1.929,0-3.493-1.564-3.493-3.493v-2.829c0-1.929,1.564-3.493,3.493-3.493h22.265
				c1.929,0,3.493,1.564,3.493,3.493v2.829C215.336,263.131,213.772,264.695,211.843,264.695z"/>
			<g>
				
					<line style="fill:none;stroke:#000000;stroke-width:0.75;stroke-linecap:round;stroke-linejoin:round;stroke-miterlimit:10;" x1="176.407" y1="274.551" x2="225.015" y2="274.551"/>
				
					<line style="fill:none;stroke:#000000;stroke-width:0.75;stroke-linecap:round;stroke-linejoin:round;stroke-miterlimit:10;" x1="176.407" y1="280.873" x2="225.015" y2="280.873"/>
				
					<line style="fill:none;stroke:#000000;stroke-width:0.75;stroke-linecap:round;stroke-linejoin:round;stroke-miterlimit:10;" x1="176.407" y1="287.195" x2="225.015" y2="287.195"/>
			</g>
			
				<rect x="145.133" y="238.182" style="fill:#D4D4D4;stroke:#000000;stroke-width:0.75;stroke-linecap:round;stroke-linejoin:round;stroke-miterlimit:10;" width="111.155" height="10.766"/>
		</g>
	</g>
	<g>
		<g>
			<g>
				
					<path style="fill:#FFFFFF;stroke:#000000;stroke-width:0.75;stroke-linecap:round;stroke-linejoin:round;stroke-miterlimit:10;" d="
					M579.502,186.651h-38.014c-4.857,0-8.794,3.937-8.794,8.794v15.519v5.428v17.003l8.941-8.209h37.867
					c4.857,0,8.794-3.937,8.794-8.794v-20.947C588.296,190.589,584.359,186.651,579.502,186.651z"/>
			</g>
			<g>
				
					<path style="fill:#FFFFFF;stroke:#000000;stroke-width:0.75;stroke-linecap:round;stroke-linejoin:round;stroke-miterlimit:10;" d="
					M590.456,174.133h-38.014c-4.857,0-8.794,3.937-8.794,8.794v15.519v5.428v17.003l8.941-8.209h37.867
					c4.857,0,8.794-3.937,8.794-8.794v-20.947C599.25,178.07,595.313,174.133,590.456,174.133z"/>
				<g>
					<path d="M562.75,194.099c0,2.112-1.712,3.823-3.823,3.823c-2.112,0-3.823-1.712-3.823-3.823c0-2.112,1.712-3.823,3.823-3.823
						C561.038,190.275,562.75,191.987,562.75,194.099z"/>
					<path d="M576.051,194.099c0,2.112-1.712,3.823-3.823,3.823s-3.823-1.712-3.823-3.823c0-2.112,1.712-3.823,3.823-3.823
						S576.051,191.987,576.051,194.099z"/>
					<path d="M589.352,194.099c0,2.112-1.712,3.823-3.823,3.823c-2.112,0-3.824-1.712-3.824-3.823c0-2.112,1.712-3.823,3.824-3.823
						C587.64,190.275,589.352,191.987,589.352,194.099z"/>
				</g>
			</g>
		</g>
		<g>
			
				<path style="fill:#FFFFFF;stroke:#000000;stroke-width:0.75;stroke-linecap:round;stroke-linejoin:round;stroke-miterlimit:10;" d="
				M529.79,125.448h-32.748c-4.184,0-7.576,3.392-7.576,7.576v13.369v4.676v14.648l7.702-7.072h32.621
				c4.184,0,7.576-3.392,7.576-7.576v-18.045C537.366,128.839,533.974,125.448,529.79,125.448z"/>
			<g>
				<path d="M505.923,142.648c0,1.819-1.475,3.294-3.294,3.294s-3.294-1.475-3.294-3.294c0-1.819,1.475-3.294,3.294-3.294
					S505.923,140.828,505.923,142.648z"/>
				<circle cx="514.087" cy="142.648" r="3.294"/>
				<circle cx="525.545" cy="142.648" r="3.294"/>
			</g>
		</g>
		<g>
			
				<rect x="576.707" y="98.694" style="fill:#FFFFFF;stroke:#000000;stroke-width:0.75;stroke-linecap:round;stroke-linejoin:round;stroke-miterlimit:10;" width="64.352" height="38.506"/>
			
				<polyline style="fill:none;stroke:#000000;stroke-width:0.75;stroke-linecap:round;stroke-linejoin:round;stroke-miterlimit:10;" points="
				576.707,98.694 608.588,126.285 641.059,98.694 			"/>
			
				<line style="fill:none;stroke:#000000;stroke-width:0.75;stroke-linecap:round;stroke-linejoin:round;stroke-miterlimit:10;" x1="576.707" y1="137.199" x2="597.183" y2="116.414"/>
			
				<line style="fill:none;stroke:#000000;stroke-width:0.75;stroke-linecap:round;stroke-linejoin:round;stroke-miterlimit:10;" x1="620.205" y1="116.415" x2="641.059" y2="137.199"/>
		</g>
		<g>
			
				<rect x="149.126" y="61.638" style="fill:#FFFFFF;stroke:#000000;stroke-width:0.75;stroke-linecap:round;stroke-linejoin:round;stroke-miterlimit:10;" width="48.488" height="29.014"/>
			
				<polyline style="fill:none;stroke:#000000;stroke-width:0.75;stroke-linecap:round;stroke-linejoin:round;stroke-miterlimit:10;" points="
				149.126,61.638 173.148,82.428 197.615,61.638 			"/>
			
				<line style="fill:none;stroke:#000000;stroke-width:0.75;stroke-linecap:round;stroke-linejoin:round;stroke-miterlimit:10;" x1="149.126" y1="90.652" x2="164.555" y2="74.991"/>
			
				<line style="fill:none;stroke:#000000;stroke-width:0.75;stroke-linecap:round;stroke-linejoin:round;stroke-miterlimit:10;" x1="181.901" y1="74.991" x2="197.614" y2="90.652"/>
		</g>
	</g>
	<g>
		<g>
			<g>
				
					<path style="fill:#FFFFFF;stroke:#000000;stroke-width:0.75;stroke-linecap:round;stroke-linejoin:round;stroke-miterlimit:10;" d="
					M225.427,221.482c0,8.157,6.613,14.77,14.77,14.77c8.157,0,14.77-6.613,14.77-14.77c0-8.157-6.613-14.77-14.77-14.77
					C232.04,206.712,225.427,213.325,225.427,221.482z M230.863,221.482c0-5.155,4.179-9.333,9.333-9.333
					c5.155,0,9.333,4.178,9.333,9.333s-4.179,9.333-9.333,9.333C235.042,230.815,230.863,226.637,230.863,221.482z"/>
				
					<path style="fill:#FFFFFF;stroke:#000000;stroke-width:0.75;stroke-linecap:round;stroke-linejoin:round;stroke-miterlimit:10;" d="
					M244.878,245.186h30.099c2.929,0,5.304-2.375,5.304-5.304v-36.28c0-2.929-2.375-5.304-5.304-5.304h-30.099
					c-2.929,0-5.304,2.375-5.304,5.304v36.28C239.574,242.811,241.949,245.186,244.878,245.186z"/>
				<polygon style="fill:#ED5D1C;" points="259.927,208.674 255.863,216.525 246.775,217.785 253.351,223.896 251.799,232.526 
					259.927,228.451 268.055,232.526 266.503,223.896 273.079,217.785 263.991,216.525 				"/>
			</g>
			<path style="fill:none;stroke:#000000;stroke-width:0.75;stroke-linecap:round;stroke-linejoin:round;stroke-miterlimit:10;" d="
				M259.285,193.787c11.684-3.59,10.731-20.539,0-28.221c-9.04-6.471-1.446-9.321-4.394-26.646
				c-2.948-17.325-18.783-25.91-37.334-17.457s-21.048,39.388-0.051,48.574c14.994,6.56,23.136-3.413,24.101,12.121
				C242.041,189.144,249.513,196.79,259.285,193.787z"/>
		</g>
		<g>
			<path d="M310.088,270.845h-99.393c-3.713,0-6.723-3.01-6.723-6.723v-12.89c0-3.713,3.01-6.723,6.723-6.723h99.393
				c3.713,0,6.723,3.01,6.723,6.723v12.89C316.811,267.836,313.801,270.845,310.088,270.845z"/>
			<path style="fill:#FFFFFF;" d="M304.625,262.999L304.625,262.999c-2.939,0-5.321-2.382-5.321-5.321l0,0
				c0-2.939,2.382-5.321,5.321-5.321l0,0c2.939,0,5.321,2.382,5.321,5.321l0,0C309.947,260.616,307.564,262.999,304.625,262.999z"/>
			<path style="fill:#D4D4D4;" d="M271.391,263.542h-53.377c-2.174,0-3.936-1.762-3.936-3.936v-3.857
				c0-2.174,1.762-3.936,3.936-3.936h53.377c2.174,0,3.936,1.762,3.936,3.936v3.857C275.327,261.78,273.565,263.542,271.391,263.542
				z"/>
		</g>
		<g>
			<path d="M371.918,262.404h49.507v8.77h-49.507c-2.422,0-4.385-1.963-4.385-4.385l0,0
				C367.533,264.367,369.496,262.404,371.918,262.404z"/>
			<g>
				<path d="M512.15,271.174h-92.439c-2.525,0-4.572-2.047-4.572-4.572v-59.059c0-2.525,2.047-4.572,4.572-4.572h92.439
					c2.525,0,4.572,2.047,4.572,4.572v59.059C516.722,269.128,514.675,271.174,512.15,271.174z"/>
				
					<ellipse transform="matrix(0.923 -0.3848 0.3848 0.923 -55.3936 197.1471)" style="fill:none;stroke:#FFFFFF;stroke-miterlimit:10;" cx="464.977" cy="237.003" rx="8.843" ry="8.843"/>
			</g>
		</g>
		<g>
			
				<rect x="279.943" y="274.026" style="fill:#FFFFFF;stroke:#000000;stroke-width:0.75;stroke-linecap:round;stroke-linejoin:round;stroke-miterlimit:10;" width="9.874" height="182.094"/>
			
				<rect x="541.896" y="274.493" style="fill:#FFFFFF;stroke:#000000;stroke-width:0.75;stroke-linecap:round;stroke-linejoin:round;stroke-miterlimit:10;" width="9.875" height="182.094"/>
			
				<rect x="211.926" y="271.174" style="fill:#FFFFFF;stroke:#000000;stroke-width:0.75;stroke-linecap:round;stroke-linejoin:round;stroke-miterlimit:10;" width="407.861" height="11.234"/>
		</g>
	</g>
</g>
</svg>
