<?xml version="1.0" encoding="utf-8"?>
<!-- Generator: Adobe Illustrator 27.5.0, SVG Export Plug-In . SVG Version: 6.00 Build 0)  -->
<svg version="1.1" xmlns="http://www.w3.org/2000/svg" xmlns:xlink="http://www.w3.org/1999/xlink" x="0px" y="0px"
	 viewBox="0 0 500 500" style="enable-background:new 0 0 500 500;" xml:space="preserve">
<g id="BACKGROUND">
	<rect style="fill:#FFFFFF;" width="500" height="500"/>
</g>
<g id="OBJECTS">
	<g>
		<path style="fill:none;stroke:#D4D4D4;stroke-linecap:round;stroke-linejoin:round;stroke-miterlimit:10;" d="M46.906,385.444
			c0,0,58.642-57.195,129.665-33.735c71.023,23.46,201.339-29.035,200.036-113.231c-1.303-84.196-45.789-49.751-32.017-29.508
			s67.55,21.438,81.385-22.815c13.835-44.253,35.554-43.959,35.554-43.959"/>
		<path style="fill:none;stroke:#D4D4D4;stroke-linecap:round;stroke-linejoin:round;stroke-miterlimit:10;" d="M79.041,70.679
			c0,0,37.059,22.433,25.707,42.152c-9.766,16.964-30.032-16.68,8.842-15.049c38.874,1.631,37.759,37.778,37.759,37.778"/>
		<path style="fill:none;stroke:#D4D4D4;stroke-linecap:round;stroke-linejoin:round;stroke-miterlimit:10;" d="M396.806,310.011
			c0,0,29.321,2.606,34.534-11.729c5.213-14.335-8.471-15.992-11.077-8.322c-2.606,7.67,14.335,17.444,25.412,14.838"/>
		<polygon style="fill:#D4D4D4;" points="70.144,183.594 42.662,186.684 52.255,168.818 		"/>
		<polygon style="fill:#D4D4D4;" points="436.553,240.178 445.675,229.909 451.539,243.076 		"/>
		<polygon style="fill:#D4D4D4;" points="227.588,87.067 222.162,70.736 237.296,75.134 		"/>
		
			<line style="fill:none;stroke:#000000;stroke-linecap:round;stroke-linejoin:round;stroke-miterlimit:10;" x1="56.695" y1="358.22" x2="37.117" y2="354.965"/>
		
			<line style="fill:none;stroke:#000000;stroke-linecap:round;stroke-linejoin:round;stroke-miterlimit:10;" x1="306.869" y1="203.585" x2="320.986" y2="184.734"/>
		
			<line style="fill:none;stroke:#000000;stroke-linecap:round;stroke-linejoin:round;stroke-miterlimit:10;" x1="175.228" y1="82.679" x2="168.791" y2="54.359"/>
		
			<line style="fill:none;stroke:#000000;stroke-linecap:round;stroke-linejoin:round;stroke-miterlimit:10;" x1="338.02" y1="254.75" x2="351.224" y2="251.731"/>
		
			<line style="fill:none;stroke:#000000;stroke-width:0.75;stroke-linecap:round;stroke-linejoin:round;stroke-miterlimit:10;" x1="25.374" y1="426.081" x2="467.706" y2="426.081"/>
	</g>
	<g>
		<path style="fill:#FFFFFF;" d="M416.219,56.755c-34.332,23.484-64.062,49.891-74.982,67.536
			c-8.295,13.403-8.161,20.629-3.216,22.608c7.248,2.902,21.074-15.185,21.074-15.185s-0.63,12.173,7.407,10.813l-0.226,0.161
			c0,0,2.229,6.688,10.475,6.354c0.589-0.024,1.169-0.108,1.742-0.224c0.02,0.042,3.506,7.534,10.69,5.618
			c3.126-0.834,5.562-2.77,7.249-5.057c0.001,0,29.452-12,60.609-34.67L416.219,56.755z"/>
		<g>
			<path style="fill:none;stroke:#000000;stroke-linecap:round;stroke-linejoin:round;stroke-miterlimit:10;" d="M375.728,113
				c0,0-12.082,23.747-3.226,27.737c8.856,3.989,15.232-16.267,15.232-16.267s6.487,0.607,11.732-7.213"/>
			<path style="fill:none;stroke:#000000;stroke-linecap:round;stroke-linejoin:round;stroke-miterlimit:10;" d="M366.276,142.688
				c0,0,2.229,6.688,10.475,6.355c8.247-0.333,15.219-10.243,15.153-15.022c-0.053-3.803-3.205-5.437-5.698-5.493"/>
			<path style="fill:none;stroke:#000000;stroke-linecap:round;stroke-linejoin:round;stroke-miterlimit:10;" d="M378.492,148.814
				c0,0,3.488,7.543,10.692,5.622c7.204-1.922,10.758-9.689,9.874-14.155c-0.856-4.327-4.41-5.806-7.114-5.349"/>
			
				<line style="fill:none;stroke:#000000;stroke-linecap:round;stroke-linejoin:round;stroke-miterlimit:10;" x1="367.112" y1="125.185" x2="371.218" y2="123.079"/>
			<path style="fill:none;stroke:#000000;stroke-linecap:round;stroke-linejoin:round;stroke-miterlimit:10;" d="M410.67,60.6
				c-31.957,22.478-59.105,47.004-69.433,63.692c-8.295,13.403-8.161,20.629-3.216,22.608c7.248,2.902,21.074-15.185,21.074-15.185
				s-0.882,16.967,12.651,8.61"/>
			<path style="fill:none;stroke:#000000;stroke-linecap:round;stroke-linejoin:round;stroke-miterlimit:10;" d="M396.433,149.379
				c0,0,30.529-12.436,62.304-35.91"/>
		</g>
		<g>
			<path style="fill:#ED5D1C;stroke:#000000;stroke-linecap:round;stroke-linejoin:round;stroke-miterlimit:10;" d="M424.082,51.49
				c-11.718,7.705-23.042,15.831-33.432,23.951c0.048,0.035,29.72,21.754,50.609,50.013c9.627-6.135,19.929-13.429,29.972-21.803
				C457.043,76.582,436.33,59.726,424.082,51.49z"/>
			<path style="fill:none;stroke:#000000;stroke-linecap:round;stroke-linejoin:round;stroke-miterlimit:10;" d="M407.803,66.595
				c0,0,21.833,13.138,43.304,45.853"/>
			
				<circle style="fill:none;stroke:#000000;stroke-linecap:round;stroke-linejoin:round;stroke-miterlimit:10;" cx="406.875" cy="76.599" r="3.801"/>
		</g>
	</g>
	<g>
		<g>
			
				<ellipse transform="matrix(0.9925 -0.1224 0.1224 0.9925 -18.8712 31.6254)" style="fill:#FFFFFF;stroke:#000000;stroke-linecap:round;stroke-linejoin:round;stroke-miterlimit:10;" cx="248.029" cy="169.445" rx="40.752" ry="40.752"/>
			<path d="M288.602,173.263c2.109-22.408-14.346-42.282-36.754-44.391c-2.39-0.225-4.75-0.232-7.064-0.049
				c-1.007-0.144-2.85-0.054-5.806,0.36c-20.048,2.809-33.413,21.158-28.447,23.961c4.966,2.803,15.16-11.319,15.16-11.319
				c-0.284,1.543-6.708,9.943-1.2,11.732c4.682,1.522,10.985-11.891,10.985-11.891s-4.405,10.736-0.111,12.854
				c4.293,2.118,7.679-9.63,7.679-9.63s-3.168,12.848,8.11,18.678s15.014,5.168,15.014,5.168s-0.001-0.01-0.001-0.011
				c3.195,0.929,6.683,1.629,10.512,2.006l-4.262,31.362C281.315,195.441,287.478,185.197,288.602,173.263z"/>
			<g>
				<path style="fill:#FFFFFF;" d="M284.904,174.848c-0.523,5.556-5.451,9.636-11.007,9.113c-5.556-0.523-9.636-5.451-9.113-11.007
					c0.523-5.556,5.451-9.636,11.007-9.113C281.347,164.364,285.427,169.292,284.904,174.848z"/>
				<path style="fill:none;stroke:#000000;stroke-linecap:round;stroke-linejoin:round;stroke-miterlimit:10;" d="M267.699,173.229
					c0.371-3.946,3.871-6.844,7.817-6.472c3.946,0.371,6.843,3.871,6.472,7.817c-0.371,3.946-3.871,6.843-7.817,6.472"/>
			</g>
			
				<ellipse transform="matrix(0.9571 -0.2897 0.2897 0.9571 -19.2457 89.2726)" cx="291.923" cy="109.645" rx="26.599" ry="26.599"/>
		</g>
		<g>
			<path d="M245.943,166.901c-0.22,2.343-1.832,4.107-3.6,3.941c-1.768-0.166-3.022-2.2-2.801-4.543
				c0.22-2.343,1.832-4.107,3.6-3.94C244.909,162.525,246.163,164.559,245.943,166.901z"/>
			<path d="M223.262,159.946c-0.206,2.194-1.716,3.846-3.371,3.69c-1.655-0.156-2.83-2.061-2.623-4.254
				c0.206-2.194,1.716-3.846,3.371-3.69C222.294,155.847,223.469,157.752,223.262,159.946z"/>
			<polyline style="fill:none;stroke:#000000;stroke-linecap:round;stroke-linejoin:round;stroke-miterlimit:10;" points="
				232.391,155.733 223.95,165.914 231.605,168.523 			"/>
			<path style="fill:none;stroke:#000000;stroke-linecap:round;stroke-linejoin:round;stroke-miterlimit:10;" d="M220.985,176.057
				c0,0,7.179,0.346,11.956,1.695"/>
			<path style="fill:#ED5D1C;" d="M256.186,181.001c-1.914,3.601-6.384,4.968-9.984,3.054c-3.601-1.914-4.968-6.384-3.054-9.984
				c1.914-3.601,6.384-4.968,9.984-3.054C256.732,172.93,258.1,177.4,256.186,181.001z"/>
			<path style="fill:#ED5D1C;" d="M217.646,171.125c1.633-3.073,0.466-6.889-2.607-8.522c-2.269-1.206-4.937-0.877-6.838,0.61
				c-0.155,0.935-0.315,1.869-0.405,2.822c-0.212,2.247-0.194,4.478-0.034,6.685c0.405,0.384,0.845,0.738,1.362,1.013
				C212.197,175.365,216.013,174.198,217.646,171.125z"/>
		</g>
		<g>
			<g>
				<path style="fill:#FFFFFF;" d="M245.341,181.894c-0.955-9.502-33.228-3.899-33.228-3.899
					c30.838-9.215,28.476-19.395,22.895-24.219c-2.08-1.798-3.634-2.342-8.711-1.054l0.4-0.617c0.851-2.556,0.178-6.699-4.047-8.889
					c-3.947-2.046-15.222,0.618-25.788,4.123c0.391-0.727,5.397-9.911-2.279-12.062c-7.951-2.228-70.642,30.987-94.841,49.262
					c-18.438,13.924-69.632,59.19-38.324,105.883s133.13,17.6,133.13,17.6s40.024-55.911,35.365-59.302
					c-4.642-3.378-72.817-4.971-73.323-4.983c18.045-19.926,47.367-30.343,56.12-31.939c10.442-1.904,26.149-2.725,25.889-10.62
					c-0.186-5.66-7.863-6.811-12.197-7.009C245.41,194.07,246.05,188.943,245.341,181.894z M223.501,194.16l-0.002-0.002
					c0.01,0,0.021,0,0.031,0.001C223.517,194.159,223.501,194.16,223.501,194.16z"/>
				<g>
					<defs>
						<path id="SVGID_1_" d="M156.591,243.736c5.124-5.658,11.158-10.548,17.372-14.688l-42.737-64.692
							c-12.374,7.16-23.846,14.415-31.483,20.183c-18.438,13.924-69.632,59.19-38.324,105.883s133.13,17.6,133.13,17.6
							s40.024-55.911,35.365-59.302C225.272,245.342,157.097,243.748,156.591,243.736z"/>
					</defs>
					<clipPath id="SVGID_00000106855571735628425710000012913739783091082395_">
						<use xlink:href="#SVGID_1_"  style="overflow:visible;"/>
					</clipPath>
					<g style="clip-path:url(#SVGID_00000106855571735628425710000012913739783091082395_);">
						<path style="fill:none;stroke:#ED5D1C;stroke-linecap:round;stroke-linejoin:round;stroke-miterlimit:10;" d="
							M161.493,285.044c-1.785-3.337-4.815-5.727-8.431-6.615c-7.033-1.728-14.119,2.767-15.795,10.02
							c-1.676,7.252,2.684,14.558,9.717,16.286c3.987,0.979,8.153-0.016,11.312-2.664c1.785,3.337,4.816,5.727,8.43,6.615
							c7.033,1.728,14.119-2.767,15.794-10.02c1.676-7.252-2.683-14.558-9.716-16.286
							C168.817,281.401,164.651,282.396,161.493,285.044z"/>
						<path style="fill:none;stroke:#ED5D1C;stroke-linecap:round;stroke-linejoin:round;stroke-miterlimit:10;" d="M98.915,302.183
							c-1.785-3.337-4.816-5.727-8.431-6.615c-7.033-1.728-14.119,2.767-15.795,10.02c-1.676,7.252,2.684,14.558,9.717,16.286
							c3.987,0.979,8.153-0.016,11.312-2.664c1.785,3.337,4.815,5.727,8.43,6.615c7.034,1.728,14.119-2.767,15.795-10.02
							c1.676-7.252-2.683-14.558-9.716-16.286C106.239,298.539,102.073,299.535,98.915,302.183z"/>
						<path style="fill:none;stroke:#ED5D1C;stroke-linecap:round;stroke-linejoin:round;stroke-miterlimit:10;" d="M105.61,240.671
							c-1.785-3.337-4.816-5.727-8.431-6.615c-7.033-1.728-14.119,2.767-15.795,10.02c-1.676,7.252,2.684,14.558,9.717,16.286
							c3.987,0.979,8.153-0.016,11.312-2.664c1.785,3.337,4.815,5.727,8.43,6.615c7.034,1.728,14.119-2.767,15.795-10.019
							c1.676-7.252-2.683-14.558-9.716-16.286C112.935,237.027,108.769,238.022,105.61,240.671z"/>
						<path style="fill:none;stroke:#ED5D1C;stroke-linecap:round;stroke-linejoin:round;stroke-miterlimit:10;" d="
							M150.107,203.043c-1.785-3.337-4.816-5.727-8.431-6.615c-7.033-1.728-14.119,2.767-15.795,10.02
							c-1.676,7.252,2.684,14.558,9.717,16.286c3.987,0.979,8.153-0.016,11.312-2.664c1.785,3.337,4.816,5.727,8.43,6.615
							c7.034,1.728,14.119-2.767,15.795-10.019c1.676-7.252-2.683-14.558-9.716-16.286
							C157.431,199.4,153.265,200.395,150.107,203.043z"/>
						<path style="fill:none;stroke:#ED5D1C;stroke-linecap:round;stroke-linejoin:round;stroke-miterlimit:10;" d="M86.563,187.546
							c-1.785-3.337-4.816-5.727-8.431-6.615c-7.033-1.728-14.119,2.767-15.795,10.02c-1.676,7.252,2.684,14.558,9.717,16.286
							c3.987,0.98,8.153-0.016,11.312-2.664c1.785,3.337,4.815,5.727,8.43,6.615c7.033,1.728,14.119-2.767,15.794-10.02
							c1.676-7.252-2.683-14.558-9.716-16.286C93.888,183.902,89.722,184.897,86.563,187.546z"/>
						<path style="fill:none;stroke:#ED5D1C;stroke-linecap:round;stroke-linejoin:round;stroke-miterlimit:10;" d="M40.593,260.301
							c-1.785-3.337-4.816-5.727-8.431-6.615c-7.033-1.728-14.119,2.767-15.795,10.019c-1.676,7.252,2.684,14.558,9.717,16.286
							c3.987,0.979,8.153-0.016,11.312-2.664c1.785,3.337,4.816,5.727,8.43,6.615c7.033,1.728,14.119-2.767,15.794-10.02
							c1.676-7.252-2.683-14.558-9.716-16.286C47.917,256.658,43.751,257.653,40.593,260.301z"/>
						<path style="fill:none;stroke:#ED5D1C;stroke-linecap:round;stroke-linejoin:round;stroke-miterlimit:10;" d="
							M152.768,248.318c1.145-0.495,2.229-1.16,3.214-1.986c1.785,3.337,4.815,5.727,8.43,6.615
							c6.522,1.602,13.089-2.146,15.345-8.483"/>
					</g>
				</g>
				<g>
					<path style="fill:none;stroke:#000000;stroke-linecap:round;stroke-linejoin:round;stroke-miterlimit:10;" d="M180.45,154.472
						c0,0,35.099-17.565,43.04-10.671c3.593,3.12,4.059,5.749,3.209,8.305"/>
					<path style="fill:none;stroke:#000000;stroke-linecap:round;stroke-linejoin:round;stroke-miterlimit:10;" d="M196.863,164.533
						c0,0,29.082-15.931,37.436-11.201c7.406,4.194,7.337,16.588-22.186,24.663c0,0,33.228-7.068,33.629,4.796
						c0.285,8.423-2.049,12.431-31.812,11.083"/>
					<path style="fill:none;stroke:#000000;stroke-linecap:round;stroke-linejoin:round;stroke-miterlimit:10;" d="M223.501,194.16
						c0,0,14.84-0.878,15.1,7.018c0.26,7.895-15.448,8.716-25.889,10.62c-10.117,1.845-47.726,15.464-63.623,41.943"/>
					<path style="fill:none;stroke:#000000;stroke-linecap:round;stroke-linejoin:round;stroke-miterlimit:10;" d="M156.58,243.736
						c0,0,68.675,1.593,73.334,4.983c4.659,3.391-35.365,59.302-35.365,59.302s-101.822,29.093-133.13-17.6
						s19.886-91.959,38.324-105.883c24.2-18.275,86.89-51.49,94.841-49.262c7.951,2.228,1.506,12.357,1.506,12.357"/>
				</g>
				<g>
					<path style="fill:#D4D4D4;stroke:#000000;stroke-linecap:round;stroke-linejoin:round;stroke-miterlimit:10;" d="
						M165.778,235.069c4.694-3.828,9.703-7.182,14.672-10.06c0,0,0,0,0,0c-26.42-23.101-35.211-68.511-35.211-68.511l0,0
						c-4.795,2.606-9.616,5.309-14.304,8.026C132.896,200.201,155.917,225.709,165.778,235.069z"/>
					
						<line style="fill:none;stroke:#000000;stroke-linecap:round;stroke-linejoin:round;stroke-miterlimit:10;" x1="134.314" y1="169.921" x2="146.806" y2="163.126"/>
					
						<line style="fill:none;stroke:#000000;stroke-linecap:round;stroke-linejoin:round;stroke-miterlimit:10;" x1="139.431" y1="188.457" x2="152.355" y2="180.561"/>
					
						<line style="fill:none;stroke:#000000;stroke-linecap:round;stroke-linejoin:round;stroke-miterlimit:10;" x1="149.961" y1="208.038" x2="161.699" y2="200.934"/>
					
						<line style="fill:none;stroke:#000000;stroke-linecap:round;stroke-linejoin:round;stroke-miterlimit:10;" x1="159.894" y1="223.935" x2="172.01" y2="216.242"/>
				</g>
			</g>
			<g>
				<path style="fill:#FFFFFF;" d="M327.114,379.095c0,0-9.521,52.548,70.253,39.668c3.848-3.416,6.64-7.652,7.733-12.91
					c11.501-55.334-15.53-82.781-60.173-117.017c-58.208-44.638-82.026-37.011-82.026-37.011L327.114,379.095L327.114,379.095z"/>
				<g>
					<defs>
						<path id="SVGID_00000146467153649227147790000013292918127767681921_" d="M327.114,379.095c0,0,10.548,40.753,70.253,39.668
							c3.848-3.416,6.64-7.652,7.733-12.91c11.501-55.334-15.53-82.781-60.173-117.017c-58.208-44.638-82.026-37.011-82.026-37.011
							L327.114,379.095L327.114,379.095z"/>
					</defs>
					<clipPath id="SVGID_00000181068797058245723480000017150392432338713529_">
						<use xlink:href="#SVGID_00000146467153649227147790000013292918127767681921_"  style="overflow:visible;"/>
					</clipPath>
					<g style="clip-path:url(#SVGID_00000181068797058245723480000017150392432338713529_);">
						<path style="fill:none;stroke:#ED5D1C;stroke-linecap:round;stroke-linejoin:round;stroke-miterlimit:10;" d="
							M353.885,285.044c-1.785-3.337-4.816-5.727-8.431-6.615c-7.033-1.728-14.119,2.767-15.795,10.02
							c-1.676,7.252,2.684,14.558,9.717,16.286c3.987,0.979,8.153-0.016,11.312-2.664c1.785,3.337,4.815,5.727,8.43,6.615
							c7.034,1.728,14.119-2.767,15.794-10.02c1.676-7.252-2.683-14.558-9.716-16.286
							C361.21,281.401,357.043,282.396,353.885,285.044z"/>
						<path style="fill:none;stroke:#ED5D1C;stroke-linecap:round;stroke-linejoin:round;stroke-miterlimit:10;" d="
							M340.233,335.577c-1.785-3.337-4.815-5.727-8.431-6.615c-7.033-1.728-14.119,2.767-15.795,10.02
							c-1.676,7.252,2.684,14.558,9.717,16.286c3.987,0.979,8.153-0.016,11.312-2.664c1.785,3.337,4.816,5.727,8.431,6.615
							c7.034,1.728,14.119-2.767,15.794-10.02c1.676-7.252-2.683-14.558-9.716-16.286
							C347.557,331.933,343.391,332.928,340.233,335.577z"/>
						<path style="fill:none;stroke:#ED5D1C;stroke-linecap:round;stroke-linejoin:round;stroke-miterlimit:10;" d="
							M409.347,329.431c-1.785-3.337-4.815-5.727-8.431-6.615c-7.033-1.728-14.119,2.767-15.795,10.02
							c-1.676,7.252,2.684,14.558,9.717,16.286c3.987,0.979,8.153-0.016,11.312-2.664c1.785,3.337,4.815,5.727,8.43,6.615
							c7.034,1.728,14.119-2.767,15.794-10.02c1.676-7.252-2.683-14.558-9.716-16.286
							C416.671,325.787,412.505,326.782,409.347,329.431z"/>
					</g>
				</g>
				<g>
					<path style="fill:none;stroke:#000000;stroke-linecap:round;stroke-linejoin:round;stroke-miterlimit:10;" d="M262.9,251.825
						c0,0,23.818-7.627,82.026,37.011c44.644,34.236,71.674,61.683,60.173,117.017"/>
				</g>
			</g>
			<g>
				<path style="fill:#FFFFFF;" d="M312.219,283.526c0,0,26.402,43.602,17.594,142.555H147.25c0,0-2.601-106.265,35.406-148.742
					c0,0,30.434-39.167,71.878-31.156S312.219,283.526,312.219,283.526z"/>
				<g>
					<defs>
						<path id="SVGID_00000072249202916048880640000017624750104301690808_" d="M312.219,283.526c0,0-1.296-2.339-4.087-5.875
							c1.201-3.256,2.088-5.924,2.014-6.517c-0.217-1.737-8.834-11.205-16.372-11.652c-1.686-0.1-3.437,0.078-5.159,0.407
							c-8.643-5.713-19.881-10.961-34.081-13.706c-15.681-3.031-29.783,0.694-41.26,6.493c-2.896-2.736-5.891-5.087-8.251-5.838
							c-6.733-2.141-21.285,2.793-23.171,10.232c-1.22,4.81,1.923,11.87,4.298,16.262c-2.276,2.439-3.495,4.006-3.495,4.006
							c-38.006,42.477-35.406,148.742-35.406,148.742h182.563C338.62,327.128,312.219,283.526,312.219,283.526z"/>
					</defs>
					<clipPath id="SVGID_00000021080832060480789210000018248051062990264971_">
						<use xlink:href="#SVGID_00000072249202916048880640000017624750104301690808_"  style="overflow:visible;"/>
					</clipPath>
					<g style="clip-path:url(#SVGID_00000021080832060480789210000018248051062990264971_);">
						<path style="fill:none;stroke:#ED5D1C;stroke-linecap:round;stroke-linejoin:round;stroke-miterlimit:10;" d="
							M171.171,343.196c-1.785-3.337-4.815-5.727-8.431-6.615c-7.033-1.728-14.119,2.767-15.795,10.02
							c-1.676,7.252,2.684,14.558,9.717,16.286c3.987,0.979,8.153-0.016,11.312-2.664c1.785,3.337,4.816,5.727,8.43,6.615
							c7.034,1.728,14.119-2.767,15.795-10.02c1.676-7.252-2.683-14.558-9.716-16.286
							C178.496,339.552,174.33,340.548,171.171,343.196z"/>
						<path style="fill:none;stroke:#ED5D1C;stroke-linecap:round;stroke-linejoin:round;stroke-miterlimit:10;" d="
							M216.915,304.581c-1.785-3.337-4.815-5.727-8.431-6.615c-7.033-1.728-14.119,2.767-15.795,10.02
							c-1.676,7.252,2.684,14.558,9.717,16.286c3.987,0.979,8.153-0.016,11.312-2.664c1.785,3.337,4.816,5.727,8.43,6.615
							c7.034,1.728,14.119-2.767,15.794-10.02c1.676-7.252-2.683-14.558-9.716-16.286
							C224.24,300.938,220.074,301.933,216.915,304.581z"/>
						<path style="fill:none;stroke:#ED5D1C;stroke-linecap:round;stroke-linejoin:round;stroke-miterlimit:10;" d="M284.37,263.946
							c-1.785-3.337-4.815-5.727-8.431-6.615c-7.033-1.728-14.119,2.767-15.795,10.02c-1.676,7.252,2.684,14.558,9.717,16.286
							c3.987,0.98,8.153-0.016,11.312-2.664c1.785,3.337,4.815,5.727,8.43,6.615c7.034,1.728,14.119-2.767,15.794-10.02
							c1.676-7.252-2.683-14.558-9.716-16.286C291.695,260.302,287.529,261.298,284.37,263.946z"/>
						<path style="fill:none;stroke:#ED5D1C;stroke-linecap:round;stroke-linejoin:round;stroke-miterlimit:10;" d="M264.499,351.07
							c-1.785-3.337-4.815-5.727-8.431-6.615c-7.033-1.728-14.119,2.767-15.795,10.02c-1.676,7.252,2.684,14.558,9.717,16.286
							c3.987,0.979,8.153-0.016,11.312-2.664c1.785,3.337,4.816,5.727,8.43,6.615c7.033,1.728,14.119-2.767,15.794-10.02
							c1.676-7.252-2.683-14.558-9.716-16.286C271.824,347.426,267.658,348.421,264.499,351.07z"/>
						<path style="fill:none;stroke:#ED5D1C;stroke-linecap:round;stroke-linejoin:round;stroke-miterlimit:10;" d="
							M315.706,315.873c-1.785-3.337-4.815-5.727-8.431-6.615c-7.033-1.728-14.119,2.767-15.795,10.02
							c-1.676,7.252,2.684,14.558,9.717,16.286c3.987,0.979,8.153-0.016,11.312-2.664c1.785,3.337,4.816,5.727,8.43,6.615
							c7.033,1.728,14.119-2.767,15.794-10.02c1.676-7.252-2.683-14.558-9.716-16.286
							C323.031,312.229,318.865,313.225,315.706,315.873z"/>
						<path style="fill:none;stroke:#ED5D1C;stroke-linecap:round;stroke-linejoin:round;stroke-miterlimit:10;" d="
							M332.955,382.276c-1.785-3.337-4.815-5.727-8.431-6.615c-7.033-1.728-14.119,2.767-15.795,10.02
							c-1.676,7.252,2.684,14.558,9.717,16.286c3.987,0.979,8.153-0.016,11.312-2.664c1.785,3.337,4.816,5.727,8.43,6.615
							c7.033,1.728,14.119-2.767,15.794-10.02c1.676-7.253-2.683-14.558-9.716-16.286
							C340.28,378.632,336.114,379.627,332.955,382.276z"/>
						<path style="fill:none;stroke:#ED5D1C;stroke-linecap:round;stroke-linejoin:round;stroke-miterlimit:10;" d="
							M216.915,394.399c-1.785-3.337-4.815-5.727-8.431-6.615c-7.033-1.728-14.119,2.767-15.795,10.02
							c-1.676,7.252,2.684,14.558,9.717,16.286c3.987,0.979,8.153-0.016,11.312-2.664c1.785,3.337,4.816,5.727,8.43,6.615
							c7.034,1.728,14.119-2.767,15.794-10.02c1.676-7.252-2.683-14.558-9.716-16.286
							C224.24,390.755,220.074,391.751,216.915,394.399z"/>
						<path style="fill:none;stroke:#ED5D1C;stroke-linecap:round;stroke-linejoin:round;stroke-miterlimit:10;" d="
							M146.702,417.274c-1.785-3.337-4.815-5.727-8.431-6.615c-7.033-1.728-14.119,2.767-15.795,10.02
							c-1.676,7.252,2.684,14.558,9.717,16.286c3.987,0.98,8.153-0.016,11.312-2.664c1.785,3.337,4.815,5.727,8.43,6.615
							c7.033,1.728,14.119-2.767,15.794-10.02c1.676-7.252-2.683-14.558-9.716-16.286
							C154.027,413.63,149.861,414.625,146.702,417.274z"/>
						<path style="fill:none;stroke:#ED5D1C;stroke-linecap:round;stroke-linejoin:round;stroke-miterlimit:10;" d="M211.57,255.977
							c-1.785-3.337-4.815-5.727-8.431-6.615c-7.033-1.728-14.119,2.767-15.795,10.02c-1.676,7.252,2.684,14.558,9.717,16.286
							c3.987,0.979,8.153-0.016,11.312-2.664c1.785,3.337,4.815,5.727,8.43,6.615c7.034,1.728,14.119-2.767,15.795-10.02
							c1.676-7.252-2.683-14.558-9.716-16.286C218.895,252.333,214.729,253.328,211.57,255.977z"/>
					</g>
				</g>
				<path style="fill:none;stroke:#000000;stroke-linecap:round;stroke-linejoin:round;stroke-miterlimit:10;" d="M312.219,283.526
					c0,0,26.402,43.602,17.594,142.555H147.25c0,0-2.601-106.265,35.406-148.742"/>
			</g>
			<g>
				<path style="fill:#D4D4D4;stroke:#000000;stroke-linecap:round;stroke-linejoin:round;stroke-miterlimit:10;" d="
					M256.102,265.365c-9.562-0.875-34.093-3.644-39.757-24.152c-6.374-23.082,17.954-33.718,42.977-20.968
					c12.537,6.388,33.983-1.843,37.14,15.048C299.552,251.823,280.057,267.558,256.102,265.365z"/>
				<g>
					<path style="fill:none;stroke:#000000;stroke-linecap:round;stroke-linejoin:round;stroke-miterlimit:10;" d="M226.697,226.452
						c0,0,18.507,30.774,60.643,8.84"/>
					<path style="fill:none;stroke:#000000;stroke-linecap:round;stroke-linejoin:round;stroke-miterlimit:10;" d="M231.787,232.458
						c0,0-5.982,4.565-10.705,10.721"/>
					<path style="fill:none;stroke:#000000;stroke-linecap:round;stroke-linejoin:round;stroke-miterlimit:10;" d="M240.039,238.479
						c0,0-5.931,6.045-10.591,14.761"/>
					<path style="fill:none;stroke:#000000;stroke-linecap:round;stroke-linejoin:round;stroke-miterlimit:10;" d="M253.784,243.18
						c0,0-2.477,10.986-2.769,16.302"/>
					<path style="fill:none;stroke:#000000;stroke-linecap:round;stroke-linejoin:round;stroke-miterlimit:10;" d="M267.222,242.434
						c0,0,2.526,6.003,3.178,14.636"/>
					<path style="fill:none;stroke:#000000;stroke-linecap:round;stroke-linejoin:round;stroke-miterlimit:10;" d="M280.157,238.479
						c0,0,3.542,5.844,5.228,12.207"/>
				</g>
			</g>
			<g>
				<path style="fill:#FFFFFF;" d="M315.35,389.053c-5.023-2.101-28.88-1.346-28.88-1.346l0,0
					c-18.841,0.345-38.887,3.268-53.989,8.062c-16.124,5.118-34.251,21.235-32.743,32.195c1.5,10.911,9.733,6.985,9.807,6.949
					c2.125,3.813,7.277,4.983,11.985,2.702l0.001-0.002c2.497,2.151,6.604,2.568,10.747,0.695c2.454,3.499,8.54,4.641,18.02-0.095
					c18.991-9.488,45.638-5.394,45.638-5.394s50.917,2.442,56.124-22.608c0.085-0.408,0.148-0.801,0.228-1.205
					C341.579,401.105,319.927,390.967,315.35,389.053z"/>
				<g>
					<path style="fill:none;stroke:#000000;stroke-linecap:round;stroke-linejoin:round;stroke-miterlimit:10;" d="M352.058,410.212
						c-5.207,25.051-56.124,22.608-56.124,22.608s-26.647-4.094-45.638,5.394c-18.991,9.488-24.367-4.609-14.19-14.001
						c10.178-9.392,22.964-9.677,22.964-9.677"/>
					<path style="fill:none;stroke:#000000;stroke-linecap:round;stroke-linejoin:round;stroke-miterlimit:10;" d="M250.076,410.212
						c0,0-21.034,1.795-28.413,14.001c-7.011,11.597,1.722,18.116,10.614,14.096"/>
					<path style="fill:none;stroke:#000000;stroke-linecap:round;stroke-linejoin:round;stroke-miterlimit:10;" d="M239.069,405.459
						c0,0-21.005,4.144-28.348,17.843c-6.489,12.105,2.806,18.19,10.808,14.314"/>
					<path style="fill:none;stroke:#000000;stroke-linecap:round;stroke-linejoin:round;stroke-miterlimit:10;" d="M209.547,434.912
						c0,0-8.304,4.012-9.811-6.948c-1.507-10.96,16.62-27.077,32.743-32.195c22.012-6.987,64.354-11.746,89.535-5.336"/>
				</g>
			</g>
		</g>
	</g>
	<g>
		<g>
			<g>
				<path style="fill:#FFFFFF;stroke:#000000;stroke-linecap:round;stroke-linejoin:round;stroke-miterlimit:10;" d="
					M55.504,415.183c0,11.469,9.297,20.766,20.766,20.766c11.469,0,20.766-9.298,20.766-20.766c0-11.469-9.297-20.766-20.766-20.766
					C64.801,394.417,55.504,403.714,55.504,415.183z M63.147,415.183c0-7.247,5.875-13.122,13.123-13.122
					c7.247,0,13.123,5.875,13.123,13.122c0,7.247-5.875,13.123-13.123,13.123C69.023,428.305,63.147,422.43,63.147,415.183z"/>
				<path style="fill:#FFFFFF;stroke:#000000;stroke-linecap:round;stroke-linejoin:round;stroke-miterlimit:10;" d="M86.789,448.51
					h34.445c6.293,0,11.394-5.101,11.394-11.394V393.98c0-6.293-5.101-11.394-11.394-11.394H86.789
					c-6.293,0-11.394,5.102-11.394,11.394v43.135C75.394,443.409,80.496,448.51,86.789,448.51z"/>
			</g>
			<path style="fill:none;stroke:#000000;stroke-linecap:round;stroke-linejoin:round;stroke-miterlimit:10;" d="M115.573,373.034
				c17-5.224,15.613-29.884,0-41.061c-13.153-9.416-2.104-13.562-6.393-38.769c-4.29-25.207-27.329-37.698-54.32-25.399
				c-26.991,12.298-30.624,57.308-0.074,70.674c21.816,9.544,33.661-4.966,35.066,17.635
				C90.484,366.279,101.355,377.403,115.573,373.034z"/>
			<g>
				<path style="fill:#ED5D1C;" d="M107.01,433.453c-1.641,1.044-3.759,0.989-5.354-0.123c-5.702-3.975-18.55-14.193-17.724-25.057
					c0.906-11.933,15.671-10.231,20.878-0.006c0,0,5.132-9.603,13.585-8.365C127.784,401.276,129.7,419.016,107.01,433.453z"/>
				<g>
					<ellipse cx="93.292" cy="414.229" rx="1.721" ry="2.767"/>
					<ellipse cx="114.08" cy="414.229" rx="1.721" ry="2.767"/>
				</g>
				<path style="fill:none;stroke:#000000;stroke-linecap:round;stroke-linejoin:round;stroke-miterlimit:10;" d="M108.565,414.636
					c0,2.885-1.843,5.224-4.118,5.224s-4.118-2.339-4.118-5.224"/>
			</g>
		</g>
		<g>
			<path d="M418.461,447.021l-105.937,0.194c-10.997,0.02-16.683-8.514-12.699-19.061l27.769-73.526
				c3.983-10.547,16.128-19.113,27.125-19.133l105.937-0.193c10.997-0.02,16.683,8.513,12.699,19.06l-27.769,73.526
				C441.602,438.434,429.458,447.001,418.461,447.021z"/>
			<path style="fill:#FFFFFF;" d="M402.471,385.429c-1.242,4.669-6.032,8.461-10.699,8.469c-4.667,0.009-7.443-3.77-6.201-8.439
				c1.242-4.669,6.032-8.461,10.699-8.47C400.936,376.982,403.713,380.76,402.471,385.429z"/>
			<path d="M235.738,444.684l-0.021-10.774c-0.003-1.4,1.13-2.538,2.531-2.54l106.732-0.195c1.4-0.003,2.537,1.131,2.54,2.531
				l0.019,10.775c0.002,1.4-1.131,2.538-2.531,2.54l-106.73,0.195C236.878,447.217,235.74,446.084,235.738,444.684"/>
		</g>
	</g>
</g>
</svg>
