<svg width="44" height="44" viewBox="0 0 44 44" fill="none" xmlns="http://www.w3.org/2000/svg">
<path d="M25.8 34.1077C22.3 32.7681 18.7 32.5621 15.4 33.4895C13.1 34.1077 10.9 35.3443 8.90002 36.8899L7.5 38.1265L7.10001 38.5387L8 39.363C8.1 39.363 8.10001 39.4661 8.20001 39.5691C8.40001 39.7752 8.60002 39.8782 8.90002 40.0843L9.5 40.4965L10.1 39.9813C10.2 39.8782 10.4 39.6721 10.6 39.5691C12.4 38.0234 14.4 36.993 16.5 36.4778C19.2 35.7564 22.1 35.8595 25 36.993C27.4 37.9204 32.3 39.0539 38.2 36.4778L38.4 36.3747L38.7 36.0656C38.7 35.9625 38.8 35.9625 38.9 35.8595C39.4 35.2412 39.9 34.623 40.3 33.9016L42.3 30.7073L39.1 32.562C34.4 35.2412 30.1 35.7564 25.8 34.1077Z" fill="white"/>
<path d="M12.1 22.9789C14.8 22.2576 17.7 22.3606 20.6 23.4941C23.8 24.7307 32 26.4824 41.2 17.9297L42.7 16.3841L42.8 16.281L43.2 15.8688L43 15.3536C42.9 14.9414 42.7 14.4262 42.5 13.911L42 12.4684L41 13.4988C40.9 13.7049 40.7 13.8079 40.5 14.014C36.1 18.651 29.3 23.3911 21.5 20.5059C18 19.1663 14.4 18.9602 11.1 19.8876C7.90001 20.815 5.1 22.5667 2.5 25.0398V24.9368L1 26.5855C1 26.6885 0.900018 26.6885 0.800018 26.7916L0.5 27.1007L0.600006 27.5129C0.700006 28.0281 0.9 28.5433 1 29.0585L1.60001 30.7073L2.60001 29.3677C2.70001 29.1616 2.9 29.0586 3 28.8525C5.1 26.8946 8.00001 24.1124 12.1 22.9789Z" fill="white"/>
<path d="M2.40002 21.1241C4.70002 18.6511 7.30001 17.1054 10.1 16.281C12.8 15.5597 15.7 15.6628 18.6 16.7962C27.6 20.1967 35.4 14.6323 38.8 11.644L40.1 10.3045L40.6 9.89225L40.2 9.27401C39.9 8.96488 39.7 8.55269 39.4 8.14051L38.8 7.31614L38.1 8.03746C38 8.14051 37.8 8.34659 37.7 8.44964C33.5 12.5714 27 16.7963 19.6 13.911C16.1 12.5714 12.5 12.3653 9.20001 13.2927C7.10001 13.911 5.10001 14.9414 3.10001 16.281L1 18.0328C0.8 18.2389 0.7 18.3419 0.5 18.548L0.300018 18.7541V19.0632C0.200018 19.7846 0.200006 20.5059 0.100006 21.1241L0 23.7002L1.70001 21.8454C1.90001 21.6393 2.10002 21.3302 2.40002 21.1241Z" fill="white"/>
<path d="M28.7 41.1148L28.5 41.733L28.7 41.1148C28.4 41.0117 28.2 40.9087 27.9 40.8056C24.4 39.466 20.8 39.26 17.5 40.1874C16.8 40.3935 16.1 40.5995 15.4 40.9087L13 42.0422L12.4 42.3513L14.4 43.0726C15 43.2787 15.6 43.4848 16.2 43.6909L16.5 43.7939L16.8 43.6909C17.1 43.5878 17.4 43.3817 17.7 43.3817C17.9 43.3817 18.1 43.2787 18.3 43.1757C20.7 42.5574 23.3 42.5574 26.1 43.4848C26.4 43.5878 26.6 43.6909 26.9 43.7939L27.4 44L27.7 43.8969C28.4 43.6909 29.2 43.4848 29.8 43.1757L32.6 42.1452L29.7 41.4239C29.4 41.3208 29 41.2178 28.7 41.1148Z" fill="white"/>
<path d="M44 19.7845L42.5 21.3302C42.3 21.5363 42.1 21.7424 41.9 21.9485C37.8 25.9672 31.2 30.2951 23.8 27.4098C20.3 26.0702 16.7 25.8642 13.4 26.7916C10.3 27.719 7.5 29.3677 5 31.8408L3.70001 33.2834L3.30002 33.7986L3.70001 34.4169C4.00001 34.829 4.20002 35.1382 4.40002 35.5504L5 36.4778L5.70001 35.5504C5.80001 35.4473 6.00001 35.2412 6.10001 35.1382C8.50001 32.459 11.1 30.8103 14.1 29.9859C16.8 29.2646 19.7 29.3677 22.6 30.5012C25.1 31.4286 27.7 31.7377 30.3 31.4286C34.9 30.9134 39.5 28.2342 42.9 25.2459C43.1 25.0398 43.3 24.9368 43.5 24.7307L43.8 24.4215V24.1124C43.8 23.4941 43.9 22.7728 43.9 22.1546L44 19.7845Z" fill="white"/>
<path d="M6 10.3044L5.70001 9.68618L6 10.3044C6.6 9.99532 7.30002 9.78921 7.90002 9.58313C10.6 8.86181 13.5 8.96486 16.4 10.0983C18.3 10.8197 20.2 11.1288 22.3 11.1288C26.5 11.1288 30.7 9.58313 34.6 6.59484L36.1 5.35829L36.6 4.94612L35.7 4.2248C35.4 3.91566 35 3.60654 34.6 3.40045L34 2.98828L33.5 3.40045C33.3 3.5035 33.2 3.70958 33 3.81262C27.7 7.93441 22.4 9.06791 17.4 7.11006C13.8 5.77048 10.2 5.46135 6.60001 6.59484C6.30001 6.69788 6.00001 6.80092 5.60001 6.90396L5.40002 7.00701L5.10001 7.31613C5.10001 7.41918 5.00002 7.41919 4.90002 7.52223C4.50002 8.1405 4.00001 8.65574 3.60001 9.274L1.70001 12.2623L4.80002 10.6136C5.30002 10.6136 5.7 10.4075 6 10.3044Z" fill="white"/>
<path d="M14.2 3.29741L14.5 3.40046C15.8 3.91568 17.8 4.4309 20.3 4.4309C22.9 4.4309 25.4 3.81263 27.9 2.78218L31 1.23652L28.9 0.515223C28.3 0.309134 27.7 0.103045 27 0H26.7L26.4 0.103019C26.1 0.206064 25.8 0.412178 25.5 0.515223C22.5 1.64871 19.5 1.8548 16.6 1.03045C16.3 0.927401 16 0.824337 15.7 0.721293L15.4 0.618242L15.1 0.721293C14.5 0.927382 13.9 1.13348 13.3 1.44262L11 2.47306L13.4 3.19436C13.6 3.09131 13.9 3.19436 14.2 3.29741Z" fill="white"/>
</svg>
